<?xml version='1.0' encoding='utf-8'?>
<svg xmlns="http://www.w3.org/2000/svg" width="100%" height="100%" viewBox="0 0 1920 1080" data-theme="light">
  <style>
        @font-face {
            font-family: 'Inter';
            src: url('assets/fonts/Inter-Regular.ttf') format('truetype');
            font-weight: 400;
            font-style: normal;
            font-display: swap;
        }
        @font-face {
            font-family: 'Inter';
            src: url('assets/fonts/Inter-Bold.ttf') format('truetype');
            font-weight: 600;
            font-style: normal;
            font-display: swap;
        }
        @font-face {
            font-family: 'Inter';
            src: url('assets/fonts/Inter-Bold.ttf') format('truetype');
            font-weight: 800;
            font-style: normal;
            font-display: swap;
        }
        
:root {
    --background: #f8fafc;
    --panel: #ffffff;
    --primary-text: #0f172a;
    --muted-text: #64748b;
    --inverse-text: #ffffff;
    --border: #e2e8f0;
    --shadow-color: #000000;
    --icon-pad-bg: #1e293b;
    --art-glow: #0891b2;
    --art-glow-opacity: 0.10;
    --art-sheen: #ffffff;
    --art-sheen-opacity: 0.34;
    --art-shadow: #0f172a;
    --art-shadow-opacity: 0.14;
    --art-muted-line: #94a3b8;
    --art-panel-tint: #f1f5f9;
    --font-family: 'Inter', 'Segoe UI', 'Kalam', Roboto, Helvetica, Arial, sans-serif;
    --radius-xl: 16px;
    --font-family-headline: 'Inter', 'Segoe UI', 'Kalam', Roboto, Helvetica, Arial, sans-serif;
    --font-family-body: 'Inter', 'Segoe UI', 'Kalam', Roboto, Helvetica, Arial, sans-serif;
    --font-heading: 'Inter', 'Segoe UI', 'Kalam', Roboto, Helvetica, Arial, sans-serif;
    --font-body: 'Inter', 'Segoe UI', 'Kalam', Roboto, Helvetica, Arial, sans-serif;
    --font-size-h1: 56px;
    --font-size-h2: 40px;
    --font-size-h3: 28px;
    --font-size-body: 24px;
    --font-size-caption: 18px;
    --secondary-text: var(--muted-text);
    --panel-border: var(--border);
    --font-weight-normal: 400;
    --font-weight-medium: 500;
    --font-weight-semibold: 600;
    --font-weight-bold: 700;
    --spacing-gutter-pct: 0.07;
    --spacing-top-pct: 0.15;
    --spacing-bottom-pct: 0.07;
    --spacing-title-y-pct: 0.055;
    --accent-1: #0891b2;
    --accent-2: #db2777;
    --accent-3: #ca8a04;
    --accent-4: #65a30d;
    --accent-5: #ea580c;
    --accent-6: #9333ea;
}
:root[data-theme="dark"] {
    --background: #0f172a;
    --panel: #1e293b;
    --primary-text: #f1f5f9;
    --muted-text: #94a3b8;
    --inverse-text: #0f172a;
    --border: #334155;
    --shadow-color: #000000;
    --icon-pad-bg: #1e293b;
    --art-glow: #7dd3fc;
    --art-glow-opacity: 0.18;
    --art-sheen: #ffffff;
    --art-sheen-opacity: 0.18;
    --art-shadow: #000000;
    --art-shadow-opacity: 0.28;
    --art-muted-line: #64748b;
    --art-panel-tint: #1e293b;
    --accent-1: #22d3ee;
    --accent-2: #f472b6;
    --accent-3: #facc15;
    --accent-4: #a3e635;
    --accent-5: #fb923c;
    --accent-6: #c084fc;
}
:root[data-theme="light"] {
    --background: #f8fafc;
    --panel: #ffffff;
    --primary-text: #0f172a;
    --muted-text: #64748b;
    --inverse-text: #ffffff;
    --border: #e2e8f0;
    --shadow-color: #000000;
    --icon-pad-bg: #1e293b;
    --art-glow: #0891b2;
    --art-glow-opacity: 0.10;
    --art-sheen: #ffffff;
    --art-sheen-opacity: 0.34;
    --art-shadow: #0f172a;
    --art-shadow-opacity: 0.14;
    --art-muted-line: #94a3b8;
    --art-panel-tint: #f1f5f9;
    --accent-1: #0891b2;
    --accent-2: #db2777;
    --accent-3: #ca8a04;
    --accent-4: #65a30d;
    --accent-5: #ea580c;
    --accent-6: #9333ea;
}</style>
  <rect x="0" y="0" width="1.92E+3" height="1.08E+3" fill="#252a34" stroke="none" id="programmatic_background"/>
  <line id="HEADER_DECOR" x1="960.0" x2="1080.0" y1="90.0" y2="90.0" stroke="var(--accent-1)" stroke-width="6" stroke-linecap="round"/>
  <defs>
    <filter id="svga9b58f4c-glow" x="-20%" y="-20%" width="140%" height="140%">
      <feGaussianBlur stdDeviation="8" result="blur"/>
      <feComposite in="SourceGraphic" in2="blur" operator="over"/>
    </filter>
    <filter id="svga9b58f4c-drop-shadow" x="-5%" y="-5%" width="110%" height="110%">
      <feDropShadow dx="0" dy="6" stdDeviation="6" flood-color="#000000" flood-opacity="0.3"/>
    </filter>
    <linearGradient id="svga9b58f4c-bg-grad" x1="0%" y1="0%" x2="100%" y2="100%">
      <stop offset="0%" stop-color="var(--background)"/>
      <stop offset="100%" stop-color="var(--panel)"/>
    </linearGradient>
    <radialGradient id="svga9b58f4c-core-glow" cx="50%" cy="50%" r="50%">
      <stop offset="0%" stop-color="var(--accent-1)" stop-opacity="0.2"/>
      <stop offset="60%" stop-color="var(--accent-1)" stop-opacity="0.1"/>
      <stop offset="100%" stop-color="var(--accent-1)" stop-opacity="0"/>
    </radialGradient>
    <pattern id="svga9b58f4c-dot-grid" x="0" y="0" width="40" height="40" patternUnits="userSpaceOnUse">
      <circle cx="2" cy="2" r="1.5" fill="var(--muted-text)" opacity="0.1"/>
    </pattern>
    <radialGradient id="svga9b58f4c-universal-edge-vignette" cx="50%" cy="50%" r="72%">
      <stop offset="0%" stop-color="var(--background)" stop-opacity="0"/>
      <stop offset="72%" stop-color="var(--background)" stop-opacity="0.12"/>
      <stop offset="100%" stop-color="var(--primary-text)" stop-opacity="0.08"/>
    </radialGradient>
    <linearGradient id="svga9b58f4c-universal-surface-sheen" x1="0%" y1="0%" x2="100%" y2="100%">
      <stop offset="0%" stop-color="var(--art-sheen)" stop-opacity="var(--art-sheen-opacity)"/>
      <stop offset="46%" stop-color="var(--art-sheen)" stop-opacity="0.035"/>
      <stop offset="100%" stop-color="var(--art-panel-tint)" stop-opacity="0.14"/>
    </linearGradient>
    <radialGradient id="svga9b58f4c-universal-icon-aura" cx="50%" cy="42%" r="64%">
      <stop offset="0%" stop-color="var(--art-glow)" stop-opacity="var(--art-glow-opacity)"/>
      <stop offset="100%" stop-color="var(--background)" stop-opacity="0"/>
    </radialGradient>
    <radialGradient id="svga9b58f4c-orbital-rings-art-glow" cx="50%" cy="52%" r="68%">
      <stop offset="0%" stop-color="var(--inverse-text)" stop-opacity="0.14"/>
      <stop offset="100%" stop-color="var(--background)" stop-opacity="0"/>
    </radialGradient>
    <linearGradient id="svga9b58f4c-orbital-rings-art-sheen" x1="16%" y1="0%" x2="86%" y2="100%">
      <stop offset="0%" stop-color="var(--inverse-text)" stop-opacity="0.22"/>
      <stop offset="52%" stop-color="var(--inverse-text)" stop-opacity="0.035"/>
      <stop offset="100%" stop-color="var(--background)" stop-opacity="0.14"/>
    </linearGradient>
    <radialGradient id="svga9b58f4c-orbital-depth-glow" cx="50%" cy="50%" r="58%">
      <stop offset="0%" stop-color="var(--art-glow)" stop-opacity="var(--art-glow-opacity)"/>
      <stop offset="58%" stop-color="var(--art-glow)" stop-opacity="0.055"/>
      <stop offset="100%" stop-color="var(--background)" stop-opacity="0"/>
    </radialGradient>
    <linearGradient id="svga9b58f4c-orbital-ring-sweep" x1="0%" y1="0%" x2="100%" y2="100%">
      <stop offset="0%" stop-color="var(--background)" stop-opacity="0"/>
      <stop offset="46%" stop-color="var(--art-sheen)" stop-opacity="0.22"/>
      <stop offset="100%" stop-color="var(--background)" stop-opacity="0"/>
    </linearGradient>
    <filter id="svga9b58f4c-text-glow" x="-20%" y="-20%" width="140%" height="140%">
      <feDropShadow dx="0" dy="0" stdDeviation="2" flood-color="#000000" flood-opacity="0.4"/>
    </filter>
    <filter id="svga9b58f4c-shadow" x="-30%" y="-30%" width="160%" height="160%">
      <feDropShadow dx="0" dy="2" stdDeviation="3" flood-color="#000000" flood-opacity="0.08"/>
      <feDropShadow dx="0" dy="6" stdDeviation="10" flood-color="#000000" flood-opacity="0.12"/>
    </filter>
    <marker id="svga9b58f4c-arrowhead" markerWidth="10" markerHeight="7" refX="9" refY="3.5" orient="auto" markerUnits="strokeWidth">
      <polygon points="0 0, 10 3.5, 0 7" fill="var(--muted-text)" opacity="0.6"/>
    </marker>
  </defs>
  <rect width="100%" height="100%" fill="var(--background)" id="CANVAS_BG"/>
  <ellipse id="ORBITAL-RINGS_ART_GLOW" cx="960" cy="600" rx="650" ry="340" fill="url(#svga9b58f4c-orbital-rings-art-glow)" opacity="0.84"/>
  <rect id="UNIVERSAL_EDGE_VIGNETTE" width="100%" height="100%" fill="url(#svga9b58f4c-universal-edge-vignette)" opacity="0.62"/>
  <rect width="1920" height="1080" fill="url(#svga9b58f4c-bg-grad)"/>
  <rect width="1920" height="1080" fill="url(#svga9b58f4c-dot-grid)"/>
  <rect id="TITLE_FRAME" x="134" y="25" width="1652" height="70" fill="none" pointer-events="none"/>
  <text id="TITLE" x="960.0" y="59" font-size="48" font-weight="700" fill="#0f172a" text-anchor="middle" style="font-size: 60px; font-family: Inter, Segoe UI, Kalam, Roboto, Helvetica, Arial, sans-serif; font-weight: 700; letter-spacing:-1.2px;" data-final-font-size="60">
    <tspan x="960.0" dy="68.00px">Mechanisms of the Autokinetic Effect</tspan>
  </text>
  <g id="DIAGRAM_MAIN">
    <!-- Center Core Glow -->
    <circle cx="960.0" cy="540.0" r="280" fill="url(#svga9b58f4c-core-glow)" pointer-events="none"/>
    <circle cx="960.0" cy="540.0" r="240.0" fill="none" stroke="var(--muted-text)" stroke-width="2" stroke-dasharray="8 8" opacity="0.4"/>
    <circle id="ORBITAL_RINGS_ART_RING_SHEEN_240.0" cx="960.0" cy="540.0" r="240.0" fill="none" stroke="url(#svga9b58f4c-orbital-ring-sweep)" stroke-width="3" stroke-dasharray="28 30" opacity="0.46"/>
    <circle cx="960.0" cy="540.0" r="313.3333333333333" fill="none" stroke="var(--muted-text)" stroke-width="2" stroke-dasharray="8 8" opacity="0.4"/>
    <circle id="ORBITAL_RINGS_ART_RING_SHEEN_313.3333333333333" cx="960.0" cy="540.0" r="313.3333333333333" fill="none" stroke="url(#svga9b58f4c-orbital-ring-sweep)" stroke-width="3" stroke-dasharray="28 30" opacity="0.46"/>
    <circle cx="960.0" cy="540.0" r="386.66666666666663" fill="none" stroke="var(--muted-text)" stroke-width="2" stroke-dasharray="8 8" opacity="0.4"/>
    <circle id="ORBITAL_RINGS_ART_RING_SHEEN_386.66666666666663" cx="960.0" cy="540.0" r="386.66666666666663" fill="none" stroke="url(#svga9b58f4c-orbital-ring-sweep)" stroke-width="3" stroke-dasharray="28 30" opacity="0.46"/>
    <circle cx="960.0" cy="540.0" r="460.0" fill="none" stroke="var(--muted-text)" stroke-width="2" stroke-dasharray="8 8" opacity="0.4"/>
    <circle id="ORBITAL_RINGS_ART_RING_SHEEN_460.0" cx="960.0" cy="540.0" r="460.0" fill="none" stroke="url(#svga9b58f4c-orbital-ring-sweep)" stroke-width="3" stroke-dasharray="28 30" opacity="0.46"/>
    <ellipse id="ORBITAL_RINGS_ART_DEPTH_GLOW" cx="960.0" cy="540.0" rx="410" ry="340" fill="url(#svga9b58f4c-orbital-depth-glow)" opacity="0.92"/>
    <!-- Central Core Graphic -->
    <circle cx="960.0" cy="540.0" r="180" fill="var(--panel)" stroke="var(--primary-text)" stroke-width="4" filter="url(#svga9b58f4c-drop-shadow)"/>
    <circle cx="960.0" cy="540.0" r="165" fill="none" stroke="var(--muted-text)" stroke-width="2" stroke-dasharray="10 5" opacity="0.3"/>
    <circle cx="960.0" cy="540.0" r="140" fill="none" stroke="var(--accent-1)" stroke-width="1" stroke-dasharray="4 4" opacity="0.5"/>
    <circle id="ORBITAL_RINGS_ART_CORE_AURA" cx="960.0" cy="540.0" r="74" fill="url(#svga9b58f4c-universal-icon-aura)" opacity="0.72"/>
    <circle cx="960.0" cy="540.0" r="30" fill="var(--primary-text)" opacity="0.1"/>
    <circle id="ORBITAL_RINGS_ART_CORE_GLINT" cx="938" cy="518" r="11" fill="var(--art-sheen)" opacity="0.34"/>
    <!-- Standard Top Global Title -->
    <circle id="ORBITAL_RINGS_ART_NODE_AURA_1" cx="1200.0" cy="540.0" r="58" fill="var(--accent-5)" opacity="0.72" fill-opacity="1.0" stroke="var(--accent-5)" stroke-opacity="1.0"/>
    <circle id="ITEM_1_BORDER" cx="1200.0" cy="540.0" r="42" fill="var(--icon-pad-bg)" stroke="var(--accent-5)" filter="url(#svga9b58f4c-drop-shadow)" stroke-opacity="1.0"/>
    <circle id="ITEM_1_STROKE" cx="1200.0" cy="540.0" r="34" fill="none" stroke="var(--accent-1)" stroke-width="3" stroke-dasharray="6 4" opacity="0.95"/>
    <!-- Node Icon Placeholder -->
    <circle id="ITEM_1_PAD" cx="1204.00" cy="544.00" r="44.80" fill="var(--icon-pad-bg)" stroke="var(--primary-text)" stroke-width="2" opacity="0.9"/>
    <circle id="ITEM_1_PAD_INNER" cx="1204.00" cy="544.00" r="34.94" fill="var(--accent-5)" fill-opacity="0.22"/>
    <g id="ITEM_1_ICON" transform="translate(1176.0, 516.0)" data-icon-size="56" stroke-dasharray="6 4">
      <g transform="translate(-10.964106194690263,-11.891823008849553) scale(2.4739115044247786)">
        <path d="M17.6512 22.27H13.7612C12.9712 22.27 12.3212 22.91 12.3312 23.7V27.59C12.3312 28.38 12.9712 29.02 13.7612 29.02H14.0093C14.3418 29.6109 14.9749 30.01 15.7012 30.01C16.4275 30.01 17.0605 29.6109 17.393 29.02H17.6512C18.4412 29.02 19.0812 28.38 19.0812 27.59V23.7C19.0812 22.91 18.4412 22.27 17.6512 22.27Z" fill="#9B9B9B"/>
        <path d="M18.1611 23.13C18.4011 23.13 18.5911 22.95 18.6111 22.72C18.6811 21.86 19.0511 19.77 21.0711 17.53C22.9611 16.04 24.2111 13.78 24.3611 11.22C24.3811 10.98 24.3911 10.82 24.3911 10.72V10.71V10.7C24.3911 10.65 24.3911 10.62 24.3911 10.62C24.3311 5.84 20.4611 2 15.6911 2C10.9211 2 7.05111 5.84 7.00111 10.6C7.00111 10.6 6.99111 10.84 7.03111 11.24C7.19111 13.78 8.43111 16.03 10.3211 17.52C12.3411 19.77 12.7411 21.86 12.8111 22.72C12.8311 22.95 13.0211 23.13 13.2611 23.13H18.1611Z" fill="#FCD53F"/>
        <path d="M15.7011 10.7C17.3211 10.7 18.6411 12.01 18.6611 13.63V13.71C18.6611 13.74 18.6611 13.78 18.6511 13.84C18.6011 14.68 18.1911 15.47 17.5311 15.99L17.4611 16.04L17.4011 16.1C16.3011 17.32 16.0711 20.42 16.0311 22.12H15.3811C15.3311 20.42 15.0911 17.32 13.9911 16.1L13.9311 16.04L13.8611 15.99C13.2011 15.47 12.7911 14.69 12.7411 13.82C12.7411 13.78 12.7311 13.75 12.7311 13.73V13.64C12.7611 12.02 14.0911 10.7 15.7011 10.7ZM15.7011 9.69995C13.5311 9.69995 11.7611 11.45 11.7411 13.62C11.7411 13.62 11.7411 13.73 11.7511 13.91C11.8211 15.07 12.3911 16.09 13.2511 16.77C14.4511 18.11 14.3911 23.13 14.3911 23.13H17.0311C17.0311 23.13 16.9511 18.11 18.1611 16.78C19.0211 16.1 19.5911 15.07 19.6611 13.9C19.6711 13.79 19.6711 13.72 19.6711 13.67C19.6711 13.65 19.6711 13.63 19.6711 13.63C19.6411 11.45 17.8811 9.69995 15.7011 9.69995Z" fill="#FFB02E"/>
        <path d="M19.1674 25.0525C19.4394 25.0049 19.6213 24.7458 19.5737 24.4738C19.526 24.2018 19.2669 24.0199 18.9949 24.0675L12.2549 25.2475C11.9829 25.2951 11.801 25.5542 11.8486 25.8262C11.8963 26.0983 12.1554 26.2801 12.4274 26.2325L19.1674 25.0525ZM19.1178 27.2025C19.3897 27.1546 19.5714 26.8954 19.5236 26.6234C19.4757 26.3514 19.2165 26.1698 18.9445 26.2176L12.2945 27.3876C12.0225 27.4355 11.8408 27.6947 11.8887 27.9667C11.9365 28.2386 12.1958 28.4203 12.4678 28.3725L19.1178 27.2025Z" fill="#D3D3D3"/>
        <path d="M13.7912 5.43997C12.6812 7.35997 13.2412 9.75997 15.0412 10.79C16.8412 11.82 19.1912 11.11 20.3012 9.18997C21.4112 7.26997 20.8512 4.86997 19.0512 3.83997C17.2512 2.80997 14.9012 3.51997 13.7912 5.43997Z" fill="#FFF478"/>
      </g>
    </g>
    <line x1="1248.0" y1="540.0" x2="1260.0" y2="540.0" stroke="var(--accent-1)" stroke-width="2" stroke-dasharray="2 2" opacity="0.5"/>
    <circle cx="1260.0" cy="540.0" r="3" fill="var(--accent-1)"/>
    <!-- Node 1 Frames -->
    <rect id="ITEM_1_HEAD_FRAME" x="1270.0" y="500.0" width="260" height="40" fill="none" pointer-events="none"/>
    <rect id="ITEM_1_BODY_FRAME" x="1270" y="540.0" width="380" height="120" fill="none" pointer-events="none"/>
    <rect id="ITEM_1_TEXT_BG" x="1252" y="486" width="416" height="192" rx="22" fill="var(--panel)" fill-opacity="0.94" stroke="var(--primary-text)" stroke-width="2"/>
    <text id="ITEM_1_HEAD" x="1270.0" y="500.0" font-family="var(--font-heading)" font-weight="bold" font-size="28" fill="var(--primary-text)" text-anchor="start" data-bg-id="ITEM_1_TEXT_BG" fill-opacity="1.0" style="font-size: 30px; font-family: Inter, Segoe UI, Kalam, Roboto, Helvetica, Arial, sans-serif; font-weight: 700; letter-spacing:-0.4px;" data-final-font-size="30">
      <tspan x="1270.0" dy="28.25px">Visual Isolation</tspan>
    </text>
    <text id="ITEM_1_BODY" x="1270.0" y="540.0" font-family="var(--font-body)" font-size="20" fill="var(--primary-text)" opacity="0.8" text-anchor="start" data-bg-id="ITEM_1_TEXT_BG" style="font-size: 26px; font-family: Inter, Segoe UI, Kalam, Roboto, Helvetica, Arial, sans-serif; font-weight: 400;" data-final-font-size="26">
      <tspan x="1270.0" dy="32.84px">Observers stare at a single</tspan>
      <tspan x="1270.0" dy="29.90px">bright point in darkness</tspan>
    </text>
    <circle id="ORBITAL_RINGS_ART_NODE_AURA_2" cx="646.6666666666667" cy="540.0" r="58" fill="var(--accent-6)" opacity="0.72" fill-opacity="1.0" stroke="var(--accent-6)" stroke-opacity="1.0"/>
    <circle id="ITEM_2_BORDER" cx="646.6666666666667" cy="540.0" r="42" fill="var(--icon-pad-bg)" stroke="var(--accent-6)" filter="url(#svga9b58f4c-drop-shadow)" stroke-opacity="1.0"/>
    <circle id="ITEM_2_STROKE" cx="646.6666666666667" cy="540.0" r="34" fill="none" stroke="var(--accent-2)" stroke-width="3" stroke-dasharray="6 4" opacity="0.95"/>
    <!-- Node Icon Placeholder -->
    <circle id="ITEM_2_PAD" cx="650.67" cy="544.00" r="44.80" fill="var(--icon-pad-bg)" stroke="var(--primary-text)" stroke-width="2" opacity="0.9"/>
    <circle id="ITEM_2_PAD_INNER" cx="650.67" cy="544.00" r="34.94" fill="var(--accent-6)" fill-opacity="0.22"/>
    <g id="ITEM_2_ICON" transform="translate(622.6666666666667, 516.0)" data-icon-size="56" stroke-dasharray="6 4">
      <g transform="translate(-9.905355932203385,-9.905355932203385) scale(3.1587796610169487)" vector-effect="non-scaling-stroke" stroke-width="2.38" stroke-linecap="round" stroke-linejoin="round" stroke-opacity="1.0">
        <path d="m2 2 20 20" vector-effect="non-scaling-stroke" fill="none" stroke="#f1f5f9"/>
        <path d="M8.35 2.69A10 10 0 0 1 21.3 15.65" vector-effect="non-scaling-stroke" fill="none" stroke="#f1f5f9"/>
        <path d="M19.08 19.08A10 10 0 1 1 4.92 4.92" vector-effect="non-scaling-stroke" fill="none" stroke="#f1f5f9"/>
      </g>
    </g>
    <line x1="598.6666666666667" y1="540.0" x2="586.6666666666667" y2="540.0" stroke="var(--accent-2)" stroke-width="2" stroke-dasharray="2 2" opacity="0.5"/>
    <circle cx="586.6666666666667" cy="540.0" r="3" fill="var(--accent-2)"/>
    <!-- Node 2 Frames -->
    <rect id="ITEM_2_HEAD_FRAME" x="316.66666666666674" y="500.0" width="260" height="40" fill="none" pointer-events="none"/>
    <rect id="ITEM_2_BODY_FRAME" x="196.7" y="540.0" width="380" height="120" fill="none" pointer-events="none"/>
    <rect id="ITEM_2_TEXT_BG" x="178.7" y="486" width="416" height="192" rx="22" fill="var(--panel)" fill-opacity="0.94" stroke="var(--primary-text)" stroke-width="2"/>
    <text id="ITEM_2_HEAD" x="576.6666666666667" y="500.0" font-family="var(--font-heading)" font-weight="bold" font-size="28" fill="var(--accent-6)" text-anchor="end" data-bg-id="ITEM_2_TEXT_BG" fill-opacity="1.0" style="font-size: 30px; font-family: Inter, Segoe UI, Kalam, Roboto, Helvetica, Arial, sans-serif; font-weight: 700; letter-spacing:-0.4px;" data-final-font-size="30">
      <tspan x="576.6666666666667" dy="28.25px">Reference Loss</tspan>
    </text>
    <text id="ITEM_2_BODY" x="576.7" y="540.0" font-family="var(--font-body)" font-size="20" fill="var(--primary-text)" opacity="0.8" text-anchor="end" data-bg-id="ITEM_2_TEXT_BG" style="font-size: 26px; font-family: Inter, Segoe UI, Kalam, Roboto, Helvetica, Arial, sans-serif; font-weight: 400;" data-final-font-size="26">
      <tspan x="576.7" dy="32.84px">Lack of surrounding landmarks</tspan>
      <tspan x="576.7" dy="29.90px">prevents motion stabilization</tspan>
    </text>
    <circle id="ORBITAL_RINGS_ART_NODE_AURA_3" cx="1208.5445424121285" cy="243.79614866066186" r="58" fill="var(--accent-1)" opacity="0.72" fill-opacity="1.0" stroke="var(--accent-1)" stroke-opacity="1.0"/>
    <circle id="ITEM_3_BORDER" cx="1208.5445424121285" cy="243.79614866066186" r="42" fill="var(--icon-pad-bg)" stroke="var(--accent-1)" filter="url(#svga9b58f4c-drop-shadow)" stroke-opacity="1.0"/>
    <circle id="ITEM_3_STROKE" cx="1208.5445424121285" cy="243.79614866066186" r="34" fill="none" stroke="var(--accent-3)" stroke-width="3" stroke-dasharray="6 4" opacity="0.95"/>
    <!-- Node Icon Placeholder -->
    <circle id="ITEM_3_PAD" cx="1212.54" cy="247.80" r="44.80" fill="var(--icon-pad-bg)" stroke="var(--primary-text)" stroke-width="2" opacity="0.9"/>
    <circle id="ITEM_3_PAD_INNER" cx="1212.54" cy="247.80" r="34.94" fill="var(--accent-1)" fill-opacity="0.22"/>
    <g id="ITEM_3_ICON" transform="translate(1184.5445424121285, 219.79614866066186)" data-icon-size="56" stroke-dasharray="6 4">
      <g transform="translate(-9.880470588235289,-9.29317647058823) scale(0.14682352941176469)" vector-effect="non-scaling-stroke" fill="#f1f5f9" fill-opacity="1.0" stroke="none">
        <path fill="#f1f5f9" d="M256.242 19.143q-1.95.011-3.896.054c-8.782.195-17.528.884-26.198 2.053l13.957 18.725L276.9 68.008l-48.474-11.682l-22.586-31.424a235.5 235.5 0 0 0-68.522 27.258l4.67 19.35l58.403 10.51l-2.335 50.812l-17.522-35.623l-53.728-9.347l-6.063-24.886a233.3 233.3 0 0 0-41.679 38.227l13.866 45.06l54.898 8.176l-68.33 13.433l-14.633-48.287a239 239 0 0 0-10.844 17.068c-12.047 20.868-20.527 42.807-25.64 65.114l49.368 23.92l49.06-.58l-49.06 21.607l-18.105-8.81v25.747h30.37l-49.058 18.69v-53.526l-16.13-7.847c-5.85 41.047-.63 82.657 14.546 120.55l21.44-23.553l12.37 11.498l34.103-12.99l-21.453 24.75l16.443 15.285l-40.296-12.264l-14.17 15.908a233.7 233.7 0 0 0 35.44 51.586l40.896-.158l-28.047 13.262a236 236 0 0 0 43.89 32.63c112.427 64.91 255.91 26.462 320.82-85.964c64.91-112.427 26.464-255.91-85.962-320.82c-21.172-12.224-43.447-20.773-66.09-25.862l9.207 25.723l-29.07-29.292a234 234 0 0 0-32.648-2.115zm81.076 126.125c21.167.245 42.198 5.62 61.43 16.72c65.644 37.893 83.97 127.31 42.557 199.026c-41.41 71.71-128.022 100.554-193.666 62.662s-83.97-127.31-42.558-199.026c28.47-49.303 78.305-78.34 128.002-79.363a130 130 0 0 1 4.234-.02zm-.59 18.67a111 111 0 0 0-3.654.023c-18.408.41-36.93 5.29-54.09 14.185l34.21 53.44a87.7 87.7 0 0 0-15.227 10.874l-34.947-54.59c-16.317 11.548-30.75 27.068-41.754 46.126a154 154 0 0 0-2.27 4.092l62.068 24.504a91.4 91.4 0 0 0-8.17 16.867l-61.72-24.366c-10.588 27.475-12.18 56.18-5.824 81.922l62.4-21.23c.464 6.36 1.638 12.59 3.516 18.544l-60.073 20.44c9.103 21.78 24.502 40.32 45.436 52.51l30.73-45a69.4 69.4 0 0 0 14.5 11.904l-28.08 41.12c20.49 7.43 42.64 8.273 64.046 3.23l.31-33.95c6.27.064 12.55-.674 18.71-2.166l-.276 30.12c12.81-5.225 25.06-12.622 36.186-22.013l-11.71-18.29a88 88 0 0 0 14.808-11.53l10.613 16.578a149 149 0 0 0 18.654-25.615c1.91-3.307 3.67-6.652 5.294-10.023l-16.094-6.354c2.808-5.71 4.987-11.582 6.504-17.522l16.633 6.566c5.45-16.308 7.792-32.934 7.25-49.018l-22.186 7.55a79 79 0 0 0-5.09-18.01l25.246-8.588c-3.6-19.748-11.75-38.048-24.008-53.122l-22.637 33.147a70 70 0 0 0-8.602-5.852a71 71 0 0 0-7.487-3.725l25.425-37.23a105.56 105.56 0 0 0-46.547-23.094l-.502 54.96c-2.52-.213-5.05-.3-7.58-.248c-3.716.073-7.43.437-11.115 1.06l.532-58.135q-1.71-.07-3.423-.09zm15.786 75.83c3.027.026 6.037.308 9.006.84c-7.354 7.116-12.168 18.937-12.168 32.326c0 21.752 12.7 39.384 28.367 39.384c12.172 0 22.55-10.647 26.577-25.597c2.1 14.36-.655 30.18-9.07 44.72c-18.287 31.595-55.212 43.19-82.24 27.623c-27.03-15.567-35.414-53.21-17.128-84.805c12.57-21.722 33.953-33.99 54.872-34.477a56 56 0 0 1 1.782-.012z" vector-effect="non-scaling-stroke" stroke="none"/>
      </g>
    </g>
    <line x1="1239.3983476770825" y1="207.0260153909509" x2="1268.5445424121285" y2="243.79614866066186" stroke="var(--accent-3)" stroke-width="2" stroke-dasharray="2 2" opacity="0.5"/>
    <circle cx="1268.5445424121285" cy="243.79614866066186" r="3" fill="var(--accent-3)"/>
    <!-- Node 3 Frames -->
    <rect id="ITEM_3_HEAD_FRAME" x="1278.5445424121285" y="203.79614866066186" width="260" height="40" fill="none" pointer-events="none"/>
    <rect id="ITEM_3_BODY_FRAME" x="1278.5" y="243.79614866066186" width="380" height="120" fill="none" pointer-events="none"/>
    <rect id="ITEM_3_TEXT_BG" x="1260.5" y="189.79614866066186" width="416" height="192" rx="22" fill="var(--panel)" fill-opacity="0.94" stroke="var(--primary-text)" stroke-width="2"/>
    <text id="ITEM_3_HEAD" x="1278.5445424121285" y="203.79614866066186" font-family="var(--font-heading)" font-weight="bold" font-size="28" fill="var(--primary-text)" text-anchor="start" data-bg-id="ITEM_3_TEXT_BG" fill-opacity="1.0" style="font-size: 26px; font-family: Inter, Segoe UI, Kalam, Roboto, Helvetica, Arial, sans-serif; font-weight: 700; letter-spacing:-0.4px;" data-final-font-size="26">
      <tspan x="1278.5445424121285" dy="25.85px">Involuntary Movement</tspan>
    </text>
    <text id="ITEM_3_BODY" x="1278.5" y="243.79614866066186" font-family="var(--font-body)" font-size="20" fill="var(--primary-text)" opacity="0.8" text-anchor="start" data-bg-id="ITEM_3_TEXT_BG" style="font-size: 26px; font-family: Inter, Segoe UI, Kalam, Roboto, Helvetica, Arial, sans-serif; font-weight: 400;" data-final-font-size="26">
      <tspan x="1278.5" dy="32.84px">Small eye movements create</tspan>
      <tspan x="1278.5" dy="29.90px">shifting retinal images</tspan>
    </text>
    <circle id="ORBITAL_RINGS_ART_NODE_AURA_4" cx="664.3176995441919" cy="892.3804438347299" r="58" fill="var(--accent-2)" opacity="0.72" fill-opacity="1.0" stroke="var(--accent-2)" stroke-opacity="1.0"/>
    <circle id="ITEM_4_BORDER" cx="664.3176995441919" cy="892.3804438347299" r="42" fill="var(--icon-pad-bg)" stroke="var(--accent-2)" filter="url(#svga9b58f4c-drop-shadow)" stroke-opacity="1.0"/>
    <circle id="ITEM_4_STROKE" cx="664.3176995441919" cy="892.3804438347299" r="34" fill="none" stroke="var(--accent-4)" stroke-width="3" stroke-dasharray="6 4" opacity="0.95"/>
    <!-- Node Icon Placeholder -->
    <circle id="ITEM_4_PAD" cx="668.32" cy="896.38" r="44.80" fill="var(--icon-pad-bg)" stroke="var(--primary-text)" stroke-width="2" opacity="0.9"/>
    <circle id="ITEM_4_PAD_INNER" cx="668.32" cy="896.38" r="34.94" fill="var(--accent-2)" fill-opacity="0.22"/>
    <g id="ITEM_4_ICON" transform="translate(640.3176995441919, 868.3804438347299)" data-icon-size="56" stroke-dasharray="6 4">
      <g transform="translate(-9.273599999999995,-9.855999999999995) scale(2.3295999999999997)">
        <path d="M30.893 15C30.044 7.683 23.834 2 16.289 2H15.057C7.293 2 1 8.293 1 16.057C1 18.787 3.213 21 5.943 21H8.025C8.278 23.803 10.631 26 13.5 26H24C27.17 26 29.845 23.891 30.706 21C30.895 20.366 31 19.695 31 19V16.711C31 16.131 30.958 15.562 30.893 15Z" fill="#FF6DC6"/>
        <path d="M25 25.982V29.586C25 30.254 24.192 30.589 23.72 30.116L19.604 26L25 25.982Z" fill="#F70A8D"/>
        <path d="M10.178 7.536C10.285 7.503 10.367 7.407 10.377 7.287C10.45 6.417 10.508 5.544 10.5 4.659C10.221 5.413 10 6.177 9.79203 6.943C7.93903 7.238 6.17903 8.228 4.94903 9.671C3.66703 11.148 2.93203 13.106 3.05503 15C3.58403 13.192 4.45103 11.598 5.66503 10.315C6.87703 9.036 8.40603 8.087 10.122 7.553L10.178 7.536ZM19.682 5.159C19.412 4.594 18.935 4.134 18.372 3.822C17.81 3.502 17.152 3.349 16.5 3.341C15.848 3.351 15.191 3.504 14.629 3.824C14.067 4.135 13.589 4.595 13.318 5.159C14.427 4.616 15.441 4.334 16.5 4.341C17.559 4.336 18.57 4.617 19.682 5.159ZM11.055 15.098C10.75 15.192 10.459 15.325 10.176 15.477C10.166 15.385 10.154 15.293 10.133 15.203C10.035 14.761 9.79203 14.355 9.47503 14.026C8.83403 13.382 7.79803 13.091 7.00003 13.5C7.77503 13.902 8.30103 14.259 8.76803 14.732C9.08703 15.048 9.35203 15.396 9.61503 15.823C9.36503 16 9.12303 16.19 8.90403 16.404C8.30903 17.01 7.84303 17.749 7.59603 18.554C7.34303 19.354 7.29203 20.213 7.50003 21C7.90203 19.438 8.58103 18.134 9.61003 17.11C10.631 16.079 11.938 15.4 13.5 15C12.713 14.794 11.854 14.845 11.055 15.098ZM23.042 19.538C22.622 19.615 22.063 19.536 21.511 19.528L19.872 19.5C19.141 19.505 18.409 19.525 17.678 19.555C18.185 19.002 18.393 18.142 18 17.5C17.597 18.145 17.295 18.539 16.914 18.914C16.651 19.179 16.374 19.408 16.013 19.66C15.115 19.735 14.217 19.837 13.319 20C15.504 20.396 17.688 20.485 19.873 20.5L20.229 20.494C20.488 20.687 20.707 20.875 20.915 21.086C21.294 21.462 21.596 21.856 22.001 22.5C22.21 22.171 22.249 21.77 22.171 21.394C22.106 21.047 21.921 20.733 21.686 20.465L22.332 20.437C22.594 20.435 22.956 20.396 23.243 20.291C24.474 19.921 25.238 18.605 25.002 17.501C24.792 18.598 23.957 19.385 23.042 19.538ZM29.365 16.863C29.094 15.997 28.591 15.204 27.949 14.551C27.296 13.91 26.502 13.407 25.636 13.136C25.105 12.964 24.55 12.886 24.001 12.891C24.616 12.249 25.101 11.478 25.364 10.636C25.643 9.776 25.706 8.853 25.5 8C25.1 9.693 24.367 11.129 23.243 12.243C22.127 13.366 20.693 14.097 19 14.5C19.853 14.708 20.777 14.645 21.637 14.365C22.384 14.131 23.071 13.717 23.667 13.198C25.068 13.623 26.282 14.286 27.244 15.256C28.367 16.372 29.098 17.806 29.501 19.499C29.708 18.647 29.645 17.723 29.365 16.863Z" fill="#F70A8D"/>
      </g>
    </g>
    <line x1="633.463894279238" y1="929.1505771044409" x2="604.3176995441919" y2="892.3804438347299" stroke="var(--accent-4)" stroke-width="2" stroke-dasharray="2 2" opacity="0.5"/>
    <circle cx="604.3176995441919" cy="892.3804438347299" r="3" fill="var(--accent-4)"/>
    <!-- Node 4 Frames -->
    <rect id="ITEM_4_HEAD_FRAME" x="334.3176995441919" y="852.3804438347299" width="260" height="40" fill="none" pointer-events="none"/>
    <rect id="ITEM_4_BODY_FRAME" x="214.3" y="892.3804438347299" width="380" height="120" fill="none" pointer-events="none"/>
    <rect id="ITEM_4_TEXT_BG" x="196.3" y="838.3804438347299" width="416.0176995441919" height="192" rx="22" fill="var(--panel)" fill-opacity="0.94" stroke="var(--primary-text)" stroke-width="2"/>
    <text id="ITEM_4_HEAD" x="594.3176995441919" y="852.3804438347299" font-family="var(--font-heading)" font-weight="bold" font-size="28" fill="var(--accent-2)" text-anchor="end" data-bg-id="ITEM_4_TEXT_BG" fill-opacity="1.0" style="font-size: 26px; font-family: Inter, Segoe UI, Kalam, Roboto, Helvetica, Arial, sans-serif; font-weight: 700; letter-spacing:-0.4px;" data-final-font-size="26">
      <tspan x="594.3176995441919" dy="25.85px">Brain Misattribution</tspan>
    </text>
    <text id="ITEM_4_BODY" x="594.3" y="892.3804438347299" font-family="var(--font-body)" font-size="20" fill="var(--primary-text)" opacity="0.8" text-anchor="end" data-bg-id="ITEM_4_TEXT_BG" style="font-size: 26px; font-family: Inter, Segoe UI, Kalam, Roboto, Helvetica, Arial, sans-serif; font-weight: 400;" data-final-font-size="26">
      <tspan x="594.3" dy="32.84px">Neural systems interpret eye</tspan>
      <tspan x="594.3" dy="29.90px">movement as light motion</tspan>
    </text>
  </g>
</svg>
