<?xml version='1.0' encoding='utf-8'?>
<svg xmlns="http://www.w3.org/2000/svg" width="1920" height="1080" viewBox="0 0 1920 1080" data-theme="dark">
  <style>
        @font-face {
            font-family: 'Inter';
            src: url('assets/fonts/Inter-Regular.ttf') format('truetype');
            font-weight: 400;
            font-style: normal;
            font-display: swap;
        }
        @font-face {
            font-family: 'Inter';
            src: url('assets/fonts/Inter-Bold.ttf') format('truetype');
            font-weight: 600;
            font-style: normal;
            font-display: swap;
        }
        @font-face {
            font-family: 'Inter';
            src: url('assets/fonts/Inter-Bold.ttf') format('truetype');
            font-weight: 800;
            font-style: normal;
            font-display: swap;
        }
        
:root {
    --background: #0f172a;
    --panel: #1e293b;
    --primary-text: #f1f5f9;
    --muted-text: #94a3b8;
    --inverse-text: #0f172a;
    --border: #334155;
    --shadow-color: #000000;
    --icon-pad-bg: #1e293b;
    --art-glow: #7dd3fc;
    --art-glow-opacity: 0.18;
    --art-sheen: #ffffff;
    --art-sheen-opacity: 0.18;
    --art-shadow: #000000;
    --art-shadow-opacity: 0.28;
    --art-muted-line: #64748b;
    --art-panel-tint: #1e293b;
    --font-family: 'Inter', 'Segoe UI', 'Kalam', Roboto, Helvetica, Arial, sans-serif;
    --radius-xl: 16px;
    --font-family-headline: 'Inter', 'Segoe UI', 'Kalam', Roboto, Helvetica, Arial, sans-serif;
    --font-family-body: 'Inter', 'Segoe UI', 'Kalam', Roboto, Helvetica, Arial, sans-serif;
    --font-heading: 'Inter', 'Segoe UI', 'Kalam', Roboto, Helvetica, Arial, sans-serif;
    --font-body: 'Inter', 'Segoe UI', 'Kalam', Roboto, Helvetica, Arial, sans-serif;
    --font-size-h1: 56px;
    --font-size-h2: 40px;
    --font-size-h3: 28px;
    --font-size-body: 24px;
    --font-size-caption: 18px;
    --secondary-text: var(--muted-text);
    --panel-border: var(--border);
    --font-weight-normal: 400;
    --font-weight-medium: 500;
    --font-weight-semibold: 600;
    --font-weight-bold: 700;
    --spacing-gutter-pct: 0.07;
    --spacing-top-pct: 0.15;
    --spacing-bottom-pct: 0.07;
    --spacing-title-y-pct: 0.055;
    --accent-1: #a5b4fc;
    --accent-2: #34d399;
    --accent-3: #f472b6;
    --accent-4: #fbbf24;
    --accent-5: #38bdf8;
    --accent-6: #c084fc;
    --accent-7: #f87171;
    --accent-8: #2dd4bf;
    --accent-9: #fb923c;
    --accent-10: #e879f9;
}
:root[data-theme="dark"] {
    --background: #0f172a;
    --panel: #1e293b;
    --primary-text: #f1f5f9;
    --muted-text: #94a3b8;
    --inverse-text: #0f172a;
    --border: #334155;
    --shadow-color: #000000;
    --icon-pad-bg: #1e293b;
    --art-glow: #7dd3fc;
    --art-glow-opacity: 0.18;
    --art-sheen: #ffffff;
    --art-sheen-opacity: 0.18;
    --art-shadow: #000000;
    --art-shadow-opacity: 0.28;
    --art-muted-line: #64748b;
    --art-panel-tint: #1e293b;
    --accent-1: #a5b4fc;
    --accent-2: #34d399;
    --accent-3: #f472b6;
    --accent-4: #fbbf24;
    --accent-5: #38bdf8;
    --accent-6: #c084fc;
    --accent-7: #f87171;
    --accent-8: #2dd4bf;
    --accent-9: #fb923c;
    --accent-10: #e879f9;
}
:root[data-theme="light"] {
    --background: #f8fafc;
    --panel: #ffffff;
    --primary-text: #0f172a;
    --muted-text: #64748b;
    --inverse-text: #ffffff;
    --border: #e2e8f0;
    --shadow-color: #000000;
    --icon-pad-bg: #1e293b;
    --art-glow: #0891b2;
    --art-glow-opacity: 0.10;
    --art-sheen: #ffffff;
    --art-sheen-opacity: 0.34;
    --art-shadow: #0f172a;
    --art-shadow-opacity: 0.14;
    --art-muted-line: #94a3b8;
    --art-panel-tint: #f1f5f9;
    --accent-1: #4f46e5;
    --accent-2: #059669;
    --accent-3: #db2777;
    --accent-4: #d97706;
    --accent-5: #0284c7;
    --accent-6: #7c3aed;
    --accent-7: #dc2626;
    --accent-8: #0d9488;
    --accent-9: #ea580c;
    --accent-10: #c026d3;
}</style>
  <rect x="0" y="0" width="1.92E+3" height="1.08E+3" fill="#252a34" stroke="none" id="programmatic_background"/>
  <line id="HEADER_DECOR" x1="960.0" x2="1080.0" y1="135.0" y2="135.0" stroke="var(--accent-1)" stroke-width="6" stroke-linecap="round"/>
  <defs>
    <pattern id="svg6a0b9437-napkin-hatch" patternUnits="userSpaceOnUse" width="12" height="12">
      <path d="M -3 12 L 12 -3 M 0 15 L 15 0" fill="none" stroke="var(--primary-text)" stroke-width="1" stroke-opacity="0.05"/>
    </pattern>
    <filter id="svg6a0b9437-shadow" x="-30%" y="-30%" width="160%" height="160%">
      <feDropShadow dx="0" dy="2" stdDeviation="3" flood-color="#000000" flood-opacity="0.08"/>
      <feDropShadow dx="0" dy="6" stdDeviation="10" flood-color="#000000" flood-opacity="0.12"/>
    </filter>
    <marker id="svg6a0b9437-arrowhead" markerWidth="10" markerHeight="10" refX="9" refY="5" orient="auto">
      <path d="M 0 0 L 10 5 L 0 10 Z" fill="var(--accent-1)"/>
    </marker>
    <filter id="svg6a0b9437-text-glow" x="-20%" y="-20%" width="140%" height="140%">
      <feDropShadow dx="0" dy="0" stdDeviation="2" flood-color="#000000" flood-opacity="0.4"/>
    </filter>
    <radialGradient id="svg6a0b9437-universal-edge-vignette" cx="50%" cy="50%" r="72%">
      <stop offset="0%" stop-color="var(--background)" stop-opacity="0"/>
      <stop offset="72%" stop-color="var(--background)" stop-opacity="0.12"/>
      <stop offset="100%" stop-color="var(--primary-text)" stop-opacity="0.08"/>
    </radialGradient>
    <linearGradient id="svg6a0b9437-universal-surface-sheen" x1="0%" y1="0%" x2="100%" y2="100%">
      <stop offset="0%" stop-color="var(--art-sheen)" stop-opacity="var(--art-sheen-opacity)"/>
      <stop offset="46%" stop-color="var(--art-sheen)" stop-opacity="0.035"/>
      <stop offset="100%" stop-color="var(--art-panel-tint)" stop-opacity="0.14"/>
    </linearGradient>
    <radialGradient id="svg6a0b9437-universal-icon-aura" cx="50%" cy="42%" r="64%">
      <stop offset="0%" stop-color="var(--art-glow)" stop-opacity="var(--art-glow-opacity)"/>
      <stop offset="100%" stop-color="var(--background)" stop-opacity="0"/>
    </radialGradient>
  </defs>
  <rect width="100%" height="100%" fill="var(--background)" id="CANVAS_BG"/>
  <rect width="100%" height="100%" fill="url(#svg6a0b9437-napkin-hatch)"/>
  <rect id="UNIVERSAL_EDGE_VIGNETTE" width="100%" height="100%" fill="url(#svg6a0b9437-universal-edge-vignette)" opacity="0.62"/>
  <text id="TITLE" x="960.0" y="59" text-anchor="middle" font-weight="700" font-size="72" fill="#f1f5f9" style="font-size: 60px; font-family: Inter, Segoe UI, Kalam, Roboto, Helvetica, Arial, sans-serif; font-weight: 700; letter-spacing:-1.2px;" data-final-font-size="60">
    <tspan x="960.0" dy="68.00px">Rendlesham Memory Reliability Factors</tspan>
  </text>
  <rect id="TITLE_FRAME" x="134" y="59" width="1652" height="103" fill="none"/>
  <g id="DIAGRAM_SCALER" transform="translate(28.8, 27.0) scale(0.97)">
    <path d="M 960 360 L 960 450" stroke="var(--muted-text)" stroke-width="3.0" fill="none" opacity="0.52"/>
    <path d="M 210.0 450 L 1710.0 450" stroke="var(--muted-text)" stroke-width="3.0" fill="none" opacity="0.52"/>
    <path d="M 210.0 450 L 210.0 570" stroke="var(--muted-text)" stroke-width="3.0" fill="none" opacity="0.52"/>
    <path d="M 693.3 450 L 693.3 570" stroke="var(--muted-text)" stroke-width="3.0" fill="none" opacity="0.52"/>
    <path d="M 1226.7 450 L 1226.7 570" stroke="var(--muted-text)" stroke-width="3.0" fill="none" opacity="0.52"/>
    <path d="M 1710.0 450 L 1710.0 570" stroke="var(--muted-text)" stroke-width="3.0" fill="none" opacity="0.52"/>
    <g transform="translate(960.0, 270.0)">
      <rect id="ITEM_1_BG" x="-210" y="-90" width="420" height="180" rx="24" fill="var(--panel)" fill-opacity="0.86" stroke="var(--primary-text)" stroke-width="2.6"/>
      <circle id="ITEM_1_PAD" cx="0" cy="40" r="42" fill="var(--icon-pad-bg)" stroke="var(--primary-text)" opacity="0.9" fill-opacity="0.9" stroke-width="2"/>
      <circle id="ITEM_1_PAD_INNER" cx="0" cy="40" r="32.76" fill="var(--accent-5)" fill-opacity="0.22"/>
      <circle cx="0" cy="40" r="33.6" fill="none" stroke="var(--accent-1)" stroke-width="3" stroke-dasharray="6 4"/>
      <g id="ITEM_1_ICON" transform="translate(-36.0, 4.0)" data-icon-size="72">
        <g transform="translate(-5.142857142857143,-7.714285714285717) scale(2.5714285714285716)">
          <path d="M15.385 7.39062L12.9075 4.915C12.3219 4.32875 11.5275 4 10.6987 4H4.125C2.95125 4 2 4.95125 2 6.125V13.5H12.985H30V10.1375C30 8.96375 29.0488 8.0125 27.875 8.0125H16.8875C16.3237 8.0125 15.7838 7.78875 15.385 7.39062Z" fill="#FFB02E"/>
          <path d="M27.875 30H4.125C2.95125 30 2 29.0545 2 27.8878V13.1122C2 11.9455 2.95125 11 4.125 11H27.875C29.0488 11 30 11.9455 30 13.1122V27.8878C30 29.0545 29.0488 30 27.875 30Z" fill="#FCD53F"/>
        </g>
      </g>
      <text id="ITEM_1_HEAD" x="0.0" y="-80.0" text-anchor="middle" font-weight="bold" font-size="36" fill="var(--accent-5)" data-bg-id="ITEM_1_BG" fill-opacity="1.0" stroke="none" style="font-size: 30px; font-family: Inter, Segoe UI, Kalam, Roboto, Helvetica, Arial, sans-serif; font-weight: 700; letter-spacing:-0.4px;" data-final-font-size="30">
        <tspan x="0.0" dy="34.80px">Visible Facts</tspan>
      </text>
      <rect id="ITEM_1_HEAD_FRAME" x="-180" y="-80" width="360" height="45" fill="none"/>
    </g>
    <g transform="translate(210.0, 720)">
      <rect id="ITEM_2_BG" x="-180.0" y="-150" width="360" height="390" rx="24" fill="var(--accent-6)" fill-opacity="0.48" stroke="var(--accent-1)" stroke-width="2.6"/>
      <text id="ITEM_2_HEAD" x="0.0" y="8.0" text-anchor="middle" font-weight="bold" font-size="30" fill="var(--primary-text)" data-bg-id="ITEM_2_BG" fill-opacity="1.0" stroke="none" style="font-size: 30px; font-family: Inter, Segoe UI, Kalam, Roboto, Helvetica, Arial, sans-serif; font-weight: 700; letter-spacing:-0.4px;" data-final-font-size="30">
        <tspan x="0.0" dy="49.55px">Memory Reconstruction</tspan>
      </text>
      <rect id="ITEM_2_HEAD_FRAME" x="-150.0" y="8" width="300" height="70" fill="none"/>
      <text id="ITEM_2_BODY" x="0.0" y="78.0" text-anchor="middle" font-size="23" fill="var(--primary-text)" opacity="0.94" data-bg-id="ITEM_2_BG" style="font-size: 26px; font-family: Inter, Segoe UI, Kalam, Roboto, Helvetica, Arial, sans-serif; font-weight: 400;" data-final-font-size="26">
        <tspan x="0.0" dy="40.15px">Recollections are rebuilt</tspan>
        <tspan x="0.0" dy="29.90px">from fragments and later</tspan>
        <tspan x="0.0" dy="29.90px">discussions</tspan>
      </text>
      <rect id="ITEM_2_BODY_FRAME" x="-174" y="78" width="348" height="158" fill="none"/>
      <circle id="ITEM_2_PAD" cx="0" cy="-45.0" r="62" fill="var(--icon-pad-bg)" stroke="var(--background)" stroke-width="2" stroke-opacity="0.65" opacity="0.94" fill-opacity="0.9"/>
      <circle id="ITEM_2_PAD_INNER" cx="0" cy="-45.0" r="48.36" fill="var(--accent-6)" fill-opacity="0.22"/>
      <circle cx="0" cy="-45.0" r="49.6" fill="none" stroke="var(--accent-1)" stroke-width="3" stroke-dasharray="6 4"/>
      <g id="ITEM_2_ICON" transform="translate(-48.0, -93.0)" data-icon-size="96" stroke-dasharray="6 4">
        <g transform="translate(-7.268571428571428,-7.268571428571428) scale(3.454285714285714)">
          <path d="M23.6231 21.4249L24.6179 22.4209C25.1551 22.9587 26.0206 22.9587 26.5578 22.4209L29.7015 19.2737C30.0995 18.8753 30.0995 18.2379 29.7015 17.8395L23.8718 12.0033C23.6927 11.824 23.6927 11.5452 23.8718 11.3659C23.9812 11.2564 24.1304 11.2165 24.2697 11.2464C25.2148 11.4058 26.2196 11.1269 26.9458 10.3999C28.1496 9.19476 28.1396 7.23276 26.916 6.03762L26.0604 5.17115L25.6724 5.30063C24.6975 5.0118 23.6032 5.22095 22.7973 5.91811C21.9617 6.64515 21.6234 7.71081 21.7826 8.70675C21.8025 8.85614 21.7627 8.99557 21.6533 9.10513L21.6334 9.12505C21.4543 9.30432 21.1758 9.30432 20.9967 9.12505L15.1669 3.29878C14.769 2.90041 14.1323 2.90041 13.7343 3.29878L10.6205 6.41608C10.5409 6.49576 10.4812 6.58539 10.4215 6.67503L10.2126 6.46588L9.47642 7.20288L10.6205 8.34821L10.6404 8.36813C10.9189 8.64699 11.297 8.79638 11.685 8.77647C12.5803 8.73663 13.4956 9.08521 14.1422 9.83216C15.1271 10.9675 15.1371 12.6905 14.1422 13.8359C12.9683 15.1903 10.9189 15.2501 9.66544 14.0052C9.01879 13.3578 8.72034 12.5013 8.78003 11.6547C8.79993 11.2663 8.66065 10.8879 8.38209 10.609C8.37214 10.5891 8.3622 10.5791 8.35225 10.5692L7.3773 9.59314L6.94952 10.0314L7.13854 10.2206C6.87988 10.2704 6.64112 10.3999 6.44215 10.599L3.29845 13.7462C2.90052 14.1446 2.90052 14.782 3.29845 15.1804L9.13817 21.0266C9.31724 21.2058 9.31724 21.4847 9.13817 21.664C9.02874 21.7735 8.87951 21.8134 8.74024 21.7835C7.73545 21.6142 6.66102 21.9428 5.92483 22.7794C4.92999 23.9148 4.92004 25.6477 5.91489 26.7931C7.0888 28.1475 9.13817 28.2073 10.3917 26.9524C11.108 26.2353 11.3965 25.2394 11.2472 24.3132C11.2273 24.1638 11.2671 24.0243 11.3766 23.9148L11.3965 23.8949C11.5755 23.7156 11.8541 23.7156 12.0332 23.8949L17.8331 29.7012C18.231 30.0996 18.8677 30.0996 19.2657 29.7012L22.3795 26.5839C22.9167 26.0461 22.9167 25.1796 22.3795 24.6418L22.3596 24.6219L21.4742 23.7355L21.0862 24.1239L21.1957 24.2335C20.3401 24.2335 19.4845 23.8849 18.8677 23.1778C17.8828 22.0424 17.8729 20.3194 18.8677 19.1741C20.0416 17.8196 22.091 17.7599 23.3445 19.0048C23.8618 19.5227 24.1603 20.19 24.22 20.8672L24.2001 20.8473L23.6231 21.4249Z" fill="#D3D3D3"/>
          <path d="M21.7702 4.90923C20.9348 5.63653 20.5967 6.70258 20.7558 7.69889C20.7757 7.84834 20.7359 7.98782 20.6265 8.09742L20.6066 8.11734C20.4276 8.29668 20.1492 8.29668 19.9702 8.11734L14.1525 2.29889C13.7547 1.90037 13.1182 1.90037 12.7204 2.29889L9.60773 5.41734C9.07072 5.95535 9.07072 6.82214 9.60773 7.36015L9.63757 7.38007C9.90608 7.64908 10.284 7.79852 10.6718 7.7786C11.5669 7.73875 12.4818 8.08745 13.1282 8.83469C14.1127 9.97048 14.1227 11.6941 13.1282 12.8399C11.9547 14.1948 9.90608 14.2546 8.65304 13.0092C8.01657 12.3517 7.71823 11.4948 7.76796 10.648C7.79779 10.2594 7.64862 9.87085 7.37017 9.60185C6.83315 9.06384 5.96796 9.06384 5.43094 9.60185L2.29834 12.7402C1.90055 13.1387 1.90055 13.7764 2.29834 14.1749L8.13591 20.0232C8.31492 20.2026 8.31492 20.4815 8.13591 20.6609C8.02652 20.7705 7.87735 20.8103 7.73812 20.7804C6.7337 20.6111 5.65967 20.9399 4.92376 21.7768C3.92928 22.9125 3.91934 24.6461 4.91381 25.7919C6.08729 27.1469 8.13591 27.2066 9.38895 25.9513C10.105 25.2339 10.3934 24.2376 10.2442 23.3111C10.2243 23.1616 10.2641 23.0221 10.3735 22.9125L10.3934 22.8926C10.5724 22.7133 10.8508 22.7133 11.0298 22.8926L16.8276 28.7011C17.2254 29.0996 17.8619 29.0996 18.2597 28.7011L21.3724 25.5827C21.9094 25.0447 21.9094 24.1779 21.3724 23.6399L21.3525 23.6199C21.084 23.3509 20.7061 23.2015 20.3182 23.2214C19.4232 23.2613 18.5083 22.9125 17.8619 22.1653C16.8773 21.0295 16.8674 19.3059 17.8619 18.1601C19.0354 16.8052 21.084 16.7454 22.337 17.9908C22.9834 18.6384 23.2818 19.4952 23.2221 20.3421C23.2022 20.7306 23.3414 21.1092 23.6199 21.3882C24.1569 21.9262 25.0221 21.9262 25.5591 21.3882L28.7017 18.2399C29.0994 17.8413 29.0994 17.2037 28.7017 16.8052L22.874 10.9668C22.695 10.7875 22.695 10.5085 22.874 10.3292C22.9834 10.2196 23.1326 10.1797 23.2718 10.2096C24.2166 10.369 25.221 10.09 25.947 9.36273C27.1901 8.11734 27.1403 6.05498 25.7779 4.87934C24.6243 3.92288 22.9039 3.92288 21.7702 4.90923Z" fill="#C3EF3C"/>
        </g>
      </g>
    </g>
    <g transform="translate(693.3, 720)">
      <rect id="ITEM_3_BG" x="-180.0" y="-150" width="360" height="390" rx="24" fill="var(--accent-7)" fill-opacity="0.48" stroke="var(--accent-2)" stroke-width="2.6"/>
      <text id="ITEM_3_HEAD" x="0.0" y="8.0" text-anchor="middle" font-weight="bold" font-size="30" fill="var(--primary-text)" data-bg-id="ITEM_3_BG" fill-opacity="1.0" stroke="none" style="font-size: 30px; font-family: Inter, Segoe UI, Kalam, Roboto, Helvetica, Arial, sans-serif; font-weight: 700; letter-spacing:-0.4px;" data-final-font-size="30">
        <tspan x="0.0" dy="49.55px">Media Influence</tspan>
      </text>
      <rect id="ITEM_3_HEAD_FRAME" x="-150.0" y="8" width="300" height="70" fill="none"/>
      <text id="ITEM_3_BODY" x="0.0" y="78.0" text-anchor="middle" font-size="23" fill="var(--primary-text)" opacity="0.94" data-bg-id="ITEM_3_BG" style="font-size: 26px; font-family: Inter, Segoe UI, Kalam, Roboto, Helvetica, Arial, sans-serif; font-weight: 400;" data-final-font-size="26">
        <tspan x="0.0" dy="40.15px">Public interest and</tspan>
        <tspan x="0.0" dy="29.90px">documentaries shape long-term</tspan>
        <tspan x="0.0" dy="29.90px">witness narratives</tspan>
      </text>
      <rect id="ITEM_3_BODY_FRAME" x="-174" y="78" width="348" height="158" fill="none"/>
      <circle id="ITEM_3_PAD" cx="0" cy="-45.0" r="62" fill="var(--icon-pad-bg)" stroke="var(--background)" stroke-width="2" stroke-opacity="0.65" opacity="0.94" fill-opacity="0.9"/>
      <circle id="ITEM_3_PAD_INNER" cx="0" cy="-45.0" r="48.36" fill="var(--accent-7)" fill-opacity="0.22"/>
      <circle cx="0" cy="-45.0" r="49.6" fill="none" stroke="var(--accent-2)" stroke-width="3" stroke-dasharray="6 4"/>
      <g id="ITEM_3_ICON" transform="translate(-48.0, -93.0)" data-icon-size="96" stroke-dasharray="6 4">
        <g transform="translate(-7.268571428571428,-15.040714285714284) scale(3.454285714285714)">
          <path d="M13.0004 14C13.6281 13.1643 14 12.1256 14 11C14 8.23858 11.7614 6 9 6C6.23858 6 4 8.23858 4 11C4 13.419 5.71776 15.4367 8 15.9V17H7C5.89543 17 5 17.8954 5 19V20L4.5 21.5L5 23V28C5 29.1046 5.89543 30 7 30H21C22.1046 30 23 29.1046 23 28L24 23.5L23 19C23 17.8954 22.1046 17 21 17H20V16C22.7614 16 25 13.7614 25 11C25 8.23858 22.7614 6 20 6C17.2386 6 15 8.23858 15 11C15 12.1256 15.3719 13.1643 15.9996 14H13.0004ZM2 19.5C2 19.2239 2.22386 19 2.5 19C2.77614 19 3 19.2239 3 19.5V20L3.5 21.5L3 23V24.5C3 24.7761 2.77614 25 2.5 25C2.22386 25 2 24.7761 2 24.5V19.5ZM25.5528 18.2237C25.214 18.3931 25 18.7393 25 19.1181L24 23.5L25 27.882C25 28.2608 25.214 28.6071 25.5528 28.7764L28.5528 30.2764C29.2177 30.6089 30 30.1254 30 29.382V17.6181C30 16.8747 29.2177 16.3912 28.5528 16.7236L25.5528 18.2237Z" fill="#321B41"/>
          <path d="M8 25C8 24.4477 8.44772 24 9 24H19C19.5523 24 20 24.4477 20 25V27C20 27.5523 19.5523 28 19 28H9C8.44772 28 8 27.5523 8 27V25Z" fill="#D3D3D3"/>
          <path d="M12 26C12 26.5523 11.5523 27 11 27C10.4477 27 10 26.5523 10 26C10 25.4477 10.4477 25 11 25C11.5523 25 12 25.4477 12 26Z" fill="#CA0B4A"/>
          <path d="M15 26C15 25.4477 15.4477 25 16 25H17C17.5523 25 18 25.4477 18 26V26C18 26.5523 17.5523 27 17 27H16C15.4477 27 15 26.5523 15 26V26Z" fill="#433B6B"/>
          <path d="M10 11C10 11.5523 9.55228 12 9 12C8.44772 12 8 11.5523 8 11C8 10.4477 8.44772 10 9 10C9.55228 10 10 10.4477 10 11ZM25 19H23V28H25V19ZM5 20H3V23H5V20ZM20 12C20.5523 12 21 11.5523 21 11C21 10.4477 20.5523 10 20 10C19.4477 10 19 10.4477 19 11C19 11.5523 19.4477 12 20 12Z" fill="#9B9B9B"/>
        </g>
      </g>
    </g>
    <g transform="translate(1226.7, 720)">
      <rect id="ITEM_4_BG" x="-180.0" y="-150" width="360" height="390" rx="24" fill="var(--accent-8)" fill-opacity="0.48" stroke="var(--accent-3)" stroke-width="2.6"/>
      <text id="ITEM_4_HEAD" x="0.0" y="8.0" text-anchor="middle" font-weight="bold" font-size="30" fill="var(--primary-text)" data-bg-id="ITEM_4_BG" fill-opacity="1.0" stroke="none" style="font-size: 30px; font-family: Inter, Segoe UI, Kalam, Roboto, Helvetica, Arial, sans-serif; font-weight: 700; letter-spacing:-0.4px;" data-final-font-size="30">
        <tspan x="0.0" dy="49.55px">Nighttime Uncertainty</tspan>
      </text>
      <rect id="ITEM_4_HEAD_FRAME" x="-150.0" y="8" width="300" height="70" fill="none"/>
      <text id="ITEM_4_BODY" x="0.0" y="78.0" text-anchor="middle" font-size="23" fill="var(--primary-text)" opacity="0.94" data-bg-id="ITEM_4_BG" style="font-size: 26px; font-family: Inter, Segoe UI, Kalam, Roboto, Helvetica, Arial, sans-serif; font-weight: 400;" data-final-font-size="26">
        <tspan x="0.0" dy="40.15px">Low visibility and distance</tspan>
        <tspan x="0.0" dy="29.90px">create gaps in initial</tspan>
        <tspan x="0.0" dy="29.90px">perception</tspan>
      </text>
      <rect id="ITEM_4_BODY_FRAME" x="-174" y="78" width="348" height="158" fill="none"/>
      <circle id="ITEM_4_PAD" cx="0" cy="-45.0" r="62" fill="var(--icon-pad-bg)" stroke="var(--background)" stroke-width="2" stroke-opacity="0.65" opacity="0.94" fill-opacity="0.9"/>
      <circle id="ITEM_4_PAD_INNER" cx="0" cy="-45.0" r="48.36" fill="var(--accent-8)" fill-opacity="0.22"/>
      <circle cx="0" cy="-45.0" r="49.6" fill="none" stroke="var(--accent-3)" stroke-width="3" stroke-dasharray="6 4"/>
      <g id="ITEM_4_ICON" transform="translate(-48.0, -93.0)" data-icon-size="96" stroke-dasharray="6 4">
        <g transform="translate(-12.111028037383177,-14.822803738317756) scale(3.615700934579439)">
          <path d="M23.4106 5.63236C23.9106 7.67236 23.9706 9.89235 23.4306 12.1924C22.1706 17.5224 17.7906 21.7024 12.4106 22.6724C9.50056 23.2024 6.73057 22.8024 4.32056 21.7524C3.76056 21.5024 3.23056 22.1424 3.52056 22.6824C6.17057 27.5624 11.6306 30.6824 17.7406 29.8724C23.9706 29.0424 28.9606 23.9624 29.7106 17.7224C30.3106 12.5424 28.1106 7.86236 24.4306 4.97236C23.9606 4.61236 23.2706 5.05236 23.4106 5.63236Z" fill="#FCD53F"/>
          <path d="M27.8706 12.5623C27.8706 13.4294 27.1677 14.1323 26.3006 14.1323C25.4335 14.1323 24.7306 13.4294 24.7306 12.5623C24.7306 11.6952 25.4335 10.9923 26.3006 10.9923C27.1677 10.9923 27.8706 11.6952 27.8706 12.5623ZM14.9505 25.4423C14.9505 26.3094 14.2476 27.0123 13.3805 27.0123C12.5135 27.0123 11.8105 26.3094 11.8105 25.4423C11.8105 24.5752 12.5135 23.8723 13.3805 23.8723C14.2476 23.8723 14.9505 24.5752 14.9505 25.4423ZM26.8005 18.9723C27.3473 18.9723 27.7905 18.5291 27.7905 17.9823C27.7905 17.4355 27.3473 16.9923 26.8005 16.9923C26.2538 16.9923 25.8105 17.4355 25.8105 17.9823C25.8105 18.5291 26.2538 18.9723 26.8005 18.9723ZM24.8005 21.9823C24.8005 23.6392 23.4574 24.9823 21.8005 24.9823C20.1437 24.9823 18.8005 23.6392 18.8005 21.9823C18.8005 20.3254 20.1437 18.9823 21.8005 18.9823C23.4574 18.9823 24.8005 20.3254 24.8005 21.9823Z" fill="#F9C23C"/>
        </g>
      </g>
    </g>
    <g transform="translate(1710.0, 720)">
      <rect id="ITEM_5_BG" x="-180.0" y="-150" width="360" height="390" rx="24" fill="var(--accent-9)" fill-opacity="0.48" stroke="var(--accent-4)" stroke-width="2.6"/>
      <text id="ITEM_5_HEAD" x="0.0" y="8.0" text-anchor="middle" font-weight="bold" font-size="30" fill="var(--primary-text)" data-bg-id="ITEM_5_BG" fill-opacity="1.0" stroke="none" style="font-size: 30px; font-family: Inter, Segoe UI, Kalam, Roboto, Helvetica, Arial, sans-serif; font-weight: 700; letter-spacing:-0.4px;" data-final-font-size="30">
        <tspan x="0.0" dy="49.55px">Information Merging</tspan>
      </text>
      <rect id="ITEM_5_HEAD_FRAME" x="-150.0" y="8" width="300" height="70" fill="none"/>
      <text id="ITEM_5_BODY" x="0.0" y="78.0" text-anchor="middle" font-size="23" fill="var(--primary-text)" opacity="0.94" data-bg-id="ITEM_5_BG" style="font-size: 26px; font-family: Inter, Segoe UI, Kalam, Roboto, Helvetica, Arial, sans-serif; font-weight: 400;" data-final-font-size="26">
        <tspan x="0.0" dy="46.13px">Separate experiences can blend</tspan>
        <tspan x="0.0" dy="29.90px">into one coherent story</tspan>
      </text>
      <rect id="ITEM_5_BODY_FRAME" x="-174" y="78" width="348" height="158" fill="none"/>
      <circle id="ITEM_5_PAD" cx="0" cy="-45.0" r="62" fill="var(--icon-pad-bg)" stroke="var(--background)" stroke-width="2" stroke-opacity="0.65" opacity="0.94" fill-opacity="0.9"/>
      <circle id="ITEM_5_PAD_INNER" cx="0" cy="-45.0" r="48.36" fill="var(--accent-9)" fill-opacity="0.22"/>
      <circle cx="0" cy="-45.0" r="49.6" fill="none" stroke="var(--accent-4)" stroke-width="3" stroke-dasharray="6 4"/>
      <g id="ITEM_5_ICON" transform="translate(-48.0, -93.0)" data-icon-size="96" stroke-dasharray="6 4">
        <g transform="translate(-7.268571428571429,-7.268571428571428) scale(3.454285714285714)" vector-effect="non-scaling-stroke" fill="#f1f5f9" fill-opacity="1.0" stroke="none">
          <path fill="#f1f5f9" d="M20 6c0 1.858 1.28 3.41 3 3.858V15H9V9.858c1.72-.447 3-2 3-3.858c0-2.206-1.794-4-4-4S4 3.794 4 6c0 1.858 1.28 3.41 3 3.858V15c0 1.103.897 2 2 2h6v5.142c-1.72.447-3 2-3 3.858c0 2.206 1.794 4 4 4s4-1.794 4-4c0-1.858-1.28-3.41-3-3.858V17h6c1.103 0 2-.897 2-2V9.858c1.72-.447 3-2 3-3.858c0-2.206-1.794-4-4-4s-4 1.794-4 4M6 6c0-1.103.897-2 2-2s2 .897 2 2s-.897 2-2 2s-2-.897-2-2m12 20c0 1.103-.897 2-2 2s-2-.897-2-2s.897-2 2-2s2 .897 2 2m8-20c0 1.103-.897 2-2 2s-2-.897-2-2s.897-2 2-2s2 .897 2 2" vector-effect="non-scaling-stroke" stroke="none"/>
        </g>
      </g>
    </g>
  </g>
</svg>
