<?xml version='1.0' encoding='utf-8'?>
<svg xmlns="http://www.w3.org/2000/svg" width="1920" height="1080" viewBox="0 0 1920 1080" data-theme="light">
  <style>
        @font-face {
            font-family: 'Inter';
            src: url('assets/fonts/Inter-Regular.ttf') format('truetype');
            font-weight: 400;
            font-style: normal;
            font-display: swap;
        }
        @font-face {
            font-family: 'Inter';
            src: url('assets/fonts/Inter-Bold.ttf') format('truetype');
            font-weight: 600;
            font-style: normal;
            font-display: swap;
        }
        @font-face {
            font-family: 'Inter';
            src: url('assets/fonts/Inter-Bold.ttf') format('truetype');
            font-weight: 800;
            font-style: normal;
            font-display: swap;
        }
        
:root {
    --background: #f8fafc;
    --panel: #ffffff;
    --primary-text: #0f172a;
    --muted-text: #64748b;
    --inverse-text: #ffffff;
    --border: #e2e8f0;
    --shadow-color: #000000;
    --icon-pad-bg: #1e293b;
    --art-glow: #0891b2;
    --art-glow-opacity: 0.10;
    --art-sheen: #ffffff;
    --art-sheen-opacity: 0.34;
    --art-shadow: #0f172a;
    --art-shadow-opacity: 0.14;
    --art-muted-line: #94a3b8;
    --art-panel-tint: #f1f5f9;
    --font-family: 'Inter', 'Segoe UI', 'Kalam', Roboto, Helvetica, Arial, sans-serif;
    --radius-xl: 16px;
    --font-family-headline: 'Inter', 'Segoe UI', 'Kalam', Roboto, Helvetica, Arial, sans-serif;
    --font-family-body: 'Inter', 'Segoe UI', 'Kalam', Roboto, Helvetica, Arial, sans-serif;
    --font-heading: 'Inter', 'Segoe UI', 'Kalam', Roboto, Helvetica, Arial, sans-serif;
    --font-body: 'Inter', 'Segoe UI', 'Kalam', Roboto, Helvetica, Arial, sans-serif;
    --font-size-h1: 56px;
    --font-size-h2: 40px;
    --font-size-h3: 28px;
    --font-size-body: 24px;
    --font-size-caption: 18px;
    --secondary-text: var(--muted-text);
    --panel-border: var(--border);
    --font-weight-normal: 400;
    --font-weight-medium: 500;
    --font-weight-semibold: 600;
    --font-weight-bold: 700;
    --spacing-gutter-pct: 0.07;
    --spacing-top-pct: 0.15;
    --spacing-bottom-pct: 0.07;
    --spacing-title-y-pct: 0.055;
    --accent-1: #0891b2;
    --accent-2: #0284c7;
    --accent-3: #2563eb;
    --accent-4: #4f46e5;
    --accent-5: #7c3aed;
    --accent-6: #0d9488;
}
:root[data-theme="dark"] {
    --background: #0f172a;
    --panel: #1e293b;
    --primary-text: #f1f5f9;
    --muted-text: #94a3b8;
    --inverse-text: #0f172a;
    --border: #334155;
    --shadow-color: #000000;
    --icon-pad-bg: #1e293b;
    --art-glow: #7dd3fc;
    --art-glow-opacity: 0.18;
    --art-sheen: #ffffff;
    --art-sheen-opacity: 0.18;
    --art-shadow: #000000;
    --art-shadow-opacity: 0.28;
    --art-muted-line: #64748b;
    --art-panel-tint: #1e293b;
    --accent-1: #22d3ee;
    --accent-2: #38bdf8;
    --accent-3: #60a5fa;
    --accent-4: #818cf8;
    --accent-5: #a78bfa;
    --accent-6: #2dd4bf;
}
:root[data-theme="light"] {
    --background: #f8fafc;
    --panel: #ffffff;
    --primary-text: #0f172a;
    --muted-text: #64748b;
    --inverse-text: #ffffff;
    --border: #e2e8f0;
    --shadow-color: #000000;
    --icon-pad-bg: #1e293b;
    --art-glow: #0891b2;
    --art-glow-opacity: 0.10;
    --art-sheen: #ffffff;
    --art-sheen-opacity: 0.34;
    --art-shadow: #0f172a;
    --art-shadow-opacity: 0.14;
    --art-muted-line: #94a3b8;
    --art-panel-tint: #f1f5f9;
    --accent-1: #0891b2;
    --accent-2: #0284c7;
    --accent-3: #2563eb;
    --accent-4: #4f46e5;
    --accent-5: #7c3aed;
    --accent-6: #0d9488;
}</style>
  <rect x="0" y="0" width="1.92E+3" height="1.08E+3" fill="#252a34" stroke="none" id="programmatic_background"/>
  <line id="HEADER_DECOR" x1="960.0" x2="1080.0" y1="85.0" y2="85.0" stroke="var(--accent-1)" stroke-width="6" stroke-linecap="round"/>
  <defs>
    <pattern id="svg3ee32c16-napkin-hatch" patternUnits="userSpaceOnUse" width="12" height="12">
      <path d="M -3 12 L 12 -3 M 0 15 L 15 0" fill="none" stroke="var(--primary-text)" stroke-width="1" stroke-opacity="0.05"/>
    </pattern>
    <filter id="svg3ee32c16-shadow" x="-30%" y="-30%" width="160%" height="160%">
      <feDropShadow dx="0" dy="2" stdDeviation="3" flood-color="#000000" flood-opacity="0.08"/>
      <feDropShadow dx="0" dy="6" stdDeviation="10" flood-color="#000000" flood-opacity="0.12"/>
    </filter>
    <marker id="svg3ee32c16-arrowhead" markerWidth="10" markerHeight="10" refX="9" refY="5" orient="auto">
      <path d="M 0 0 L 10 5 L 0 10 Z" fill="var(--accent-1)"/>
    </marker>
    <filter id="svg3ee32c16-text-glow" x="-20%" y="-20%" width="140%" height="140%">
      <feDropShadow dx="0" dy="0" stdDeviation="2" flood-color="#000000" flood-opacity="0.4"/>
    </filter>
    <radialGradient id="svg3ee32c16-universal-edge-vignette" cx="50%" cy="50%" r="72%">
      <stop offset="0%" stop-color="var(--background)" stop-opacity="0"/>
      <stop offset="72%" stop-color="var(--background)" stop-opacity="0.12"/>
      <stop offset="100%" stop-color="var(--primary-text)" stop-opacity="0.08"/>
    </radialGradient>
    <linearGradient id="svg3ee32c16-universal-surface-sheen" x1="0%" y1="0%" x2="100%" y2="100%">
      <stop offset="0%" stop-color="var(--art-sheen)" stop-opacity="var(--art-sheen-opacity)"/>
      <stop offset="46%" stop-color="var(--art-sheen)" stop-opacity="0.035"/>
      <stop offset="100%" stop-color="var(--art-panel-tint)" stop-opacity="0.14"/>
    </linearGradient>
    <radialGradient id="svg3ee32c16-universal-icon-aura" cx="50%" cy="42%" r="64%">
      <stop offset="0%" stop-color="var(--art-glow)" stop-opacity="var(--art-glow-opacity)"/>
      <stop offset="100%" stop-color="var(--background)" stop-opacity="0"/>
    </radialGradient>
    <linearGradient id="svg3ee32c16-card-panel-sheen" x1="0%" y1="0%" x2="100%" y2="100%">
      <stop offset="0%" stop-color="var(--inverse-text)" stop-opacity="0.20"/>
      <stop offset="48%" stop-color="var(--inverse-text)" stop-opacity="0.04"/>
      <stop offset="100%" stop-color="var(--background)" stop-opacity="0.16"/>
    </linearGradient>
    <radialGradient id="svg3ee32c16-card-icon-glow" cx="50%" cy="35%" r="62%">
      <stop offset="0%" stop-color="var(--inverse-text)" stop-opacity="0.22"/>
      <stop offset="100%" stop-color="var(--background)" stop-opacity="0"/>
    </radialGradient>
  </defs>
  <rect width="100%" height="100%" fill="var(--background)" id="CANVAS_BG"/>
  <rect width="100%" height="100%" fill="url(#svg3ee32c16-napkin-hatch)"/>
  <rect id="UNIVERSAL_EDGE_VIGNETTE" width="100%" height="100%" fill="url(#svg3ee32c16-universal-edge-vignette)" opacity="0.62"/>
  <text id="TITLE" x="960.0" y="59" font-size="48" font-weight="700" fill="#0f172a" text-anchor="middle" style="font-size: 60px; font-family: Inter, Segoe UI, Kalam, Roboto, Helvetica, Arial, sans-serif; font-weight: 700; letter-spacing:-1.2px;" data-final-font-size="60">
    <tspan x="960.0" dy="68.00px">Evolution of the Rendlesham Narrative</tspan>
  </text>
  <rect id="TITLE_FRAME" x="134" y="25" width="1652" height="70" fill="none"/>
  <g id="DIAGRAM_MAIN">
    <rect id="ITEM_1_BG" x="485" y="170" width="480" height="410" rx="16" fill="var(--accent-3)" stroke="var(--accent-1)" stroke-width="2" filter="url(#svg3ee32c16-shadow)" fill-opacity="1.0"/>
    <rect x="485" y="170" width="480" height="410" rx="16" fill="url(#svg3ee32c16-card-panel-sheen)" opacity="0.88"/>
    <rect x="485" y="186" width="460" height="12" fill="var(--accent-1)"/>
    <rect id="ITEM_1_HEAD_FRAME" x="500" y="288" width="450" height="96" fill="none"/>
    <rect id="ITEM_1_BODY_FRAME" x="500" y="382" width="450" height="168" fill="none"/>
    <circle id="ITEM_1_PAD" cx="715" cy="231" r="55" fill="var(--icon-pad-bg)" stroke="var(--primary-text)" opacity="0.9" fill-opacity="0.9" stroke-width="2"/>
    <circle cx="715" cy="231" r="44" fill="none" stroke="var(--accent-1)" stroke-width="3" stroke-dasharray="6 4"/>
    <circle id="ITEM_1_BADGE" cx="715" cy="231" r="43" fill="var(--accent-1)" stroke="var(--background)" stroke-width="4" fill-opacity="0.35" opacity="0.85" stroke-opacity="0.75"/>
    <g id="ITEM_1_ICON" transform="translate(682, 198)" data-icon-size="66">
      <g transform="translate(-13.696460176991149,-13.316814159292033) scale(3.0371681415929204)">
        <path d="M14.14 2C14.14 1.58579 13.8042 1.25 13.39 1.25C12.9758 1.25 12.64 1.58579 12.64 2V6C12.64 6.41421 12.9758 6.75 13.39 6.75C13.8042 6.75 14.14 6.41421 14.14 6V2Z" fill="#F9C23C"/>
        <path d="M5.58032 4.12964C5.28742 3.83675 4.81255 3.83675 4.51966 4.12964C4.22676 4.42254 4.22676 4.89741 4.51966 5.1903L7.62966 8.3003C7.92255 8.5932 8.39742 8.5932 8.69032 8.3003C8.98321 8.00741 8.98321 7.53254 8.69032 7.23964L5.58032 4.12964Z" fill="#F9C23C"/>
        <path d="M1.25 13.14C1.25 12.7258 1.58579 12.39 2 12.39H5.89C6.30421 12.39 6.64 12.7258 6.64 13.14C6.64 13.5542 6.30421 13.89 5.89 13.89H2C1.58579 13.89 1.25 13.5542 1.25 13.14Z" fill="#F9C23C"/>
        <path d="M17.0866 7.05107C17.9184 7.88288 16.4179 10.7321 13.735 13.415C11.0521 16.0979 8.20289 17.5984 7.37108 16.7666C6.53927 15.9348 8.03986 13.0856 10.7227 10.4027C13.4056 7.71985 16.2548 6.21927 17.0866 7.05107Z" fill="#F9C23C"/>
        <path d="M20.6699 14.69L28.0899 22.11C29.6799 23.7 29.6699 26.3 28.0599 27.91C26.4499 29.52 23.8499 29.53 22.2599 27.94L14.7099 20.39C12.7199 20.61 10.6499 19.97 9.12988 18.44L12.8199 12.5L18.7599 8.81C20.3699 10.42 20.9999 12.62 20.6699 14.69Z" fill="#B4ACBC"/>
        <path d="M7.05986 17.72L7.91986 18.58C8.26986 18.93 8.84986 18.93 9.19986 18.58L18.8999 8.87999C19.2499 8.52999 19.2499 7.94999 18.8999 7.59999L18.0399 6.74999C17.6899 6.39999 17.1099 6.39999 16.7599 6.74999L7.05986 16.45C6.70986 16.8 6.70986 17.37 7.05986 17.72Z" fill="#321B41"/>
        <path d="M18.2302 19.09L19.4402 20.3C19.7502 20.61 20.2702 20.61 20.5802 20.3L20.6102 20.27C20.9202 19.96 20.9202 19.44 20.6102 19.13L19.4002 17.92C19.0902 17.61 18.5702 17.61 18.2602 17.92L18.2302 17.95C17.9102 18.26 17.9102 18.77 18.2302 19.09Z" fill="#F4F4F4"/>
      </g>
    </g>
    <text id="ITEM_1_HEAD" x="725.0" y="288.0" font-weight="700" font-size="26" fill="var(--inverse-text)" text-anchor="middle" data-bg-id="ITEM_1_BG" fill-opacity="1.0" style="font-size: 30px; font-family: Inter, Segoe UI, Kalam, Roboto, Helvetica, Arial, sans-serif; font-weight: 700; letter-spacing:-0.4px;" data-final-font-size="30">
      <tspan x="725.0" dy="56.25px">Initial Sighting</tspan>
    </text>
    <text id="ITEM_1_BODY" x="725.0" y="382.0" font-size="21" fill="var(--inverse-text)" text-anchor="middle" data-bg-id="ITEM_1_BG" style="font-size: 26px; font-family: Inter, Segoe UI, Kalam, Roboto, Helvetica, Arial, sans-serif; font-weight: 400;" data-final-font-size="26">
      <tspan x="725.0" dy="42.44px">Military personnel report unusual</tspan>
      <tspan x="725.0" dy="29.90px">lights in forest</tspan>
    </text>
    <rect id="ITEM_2_BG" x="975" y="170" width="480" height="410" rx="16" fill="var(--accent-4)" stroke="var(--accent-2)" stroke-width="2" filter="url(#svg3ee32c16-shadow)" fill-opacity="1.0"/>
    <rect x="975" y="170" width="480" height="410" rx="16" fill="url(#svg3ee32c16-card-panel-sheen)" opacity="0.88"/>
    <rect x="975" y="186" width="460" height="12" fill="var(--accent-2)"/>
    <rect id="ITEM_2_HEAD_FRAME" x="990" y="288" width="450" height="96" fill="none"/>
    <rect id="ITEM_2_BODY_FRAME" x="990" y="382" width="450" height="168" fill="none"/>
    <circle id="ITEM_2_PAD" cx="1205" cy="231" r="55" fill="var(--icon-pad-bg)" stroke="var(--primary-text)" opacity="0.9" fill-opacity="0.9" stroke-width="2"/>
    <circle cx="1205" cy="231" r="44" fill="none" stroke="var(--accent-2)" stroke-width="3" stroke-dasharray="6 4"/>
    <circle id="ITEM_2_BADGE" cx="1205" cy="231" r="43" fill="var(--accent-2)" stroke="var(--background)" stroke-width="4" fill-opacity="0.35" opacity="0.85" stroke-opacity="0.75"/>
    <g id="ITEM_2_ICON" transform="translate(1172, 198)" data-icon-size="66">
      <g transform="translate(-17.84444444444444,-19.43333333333333) scale(3.1777777777777776)">
        <path d="M13 8H11V15H13V8Z" fill="#7D4533"/>
        <path d="M21 8H19V15H21V8Z" fill="#7D4533"/>
        <path d="M6.79089 28.3796L8.36926 20.5854H11.1907L8.59622 28.3796C7.8395 30.8443 6.499 29.8606 6.79089 28.3796Z" fill="#7D4533"/>
        <path d="M23.6307 20.5854L25.2091 28.3796C25.501 29.8606 24.1605 30.8443 23.4038 28.3796L20.8093 20.5854H23.6307Z" fill="#7D4533"/>
        <path d="M11.0009 20.5953L11.1221 25.9824C11.1659 27.515 12.4155 27.3156 12.4732 25.9824L13.0102 20.5953H11.0009Z" fill="#402A32"/>
        <path d="M21 20.5953L20.8788 25.9824C20.8349 27.515 19.5854 27.3156 19.5276 25.9824L18.9907 20.5953H21Z" fill="#402A32"/>
        <path d="M11 3C9.89543 3 9 3.89543 9 5V6C9 7.65685 10.3431 9 12 9H20C21.6569 9 23 7.65685 23 6V5C23 3.89543 22.1046 3 21 3H11Z" fill="#A56953"/>
        <path d="M11 14C9 14 7 17.5 7 19.25C7 20.2165 7.7835 21 8.75 21H23.25C24.2165 21 25 20.2165 25 19.25C25 17.5 23 14 21 14H11Z" fill="#A56953"/>
      </g>
    </g>
    <text id="ITEM_2_HEAD" x="1215.0" y="288.0" font-weight="700" font-size="26" fill="var(--inverse-text)" text-anchor="middle" data-bg-id="ITEM_2_BG" fill-opacity="1.0" style="font-size: 30px; font-family: Inter, Segoe UI, Kalam, Roboto, Helvetica, Arial, sans-serif; font-weight: 700; letter-spacing:-0.4px;" data-final-font-size="30">
      <tspan x="1215.0" dy="56.25px">Hypnosis Session</tspan>
    </text>
    <text id="ITEM_2_BODY" x="1215.0" y="382.0" font-size="21" fill="var(--inverse-text)" text-anchor="middle" data-bg-id="ITEM_2_BG" style="font-size: 26px; font-family: Inter, Segoe UI, Kalam, Roboto, Helvetica, Arial, sans-serif; font-weight: 400;" data-final-font-size="26">
      <tspan x="1215.0" dy="42.44px">Regression therapy produces imagery</tspan>
      <tspan x="1215.0" dy="29.90px">of future humans</tspan>
    </text>
    <rect id="ITEM_3_BG" x="485" y="600" width="480" height="410" rx="16" fill="var(--accent-5)" stroke="var(--accent-3)" stroke-width="2" filter="url(#svg3ee32c16-shadow)" fill-opacity="1.0"/>
    <rect x="485" y="600" width="480" height="410" rx="16" fill="url(#svg3ee32c16-card-panel-sheen)" opacity="0.88"/>
    <rect x="485" y="616" width="460" height="12" fill="var(--accent-3)"/>
    <rect id="ITEM_3_HEAD_FRAME" x="500" y="718" width="450" height="96" fill="none"/>
    <rect id="ITEM_3_BODY_FRAME" x="500" y="812" width="450" height="168" fill="none"/>
    <circle id="ITEM_3_PAD" cx="715" cy="661" r="55" fill="var(--icon-pad-bg)" stroke="var(--primary-text)" opacity="0.9" fill-opacity="0.9" stroke-width="2"/>
    <circle cx="715" cy="661" r="44" fill="none" stroke="var(--accent-3)" stroke-width="3" stroke-dasharray="6 4"/>
    <circle id="ITEM_3_BADGE" cx="715" cy="661" r="43" fill="var(--accent-3)" stroke="var(--background)" stroke-width="4" fill-opacity="0.35" opacity="0.85" stroke-opacity="0.75"/>
    <g id="ITEM_3_ICON" transform="translate(682, 628)" data-icon-size="66">
      <g transform="translate(-15.59469026548673,-15.974336283185838) scale(3.0371681415929204)">
        <path d="M10.3535 3.06063C10.1582 2.86537 10.1582 2.54879 10.3535 2.35352C10.5487 2.15826 10.8653 2.15826 11.0606 2.35352L14.9497 6.24261L14.2426 6.94972L10.3535 3.06063Z" fill="#636363"/>
        <path d="M18.889 2.35348C19.0842 2.15822 19.4008 2.15822 19.5961 2.35348C19.7914 2.54874 19.7914 2.86532 19.5961 3.06058L15.707 6.94967L14.9999 6.24257L18.889 2.35348Z" fill="#636363"/>
        <path d="M11.0002 23.5L8.00024 23L6.46544 28.7279C6.31248 29.2987 6.65125 29.8855 7.22209 30.0385C7.73725 30.1765 8.2754 29.9141 8.48393 29.4232L11.0002 23.5Z" fill="#636363"/>
        <path d="M21.0002 23.5L24.0002 23L25.535 28.7279C25.688 29.2987 25.3492 29.8855 24.7784 30.0385C24.2632 30.1765 23.7251 29.9141 23.5165 29.4232L21.0002 23.5Z" fill="#636363"/>
        <path d="M3 9C3 7.34315 4.34315 6 6 6H26C27.6569 6 29 7.34315 29 9V22C29 23.6569 27.6569 25 26 25H6C4.34315 25 3 23.6569 3 22V9Z" fill="#9B9B9B"/>
        <circle cx="25.75" cy="13.25" r="1.25" fill="#CA0B4A"/>
        <circle cx="25.75" cy="9.25" r="1.25" fill="#636363"/>
        <path d="M6.5 11.5C6.5 10.3954 7.39543 9.5 8.5 9.5H20.5C21.6046 9.5 22.5 10.3954 22.5 11.5V19.5C22.5 20.6046 21.6046 21.5 20.5 21.5H8.5C7.39543 21.5 6.5 20.6046 6.5 19.5V11.5Z" fill="#83CBFF"/>
        <path d="M21 10C21.5523 10 22 10.4477 22 11V20C22 20.5523 21.5523 21 21 21H8C7.44772 21 7 20.5523 7 20V11C7 10.4477 7.44772 10 8 10H21ZM8 9C6.89543 9 6 9.89543 6 11V20C6 21.1046 6.89543 22 8 22H21C22.1046 22 23 21.1046 23 20V11C23 9.89543 22.1046 9 21 9H8Z" fill="#321B41"/>
      </g>
    </g>
    <text id="ITEM_3_HEAD" x="725.0" y="718.0" font-weight="700" font-size="26" fill="var(--inverse-text)" text-anchor="middle" data-bg-id="ITEM_3_BG" fill-opacity="1.0" style="font-size: 30px; font-family: Inter, Segoe UI, Kalam, Roboto, Helvetica, Arial, sans-serif; font-weight: 700; letter-spacing:-0.4px;" data-final-font-size="30">
      <tspan x="725.0" dy="56.25px">Media Expansion</tspan>
    </text>
    <text id="ITEM_3_BODY" x="725.0" y="812.0" font-size="21" fill="var(--inverse-text)" text-anchor="middle" data-bg-id="ITEM_3_BG" style="font-size: 26px; font-family: Inter, Segoe UI, Kalam, Roboto, Helvetica, Arial, sans-serif; font-weight: 400;" data-final-font-size="26">
      <tspan x="725.0" dy="42.44px">Documentaries and books highlight</tspan>
      <tspan x="725.0" dy="29.90px">binary code claims</tspan>
    </text>
    <rect id="ITEM_4_BG" x="975" y="600" width="480" height="410" rx="16" fill="var(--accent-6)" stroke="var(--accent-4)" stroke-width="2" filter="url(#svg3ee32c16-shadow)" fill-opacity="1.0"/>
    <rect x="975" y="600" width="480" height="410" rx="16" fill="url(#svg3ee32c16-card-panel-sheen)" opacity="0.88"/>
    <rect x="975" y="616" width="460" height="12" fill="var(--accent-4)"/>
    <rect id="ITEM_4_HEAD_FRAME" x="990" y="718" width="450" height="96" fill="none"/>
    <rect id="ITEM_4_BODY_FRAME" x="990" y="812" width="450" height="168" fill="none"/>
    <circle id="ITEM_4_PAD" cx="1205" cy="661" r="55" fill="var(--icon-pad-bg)" stroke="var(--primary-text)" opacity="0.9" fill-opacity="0.9" stroke-width="2"/>
    <circle cx="1205" cy="661" r="44" fill="none" stroke="var(--accent-4)" stroke-width="3" stroke-dasharray="6 4"/>
    <circle id="ITEM_4_BADGE" cx="1205" cy="661" r="43" fill="var(--accent-4)" stroke="var(--background)" stroke-width="4" fill-opacity="0.35" opacity="0.85" stroke-opacity="0.75"/>
    <g id="ITEM_4_ICON" transform="translate(1172, 628)" data-icon-size="66">
      <g transform="translate(-16.028571428571425,-16.028571428571425) scale(3.064285714285714)">
        <path d="M26.37 26H5.63C5.28 26 5 26.28 5 26.63V29.37C5 29.72 5.28 30 5.63 30H26.37C26.72 30 27 29.72 27 29.37V26.63C27 26.28 26.72 26 26.37 26Z" fill="#9B9B9B"/>
        <path d="M8.17333 23H9V23.29C9 23.68 9.32069 24 9.71152 24H22.2785C22.6793 24 23 23.68 23 23.29V23H23.8267C24.48 23 25 22.61 25 22.12V17H23V21H9V17H7V22.12C7 22.61 7.52 23 8.17333 23ZM5.63 25H26.37C26.72 25 27 25.28 27 25.63V28.37C27 28.72 26.72 29 26.37 29H5.63C5.28 29 5 28.72 5 28.37V25.63C5 25.28 5.28 25 5.63 25Z" fill="#BEBEBE"/>
        <path d="M29 19H3C2.45 19 2 18.55 2 18V3C2 2.45 2.45 2 3 2H29C29.55 2 30 2.45 30 3V18C30 18.55 29.55 19 29 19Z" fill="#7167A4"/>
        <path d="M3 17.75V3.25C3 3.11 3.11 3 3.25 3H28.75C28.89 3 29 3.11 29 3.25V17.75C29 17.89 28.89 18 28.75 18H3.25C3.11 18 3 17.89 3 17.75Z" fill="#26C9FC"/>
        <path d="M7 19H9V20H7V19ZM6.88 25.75H6.12C6.06 25.75 6 25.81 6 25.88V26.63C6 26.7 6.06 26.75 6.12 26.75H6.87C6.94 26.75 6.99 26.69 6.99 26.63V25.88C7 25.81 6.94 25.75 6.88 25.75ZM8.59998 25.75H7.84998C7.77998 25.75 7.72998 25.81 7.72998 25.87V26.62C7.72998 26.69 7.78998 26.74 7.84998 26.74H8.59998C8.66998 26.74 8.71998 26.68 8.71998 26.62V25.87C8.72998 25.81 8.66998 25.75 8.59998 25.75ZM9.58002 25.75H10.33C10.4 25.75 10.45 25.81 10.45 25.87V26.62C10.45 26.68 10.4 26.74 10.33 26.74H9.58002C9.52002 26.74 9.46002 26.69 9.46002 26.62V25.87C9.46002 25.81 9.51002 25.75 9.58002 25.75ZM12.06 25.75H11.31C11.24 25.75 11.19 25.81 11.19 25.87V26.62C11.19 26.69 11.25 26.74 11.31 26.74H12.06C12.13 26.74 12.18 26.68 12.18 26.62V25.87C12.18 25.81 12.13 25.75 12.06 25.75ZM13.03 25.75H13.78C13.85 25.75 13.91 25.81 13.9 25.87V26.62C13.9 26.68 13.85 26.74 13.78 26.74H13.03C12.97 26.74 12.91 26.69 12.91 26.62V25.87C12.91 25.81 12.96 25.75 13.03 25.75ZM15.51 25.75H14.76C14.69 25.75 14.64 25.81 14.64 25.87V26.62C14.64 26.69 14.7 26.74 14.76 26.74H15.51C15.58 26.74 15.63 26.68 15.63 26.62V25.87C15.64 25.81 15.58 25.75 15.51 25.75ZM16.49 25.75H17.24C17.31 25.75 17.36 25.81 17.36 25.87V26.62C17.36 26.68 17.31 26.74 17.24 26.74H16.49C16.43 26.74 16.37 26.69 16.37 26.62V25.87C16.37 25.81 16.42 25.75 16.49 25.75ZM18.97 25.75H18.22C18.15 25.75 18.1 25.81 18.1 25.87V26.62C18.1 26.69 18.16 26.74 18.22 26.74H18.97C19.04 26.74 19.09 26.68 19.09 26.62V25.87C19.09 25.81 19.03 25.75 18.97 25.75ZM19.94 25.75H20.69C20.76 25.75 20.82 25.81 20.81 25.87V26.62C20.81 26.68 20.76 26.74 20.69 26.74H19.94C19.88 26.74 19.82 26.69 19.82 26.62V25.87C19.82 25.81 19.87 25.75 19.94 25.75ZM22.42 25.75H21.67C21.6 25.75 21.55 25.81 21.55 25.87V26.62C21.55 26.69 21.61 26.74 21.67 26.74H22.42C22.49 26.74 22.54 26.68 22.54 26.62V25.87C22.55 25.81 22.49 25.75 22.42 25.75ZM23.4 25.75H24.15C24.22 25.75 24.27 25.81 24.27 25.87V26.62C24.27 26.68 24.22 26.74 24.15 26.74H23.4C23.34 26.74 23.28 26.69 23.28 26.62V25.87C23.28 25.81 23.33 25.75 23.4 25.75ZM25.88 25.75H25.13C25.06 25.75 25.01 25.81 25.01 25.87V26.62C25.01 26.69 25.07 26.74 25.13 26.74H25.88C25.95 26.74 26 26.68 26 26.62V25.87C26 25.81 25.94 25.75 25.88 25.75ZM6.12 27.25H6.88C6.94 27.25 7 27.31 6.99 27.38V28.13C6.99 28.19 6.94 28.25 6.87 28.25H6.12C6.06 28.25 6 28.2 6 28.13V27.38C6 27.31 6.06 27.25 6.12 27.25ZM8.59998 27.25H7.84998C7.77998 27.25 7.72998 27.31 7.72998 27.37V28.12C7.72998 28.19 7.78998 28.24 7.84998 28.24H8.59998C8.66998 28.24 8.71998 28.18 8.71998 28.12V27.37C8.72998 27.31 8.66998 27.25 8.59998 27.25ZM9.58002 27.25H10.33C10.4 27.25 10.45 27.31 10.45 27.37V28.12C10.45 28.18 10.4 28.24 10.33 28.24H9.58002C9.52002 28.24 9.46002 28.19 9.46002 28.12V27.37C9.46002 27.31 9.51002 27.25 9.58002 27.25ZM12.06 27.25H11.31C11.24 27.25 11.19 27.31 11.19 27.37V28.12C11.19 28.19 11.25 28.24 11.31 28.24H12.06C12.13 28.24 12.18 28.18 12.18 28.12V27.37C12.18 27.31 12.13 27.25 12.06 27.25ZM13.04 27.25H18.94C19.01 27.25 19.06 27.31 19.06 27.37V28.12C19.06 28.18 19.01 28.24 18.94 28.24H13.04C12.98 28.24 12.92 28.19 12.92 28.12V27.37C12.92 27.31 12.97 27.25 13.04 27.25ZM20.69 27.25H19.94C19.87 27.25 19.82 27.31 19.82 27.37V28.12C19.82 28.19 19.88 28.24 19.94 28.24H20.69C20.76 28.24 20.81 28.18 20.81 28.12V27.37C20.82 27.31 20.76 27.25 20.69 27.25ZM21.67 27.25H22.42C22.49 27.25 22.55 27.31 22.54 27.37V28.12C22.54 28.18 22.49 28.24 22.42 28.24H21.67C21.61 28.24 21.55 28.19 21.55 28.12V27.37C21.55 27.31 21.6 27.25 21.67 27.25ZM24.15 27.25H23.4C23.33 27.25 23.28 27.31 23.28 27.37V28.12C23.28 28.19 23.34 28.24 23.4 28.24H24.15C24.22 28.24 24.27 28.18 24.27 28.12V27.37C24.27 27.31 24.22 27.25 24.15 27.25ZM25.13 27.25H25.88C25.94 27.25 26 27.31 26 27.37V28.12C26 28.18 25.95 28.24 25.88 28.24H25.13C25.07 28.24 25.01 28.19 25.01 28.12V27.37C25.01 27.31 25.06 27.25 25.13 27.25ZM25 19H23V20H25V19Z" fill="#9B9B9B"/>
      </g>
    </g>
    <text id="ITEM_4_HEAD" x="1215.0" y="718.0" font-weight="700" font-size="26" fill="var(--primary-text)" text-anchor="middle" data-bg-id="ITEM_4_BG" fill-opacity="1.0" style="font-size: 30px; font-family: Inter, Segoe UI, Kalam, Roboto, Helvetica, Arial, sans-serif; font-weight: 700; letter-spacing:-0.4px;" data-final-font-size="30">
      <tspan x="1215.0" dy="56.25px">Cultural Mythos</tspan>
    </text>
    <text id="ITEM_4_BODY" x="1215.0" y="812.0" font-size="21" fill="var(--primary-text)" text-anchor="middle" data-bg-id="ITEM_4_BG" style="font-size: 26px; font-family: Inter, Segoe UI, Kalam, Roboto, Helvetica, Arial, sans-serif; font-weight: 400;" data-final-font-size="26">
      <tspan x="1215.0" dy="42.44px">Story integrates telepathy and time</tspan>
      <tspan x="1215.0" dy="29.90px">travel themes</tspan>
    </text>
  </g>
</svg>
