<?xml version='1.0' encoding='utf-8'?>
<svg xmlns="http://www.w3.org/2000/svg" width="1920" height="1080" viewBox="0 0 1920 1080" data-theme="dark">
  <style>
        @font-face {
            font-family: 'Inter';
            src: url('assets/fonts/Inter-Regular.ttf') format('truetype');
            font-weight: 400;
            font-style: normal;
            font-display: swap;
        }
        @font-face {
            font-family: 'Inter';
            src: url('assets/fonts/Inter-Bold.ttf') format('truetype');
            font-weight: 600;
            font-style: normal;
            font-display: swap;
        }
        @font-face {
            font-family: 'Inter';
            src: url('assets/fonts/Inter-Bold.ttf') format('truetype');
            font-weight: 800;
            font-style: normal;
            font-display: swap;
        }
        
:root {
    --background: #0f172a;
    --panel: #1e293b;
    --primary-text: #f1f5f9;
    --muted-text: #94a3b8;
    --inverse-text: #0f172a;
    --border: #334155;
    --shadow-color: #000000;
    --icon-pad-bg: #1e293b;
    --art-glow: #7dd3fc;
    --art-glow-opacity: 0.18;
    --art-sheen: #ffffff;
    --art-sheen-opacity: 0.18;
    --art-shadow: #000000;
    --art-shadow-opacity: 0.28;
    --art-muted-line: #64748b;
    --art-panel-tint: #1e293b;
    --font-family: 'Inter', 'Segoe UI', 'Kalam', Roboto, Helvetica, Arial, sans-serif;
    --radius-xl: 16px;
    --font-family-headline: 'Inter', 'Segoe UI', 'Kalam', Roboto, Helvetica, Arial, sans-serif;
    --font-family-body: 'Inter', 'Segoe UI', 'Kalam', Roboto, Helvetica, Arial, sans-serif;
    --font-heading: 'Inter', 'Segoe UI', 'Kalam', Roboto, Helvetica, Arial, sans-serif;
    --font-body: 'Inter', 'Segoe UI', 'Kalam', Roboto, Helvetica, Arial, sans-serif;
    --font-size-h1: 56px;
    --font-size-h2: 40px;
    --font-size-h3: 28px;
    --font-size-body: 24px;
    --font-size-caption: 18px;
    --secondary-text: var(--muted-text);
    --panel-border: var(--border);
    --font-weight-normal: 400;
    --font-weight-medium: 500;
    --font-weight-semibold: 600;
    --font-weight-bold: 700;
    --spacing-gutter-pct: 0.07;
    --spacing-top-pct: 0.15;
    --spacing-bottom-pct: 0.07;
    --spacing-title-y-pct: 0.055;
    --accent-1: #a5b4fc;
    --accent-2: #34d399;
    --accent-3: #f472b6;
    --accent-4: #fbbf24;
    --accent-5: #38bdf8;
    --accent-6: #c084fc;
    --accent-7: #f87171;
    --accent-8: #2dd4bf;
    --accent-9: #fb923c;
    --accent-10: #e879f9;
}
:root[data-theme="dark"] {
    --background: #0f172a;
    --panel: #1e293b;
    --primary-text: #f1f5f9;
    --muted-text: #94a3b8;
    --inverse-text: #0f172a;
    --border: #334155;
    --shadow-color: #000000;
    --icon-pad-bg: #1e293b;
    --art-glow: #7dd3fc;
    --art-glow-opacity: 0.18;
    --art-sheen: #ffffff;
    --art-sheen-opacity: 0.18;
    --art-shadow: #000000;
    --art-shadow-opacity: 0.28;
    --art-muted-line: #64748b;
    --art-panel-tint: #1e293b;
    --accent-1: #a5b4fc;
    --accent-2: #34d399;
    --accent-3: #f472b6;
    --accent-4: #fbbf24;
    --accent-5: #38bdf8;
    --accent-6: #c084fc;
    --accent-7: #f87171;
    --accent-8: #2dd4bf;
    --accent-9: #fb923c;
    --accent-10: #e879f9;
}
:root[data-theme="light"] {
    --background: #f8fafc;
    --panel: #ffffff;
    --primary-text: #0f172a;
    --muted-text: #64748b;
    --inverse-text: #ffffff;
    --border: #e2e8f0;
    --shadow-color: #000000;
    --icon-pad-bg: #1e293b;
    --art-glow: #0891b2;
    --art-glow-opacity: 0.10;
    --art-sheen: #ffffff;
    --art-sheen-opacity: 0.34;
    --art-shadow: #0f172a;
    --art-shadow-opacity: 0.14;
    --art-muted-line: #94a3b8;
    --art-panel-tint: #f1f5f9;
    --accent-1: #4f46e5;
    --accent-2: #059669;
    --accent-3: #db2777;
    --accent-4: #d97706;
    --accent-5: #0284c7;
    --accent-6: #7c3aed;
    --accent-7: #dc2626;
    --accent-8: #0d9488;
    --accent-9: #ea580c;
    --accent-10: #c026d3;
}</style>
  <rect x="0" y="0" width="1.92E+3" height="1.08E+3" fill="#252a34" stroke="none" id="programmatic_background"/>
  <line id="HEADER_DECOR" x1="960.0" x2="1080.0" y1="135.0" y2="135.0" stroke="var(--accent-1)" stroke-width="6" stroke-linecap="round"/>
  <defs>
    <pattern id="svg257f58de-napkin-hatch" patternUnits="userSpaceOnUse" width="12" height="12">
      <path d="M -3 12 L 12 -3 M 0 15 L 15 0" fill="none" stroke="var(--primary-text)" stroke-width="1" stroke-opacity="0.05"/>
    </pattern>
    <radialGradient id="svg257f58de-universal-edge-vignette" cx="50%" cy="50%" r="72%">
      <stop offset="0%" stop-color="var(--background)" stop-opacity="0"/>
      <stop offset="72%" stop-color="var(--background)" stop-opacity="0.12"/>
      <stop offset="100%" stop-color="var(--primary-text)" stop-opacity="0.08"/>
    </radialGradient>
    <linearGradient id="svg257f58de-universal-surface-sheen" x1="0%" y1="0%" x2="100%" y2="100%">
      <stop offset="0%" stop-color="var(--art-sheen)" stop-opacity="var(--art-sheen-opacity)"/>
      <stop offset="46%" stop-color="var(--art-sheen)" stop-opacity="0.035"/>
      <stop offset="100%" stop-color="var(--art-panel-tint)" stop-opacity="0.14"/>
    </linearGradient>
    <radialGradient id="svg257f58de-universal-icon-aura" cx="50%" cy="42%" r="64%">
      <stop offset="0%" stop-color="var(--art-glow)" stop-opacity="var(--art-glow-opacity)"/>
      <stop offset="100%" stop-color="var(--background)" stop-opacity="0"/>
    </radialGradient>
    <linearGradient id="svg257f58de-timeline-snake-route-glow" x1="0%" y1="0%" x2="100%" y2="100%">
      <stop offset="0%" stop-color="var(--art-glow)" stop-opacity="0"/>
      <stop offset="48%" stop-color="var(--art-glow)" stop-opacity="var(--art-glow-opacity)"/>
      <stop offset="100%" stop-color="var(--art-glow)" stop-opacity="0"/>
    </linearGradient>
    <linearGradient id="svg257f58de-timeline-snake-card-sheen" x1="0%" y1="0%" x2="100%" y2="100%">
      <stop offset="0%" stop-color="var(--art-sheen)" stop-opacity="var(--art-sheen-opacity)"/>
      <stop offset="100%" stop-color="var(--art-panel-tint)" stop-opacity="0.12"/>
    </linearGradient>
    <filter id="svg257f58de-text-glow" x="-20%" y="-20%" width="140%" height="140%">
      <feDropShadow dx="0" dy="0" stdDeviation="2" flood-color="#000000" flood-opacity="0.4"/>
    </filter>
    <filter id="svg257f58de-shadow" x="-30%" y="-30%" width="160%" height="160%">
      <feDropShadow dx="0" dy="2" stdDeviation="3" flood-color="#000000" flood-opacity="0.08"/>
      <feDropShadow dx="0" dy="6" stdDeviation="10" flood-color="#000000" flood-opacity="0.12"/>
    </filter>
    <marker id="svg257f58de-arrowhead" markerWidth="10" markerHeight="7" refX="9" refY="3.5" orient="auto" markerUnits="strokeWidth">
      <polygon points="0 0, 10 3.5, 0 7" fill="var(--muted-text)" opacity="0.6"/>
    </marker>
  </defs>
  <rect width="100%" height="100%" fill="var(--background)" id="CANVAS_BG"/>
  <rect width="100%" height="100%" fill="url(#svg257f58de-napkin-hatch)"/>
  <rect id="UNIVERSAL_EDGE_VIGNETTE" width="100%" height="100%" fill="url(#svg257f58de-universal-edge-vignette)" opacity="0.62"/>
  <text id="TITLE" x="960.0" y="59" text-anchor="middle" font-size="63" font-weight="700" fill="#f1f5f9" style="font-size: 60px; font-family: Inter, Segoe UI, Kalam, Roboto, Helvetica, Arial, sans-serif; font-weight: 700; letter-spacing:-1.2px;" data-final-font-size="60">
    <tspan x="960.0" dy="68.00px">Evolution of the Rendlesham Triangle</tspan>
  </text>
  <rect id="TITLE_FRAME" x="134" y="59" width="1652" height="103" fill="none"/>
  <g id="DIAGRAM_SCALER" transform="translate(50.3, 30.2) scale(0.95)">
    <path d="M 480 360 L 1440 360 C 1590 360 1590 750 1440 750 L 480 750" fill="none" stroke="var(--muted-text)" stroke-width="5" stroke-linecap="round" stroke-opacity="0.26"/>
    <g transform="translate(480.0, 360.0)">
      <circle id="ITEM_1_NODE" r="50" fill="none" stroke="var(--accent-1)" stroke-width="2"/>
      <rect id="ITEM_1_TEXT_BG" x="-208.0" y="74.0" width="416.0" height="206.0" rx="22" fill="var(--panel)" fill-opacity="0.94" stroke="var(--primary-text)" stroke-opacity="0.12" stroke-width="1.5"/>
      <text id="ITEM_1_HEAD" data-bg-id="ITEM_1_TEXT_BG" text-anchor="middle" font-weight="bold" font-size="27" fill="var(--accent-2)" x="0.0" y="90.0" fill-opacity="1.0" stroke="none" style="font-size: 30px; font-family: Inter, Segoe UI, Kalam, Roboto, Helvetica, Arial, sans-serif; font-weight: 700; letter-spacing:-0.4px;" data-final-font-size="30">
        <tspan x="0.0" dy="30.75px">Halt Memorandum</tspan>
      </text>
      <rect id="ITEM_1_HEAD_FRAME" x="-190" y="90" width="380" height="45" fill="none"/>
      <text id="ITEM_1_BODY" data-bg-id="ITEM_1_TEXT_BG" text-anchor="middle" font-size="19.5" fill="var(--primary-text)" x="0.0" y="144.0" style="font-size: 26px; font-family: Inter, Segoe UI, Kalam, Roboto, Helvetica, Arial, sans-serif; font-weight: 400;" data-final-font-size="26">
        <tspan x="0.0" dy="36.68px">Initial 1981 report describes</tspan>
        <tspan x="0.0" dy="29.90px">a metallic triangular shape</tspan>
      </text>
      <rect id="ITEM_1_BODY_FRAME" x="-190" y="144" width="380" height="120" fill="none"/>
      <circle id="TIMELINE_SNAKE_ART_MILESTONE_AURA_1" cx="0" cy="0" r="58" fill="url(#svg257f58de-universal-icon-aura)" opacity="0.82" stroke="var(--accent-2)" stroke-opacity="1.0"/>
      <circle id="ITEM_1_PAD" cx="0" cy="0" r="39" fill="var(--icon-pad-bg)" stroke="var(--primary-text)" opacity="0.9" fill-opacity="0.9" stroke-width="2"/>
      <circle id="ITEM_1_PAD_INNER" cx="0" cy="0" r="30.42" fill="var(--accent-2)" fill-opacity="0.22"/>
      <circle cx="0" cy="0" r="31.2" fill="none" stroke="var(--accent-1)" stroke-width="3" stroke-dasharray="6 4"/>
      <g id="ITEM_1_ICON" transform="translate(-30.0, -30.0)" data-icon-size="60" stroke-dasharray="6 4">
        <g transform="translate(-6.0533333333333355,-7.743333333333338) scale(3.0044444444444447)" vector-effect="non-scaling-stroke" fill="#f1f5f9" fill-opacity="1.0" stroke="none">
          <path fill="#f1f5f9" d="M20 13h-4c0 1.1-.9 2-2 2h-4c-1.1 0-2-.9-2-2H4l-2 5v2c0 1.1.9 2 2 2h16c1.1 0 2-.9 2-2v-2M6 20c-.89 0-1.34-1.08-.71-1.71S7 18.11 7 19c0 .55-.45 1-1 1m4 0c-.89 0-1.34-1.08-.71-1.71S11 18.11 11 19c0 .55-.45 1-1 1m4 0c-.89 0-1.34-1.08-.71-1.71S15 18.11 15 19c0 .55-.45 1-1 1m4 0c-.89 0-1.34-1.08-.71-1.71S19 18.11 19 19c0 .55-.45 1-1 1m0-10V3H6v7H3v2h18v-2M8 5h8v1H8m0 1h6v1H8" vector-effect="non-scaling-stroke" stroke="none"/>
        </g>
      </g>
    </g>
    <g transform="translate(1440.0, 360.0)">
      <circle id="ITEM_2_NODE" r="50" fill="none" stroke="var(--accent-2)" stroke-width="2"/>
      <rect id="ITEM_2_TEXT_BG" x="-208.0" y="74.0" width="416.0" height="206.0" rx="22" fill="var(--panel)" fill-opacity="0.94" stroke="var(--primary-text)" stroke-opacity="0.12" stroke-width="1.5"/>
      <text id="ITEM_2_HEAD" data-bg-id="ITEM_2_TEXT_BG" text-anchor="middle" font-weight="bold" font-size="27" fill="var(--accent-3)" x="0.0" y="90.0" fill-opacity="1.0" stroke="none" style="font-size: 30px; font-family: Inter, Segoe UI, Kalam, Roboto, Helvetica, Arial, sans-serif; font-weight: 700; letter-spacing:-0.4px;" data-final-font-size="30">
        <tspan x="0.0" dy="30.75px">Witness Statements</tspan>
      </text>
      <rect id="ITEM_2_HEAD_FRAME" x="-190" y="90" width="380" height="45" fill="none"/>
      <text id="ITEM_2_BODY" data-bg-id="ITEM_2_TEXT_BG" text-anchor="middle" font-size="19.5" fill="var(--primary-text)" x="0.0" y="144.0" style="font-size: 26px; font-family: Inter, Segoe UI, Kalam, Roboto, Helvetica, Arial, sans-serif; font-weight: 400;" data-final-font-size="26">
        <tspan x="0.0" dy="36.68px">Early accounts vary between</tspan>
        <tspan x="0.0" dy="29.90px">flashing lights and shapes</tspan>
      </text>
      <rect id="ITEM_2_BODY_FRAME" x="-190" y="144" width="380" height="120" fill="none"/>
      <circle id="TIMELINE_SNAKE_ART_MILESTONE_AURA_2" cx="0" cy="0" r="58" fill="url(#svg257f58de-universal-icon-aura)" opacity="0.82" stroke="var(--accent-3)" stroke-opacity="1.0"/>
      <circle id="ITEM_2_PAD" cx="0" cy="0" r="39" fill="var(--icon-pad-bg)" stroke="var(--primary-text)" opacity="0.9" fill-opacity="0.9" stroke-width="2"/>
      <circle id="ITEM_2_PAD_INNER" cx="0" cy="0" r="30.42" fill="var(--accent-3)" fill-opacity="0.22"/>
      <circle cx="0" cy="0" r="31.2" fill="none" stroke="var(--accent-2)" stroke-width="3" stroke-dasharray="6 4"/>
      <g id="ITEM_2_ICON" transform="translate(-30.0, -30.0)" data-icon-size="60" stroke-dasharray="6 4">
        <g transform="translate(-3.1120353982300903,-2.8428318584070835) scale(2.153628318584071)">
          <path d="M14.14 2C14.14 1.58579 13.8042 1.25 13.39 1.25C12.9758 1.25 12.64 1.58579 12.64 2V6C12.64 6.41421 12.9758 6.75 13.39 6.75C13.8042 6.75 14.14 6.41421 14.14 6V2Z" fill="#F9C23C"/>
          <path d="M5.58032 4.12964C5.28742 3.83675 4.81255 3.83675 4.51966 4.12964C4.22676 4.42254 4.22676 4.89741 4.51966 5.1903L7.62966 8.3003C7.92255 8.5932 8.39742 8.5932 8.69032 8.3003C8.98321 8.00741 8.98321 7.53254 8.69032 7.23964L5.58032 4.12964Z" fill="#F9C23C"/>
          <path d="M1.25 13.14C1.25 12.7258 1.58579 12.39 2 12.39H5.89C6.30421 12.39 6.64 12.7258 6.64 13.14C6.64 13.5542 6.30421 13.89 5.89 13.89H2C1.58579 13.89 1.25 13.5542 1.25 13.14Z" fill="#F9C23C"/>
          <path d="M17.0866 7.05107C17.9184 7.88288 16.4179 10.7321 13.735 13.415C11.0521 16.0979 8.20289 17.5984 7.37108 16.7666C6.53927 15.9348 8.03986 13.0856 10.7227 10.4027C13.4056 7.71985 16.2548 6.21927 17.0866 7.05107Z" fill="#F9C23C"/>
          <path d="M20.6699 14.69L28.0899 22.11C29.6799 23.7 29.6699 26.3 28.0599 27.91C26.4499 29.52 23.8499 29.53 22.2599 27.94L14.7099 20.39C12.7199 20.61 10.6499 19.97 9.12988 18.44L12.8199 12.5L18.7599 8.81C20.3699 10.42 20.9999 12.62 20.6699 14.69Z" fill="#B4ACBC"/>
          <path d="M7.05986 17.72L7.91986 18.58C8.26986 18.93 8.84986 18.93 9.19986 18.58L18.8999 8.87999C19.2499 8.52999 19.2499 7.94999 18.8999 7.59999L18.0399 6.74999C17.6899 6.39999 17.1099 6.39999 16.7599 6.74999L7.05986 16.45C6.70986 16.8 6.70986 17.37 7.05986 17.72Z" fill="#321B41"/>
          <path d="M18.2302 19.09L19.4402 20.3C19.7502 20.61 20.2702 20.61 20.5802 20.3L20.6102 20.27C20.9202 19.96 20.9202 19.44 20.6102 19.13L19.4002 17.92C19.0902 17.61 18.5702 17.61 18.2602 17.92L18.2302 17.95C17.9102 18.26 17.9102 18.77 18.2302 19.09Z" fill="#F4F4F4"/>
        </g>
      </g>
    </g>
    <g transform="translate(1440.0, 750.0)">
      <circle id="ITEM_3_NODE" r="50" fill="none" stroke="var(--accent-3)" stroke-width="2"/>
      <rect id="ITEM_3_TEXT_BG" x="-208.0" y="74.0" width="416.0" height="206.0" rx="22" fill="var(--panel)" fill-opacity="0.94" stroke="var(--primary-text)" stroke-opacity="0.12" stroke-width="1.5"/>
      <text id="ITEM_3_HEAD" data-bg-id="ITEM_3_TEXT_BG" text-anchor="middle" font-weight="bold" font-size="27" fill="var(--accent-4)" x="0.0" y="90.0" fill-opacity="1.0" stroke="none" style="font-size: 30px; font-family: Inter, Segoe UI, Kalam, Roboto, Helvetica, Arial, sans-serif; font-weight: 700; letter-spacing:-0.4px;" data-final-font-size="30">
        <tspan x="0.0" dy="30.75px">Penniston Details</tspan>
      </text>
      <rect id="ITEM_3_HEAD_FRAME" x="-190" y="90" width="380" height="45" fill="none"/>
      <text id="ITEM_3_BODY" data-bg-id="ITEM_3_TEXT_BG" text-anchor="middle" font-size="19.5" fill="var(--primary-text)" x="0.0" y="144.0" style="font-size: 26px; font-family: Inter, Segoe UI, Kalam, Roboto, Helvetica, Arial, sans-serif; font-weight: 400;" data-final-font-size="26">
        <tspan x="0.0" dy="36.68px">Later accounts add tactile</tspan>
        <tspan x="0.0" dy="29.90px">contact and binary codes</tspan>
      </text>
      <rect id="ITEM_3_BODY_FRAME" x="-190" y="144" width="380" height="120" fill="none"/>
      <circle id="TIMELINE_SNAKE_ART_MILESTONE_AURA_3" cx="0" cy="0" r="58" fill="url(#svg257f58de-universal-icon-aura)" opacity="0.82" stroke="var(--accent-4)" stroke-opacity="1.0"/>
      <circle id="ITEM_3_PAD" cx="0" cy="0" r="39" fill="var(--icon-pad-bg)" stroke="var(--primary-text)" opacity="0.9" fill-opacity="0.9" stroke-width="2"/>
      <circle id="ITEM_3_PAD_INNER" cx="0" cy="0" r="30.42" fill="var(--accent-4)" fill-opacity="0.22"/>
      <circle cx="0" cy="0" r="31.2" fill="none" stroke="var(--accent-3)" stroke-width="3" stroke-dasharray="6 4"/>
      <g id="ITEM_3_ICON" transform="translate(-30.0, -30.0)" data-icon-size="60" stroke-dasharray="6 4">
        <g transform="translate(-1.9039024390243922,-1.6565853658536616) scale(0.49463414634146347)">
          <path fill="#B1E4FF" d="M20.5 10.5C35.1.2 58 1 75.2 14.7c8.3 6.6 14.8 15.9 21.5 23.2c6.4 6.9 15.2 14.3 18.9 19.2c10.1 13.2 16.8 30.4-2.5 53.2c-11 13-30.7 19.7-53.5 10.2c-28.8-12.1-43-32.8-50.4-50.5c-5.7-13.8-12-43.3 11.3-59.5"/>
          <path fill="#004FAC" d="M61.6 12.8c8.8 3.9 18.2 11.6 24.8 20.9c8.5 12 12 13.9 17.8 17.1c6.5 3.6 3.7 10.4-3.6 8.1c-3.2-1-7.6-3.1-20.2-19.5c-5.8-7.6-10.8-13.8-22.2-19.2c-4-2-1.2-9.5 3.4-7.4M50 17.1c-12.9-1-18.2 2.8-25.5 8.6c-4.7 3.7-8.6-1.9-6.4-4.7C26.8 9.8 41.8 6.8 51.4 9c4.4 1 3.6 8.5-1.4 8.1M19.4 33.4c-6.9 15.9-.7 36 18.6 57.6c4 4.4-.7 8.3-3.7 5.8C12.8 79 2.8 47.4 12.1 30c2.5-4.6 9.2-1 7.3 3.4"/>
          <path fill="#004FAC" d="M47.6 106.4c-.3-3.8.7-8.6-4.9-16.1c-3-3.9-14-17-15.8-24.9c-1-4.2 5.5-6.2 7.2-1.9C37 70.8 40 74.6 45.2 80.7c11.1 12.8 10.5 20.6 10.1 26.1c-.5 4.7-7.3 4.7-7.7-.4m24.2-5.2c.9 9.6-2.6 14.4-4 16.3c-1.9 2.4-8.2 1.6-6.5-3.7C65.9 99.4 57.5 90.2 56 85c-1.5-5 3.1-7.1 5.6-5.8c3.7 1.9 5.7 7.1 6.9 9.4c3.5 2.2 16.5 10.5 39.6 11c5.5.1 5.6 7.2.3 8.2c-16.5 3-36.6-6.6-36.6-6.6"/>
          <path fill="#004FAC" d="M94.3 112.1c-2.1-.9-13.8-3.2-21.4 3.1c-1.9 1.6-1.9 5.8 1.8 6.3c3 .3 5.3-1 9.8-1.7c4.2-.7 6.2-.5 9.5-.3c3.5.1 5.7-5 .3-7.4m23.7-30c-2.6-.5-4.2.3-8.4.2c-3.9 0-6.1-.8-9.3-.2c-3.8.8-4.9 7.7-.1 9.2c2.8.9 15.3 1.7 19.5-.8c3.1-1.6 3.3-7.5-1.7-8.4m-30.3-4c1.3.3 3.7 1.1 5 1.8c4.1 2.1 2.1 9.7-2.6 9.7c-1.8 0-5.3-1.2-6.6-2c-4.1-2.7-1.6-10.9 4.2-9.5"/>
          <path fill="#004FAC" d="M79.8 74.5c3.6 3 .6 10.3-4.4 9c-5.7-1.4-12.3-9.5-13.9-17.2c-2.6-12.4-8.3-15.8-12.3-13.2c-4.4 2.9-1.1 10.4 2.8 12.5c11.6 6.4 4.5 15.1-1 11.5c-17.5-11.3-14.6-29.3-6.5-33.8c11-6 21.9 5.8 24.8 17c2.4 9.3 6.9 11.2 10.5 14.2"/>
          <path fill="#004FAC" d="M31.5 55.2c.1 3.2-6.3 4.1-7.1.7c-1-4.1-2.4-19.8 10.2-27.5c9.7-5.9 22-4.4 31.2 3.8c13.6 12.1 20.8 28.1 29.8 32c7.9 3.4 17 1.7 19 1.7c5.2.1 5.8 8-1.1 9.1c-11.2 1.8-24.8-1.9-30.6-8.5c-4.2-4.8-11.7-16-16.7-21.9c-5.3-6.3-11.7-11.3-19.7-10.4c-6.9.7-15.7 4.8-15 21"/>
        </g>
      </g>
    </g>
    <g transform="translate(480.0, 750.0)">
      <circle id="ITEM_4_NODE" r="50" fill="none" stroke="var(--accent-4)" stroke-width="2"/>
      <rect id="ITEM_4_TEXT_BG" x="-208.0" y="74.0" width="416.0" height="206.0" rx="22" fill="var(--panel)" fill-opacity="0.94" stroke="var(--primary-text)" stroke-opacity="0.12" stroke-width="1.5"/>
      <text id="ITEM_4_HEAD" data-bg-id="ITEM_4_TEXT_BG" text-anchor="middle" font-weight="bold" font-size="27" fill="var(--accent-5)" x="0.0" y="90.0" fill-opacity="1.0" stroke="none" style="font-size: 30px; font-family: Inter, Segoe UI, Kalam, Roboto, Helvetica, Arial, sans-serif; font-weight: 700; letter-spacing:-0.4px;" data-final-font-size="30">
        <tspan x="0.0" dy="30.75px">Public Iconography</tspan>
      </text>
      <rect id="ITEM_4_HEAD_FRAME" x="-190" y="90" width="380" height="45" fill="none"/>
      <text id="ITEM_4_BODY" data-bg-id="ITEM_4_TEXT_BG" text-anchor="middle" font-size="19.5" fill="var(--primary-text)" x="0.0" y="144.0" style="font-size: 26px; font-family: Inter, Segoe UI, Kalam, Roboto, Helvetica, Arial, sans-serif; font-weight: 400;" data-final-font-size="26">
        <tspan x="0.0" dy="36.68px">Tourism and sculptures solidify</tspan>
        <tspan x="0.0" dy="29.90px">the triangular visual shorthand</tspan>
      </text>
      <rect id="ITEM_4_BODY_FRAME" x="-190" y="144" width="380" height="120" fill="none"/>
      <circle id="TIMELINE_SNAKE_ART_MILESTONE_AURA_4" cx="0" cy="0" r="58" fill="url(#svg257f58de-universal-icon-aura)" opacity="0.82" stroke="var(--accent-5)" stroke-opacity="1.0"/>
      <circle id="ITEM_4_PAD" cx="0" cy="0" r="39" fill="var(--icon-pad-bg)" stroke="var(--primary-text)" opacity="0.9" fill-opacity="0.9" stroke-width="2"/>
      <circle id="ITEM_4_PAD_INNER" cx="0" cy="0" r="30.42" fill="var(--accent-5)" fill-opacity="0.22"/>
      <circle cx="0" cy="0" r="31.2" fill="none" stroke="var(--accent-4)" stroke-width="3" stroke-dasharray="6 4"/>
      <g id="ITEM_4_ICON" transform="translate(-30.0, -30.0)" data-icon-size="60" stroke-dasharray="6 4">
        <g transform="translate(-2.4480000000000017,-2.4479999999999995) scale(2.028)" vector-effect="non-scaling-stroke" fill="#f1f5f9" fill-opacity="1.0" stroke="none">
          <path fill="#f1f5f9" d="M29 24.184V7.816A3 3 0 0 0 31 5c0-1.654-1.346-3-3-3s-3 1.346-3 3c0 .392.08.763.217 1.106L16 14.171L6.783 6.106A3 3 0 0 0 7 5c0-1.654-1.346-3-3-3S1 3.346 1 5c0 1.302.838 2.401 2 2.815v16.37A2.995 2.995 0 0 0 1 27c0 1.654 1.346 3 3 3s3-1.346 3-3a2.97 2.97 0 0 0-.595-1.775l5.333-4.668l2.365 4.138A2.98 2.98 0 0 0 13 27c0 1.654 1.346 3 3 3s3-1.346 3-3c0-.931-.435-1.754-1.103-2.305l2.365-4.138l5.333 4.667A2.97 2.97 0 0 0 25 27c0 1.654 1.346 3 3 3s3-1.346 3-3a3 3 0 0 0-2-2.816M28 4a1.001 1.001 0 0 1 0 2a1 1 0 0 1 0-2m-3.822 5.673l-4.44 7.77l-2.22-1.943zM14.482 15.5l-2.22 1.942l-4.44-7.77zM4 4a1.001 1.001 0 0 1 0 2a1 1 0 0 1 0-2m0 24a1.001 1.001 0 0 1 0-2a1.001 1.001 0 0 1 0 2m1-4.204V8.766l5.726 10.02zM16 28a1.001 1.001 0 0 1 0-2a1.001 1.001 0 0 1 0 2m0-4.015l-2.726-4.771L16 16.829l2.726 2.385zm11-15.22v15.031l-5.726-5.01zM28 28a1.001 1.001 0 0 1 0-2a1.001 1.001 0 0 1 0 2" vector-effect="non-scaling-stroke" stroke="none"/>
        </g>
      </g>
    </g>
  </g>
</svg>
