<?xml version='1.0' encoding='utf-8'?>
<svg xmlns="http://www.w3.org/2000/svg" width="1920" height="1080" viewBox="0 0 1920 1080" data-theme="light">
  <style>
        @font-face {
            font-family: 'Inter';
            src: url('assets/fonts/Inter-Regular.ttf') format('truetype');
            font-weight: 400;
            font-style: normal;
            font-display: swap;
        }
        @font-face {
            font-family: 'Inter';
            src: url('assets/fonts/Inter-Bold.ttf') format('truetype');
            font-weight: 600;
            font-style: normal;
            font-display: swap;
        }
        @font-face {
            font-family: 'Inter';
            src: url('assets/fonts/Inter-Bold.ttf') format('truetype');
            font-weight: 800;
            font-style: normal;
            font-display: swap;
        }
        
:root {
    --background: #f8fafc;
    --panel: #ffffff;
    --primary-text: #0f172a;
    --muted-text: #64748b;
    --inverse-text: #ffffff;
    --border: #e2e8f0;
    --shadow-color: #000000;
    --icon-pad-bg: #1e293b;
    --art-glow: #0891b2;
    --art-glow-opacity: 0.10;
    --art-sheen: #ffffff;
    --art-sheen-opacity: 0.34;
    --art-shadow: #0f172a;
    --art-shadow-opacity: 0.14;
    --art-muted-line: #94a3b8;
    --art-panel-tint: #f1f5f9;
    --font-family: 'Inter', 'Segoe UI', 'Kalam', Roboto, Helvetica, Arial, sans-serif;
    --radius-xl: 16px;
    --font-family-headline: 'Inter', 'Segoe UI', 'Kalam', Roboto, Helvetica, Arial, sans-serif;
    --font-family-body: 'Inter', 'Segoe UI', 'Kalam', Roboto, Helvetica, Arial, sans-serif;
    --font-heading: 'Inter', 'Segoe UI', 'Kalam', Roboto, Helvetica, Arial, sans-serif;
    --font-body: 'Inter', 'Segoe UI', 'Kalam', Roboto, Helvetica, Arial, sans-serif;
    --font-size-h1: 56px;
    --font-size-h2: 40px;
    --font-size-h3: 28px;
    --font-size-body: 24px;
    --font-size-caption: 18px;
    --secondary-text: var(--muted-text);
    --panel-border: var(--border);
    --font-weight-normal: 400;
    --font-weight-medium: 500;
    --font-weight-semibold: 600;
    --font-weight-bold: 700;
    --spacing-gutter-pct: 0.07;
    --spacing-top-pct: 0.15;
    --spacing-bottom-pct: 0.07;
    --spacing-title-y-pct: 0.055;
    --accent-1: #3b82f6;
    --accent-2: #22c55e;
    --accent-3: #f59e0b;
    --accent-4: #ec4899;
    --accent-5: #8b5cf6;
    --accent-6: #06b6d4;
}
:root[data-theme="dark"] {
    --background: #0f172a;
    --panel: #1e293b;
    --primary-text: #f1f5f9;
    --muted-text: #94a3b8;
    --inverse-text: #0f172a;
    --border: #334155;
    --shadow-color: #000000;
    --icon-pad-bg: #1e293b;
    --art-glow: #7dd3fc;
    --art-glow-opacity: 0.18;
    --art-sheen: #ffffff;
    --art-sheen-opacity: 0.18;
    --art-shadow: #000000;
    --art-shadow-opacity: 0.28;
    --art-muted-line: #64748b;
    --art-panel-tint: #1e293b;
    --accent-1: #93c5fd;
    --accent-2: #86efac;
    --accent-3: #fcd34d;
    --accent-4: #f9a8d4;
    --accent-5: #c4b5fd;
    --accent-6: #a5f3fc;
}
:root[data-theme="light"] {
    --background: #f8fafc;
    --panel: #ffffff;
    --primary-text: #0f172a;
    --muted-text: #64748b;
    --inverse-text: #ffffff;
    --border: #e2e8f0;
    --shadow-color: #000000;
    --icon-pad-bg: #1e293b;
    --art-glow: #0891b2;
    --art-glow-opacity: 0.10;
    --art-sheen: #ffffff;
    --art-sheen-opacity: 0.34;
    --art-shadow: #0f172a;
    --art-shadow-opacity: 0.14;
    --art-muted-line: #94a3b8;
    --art-panel-tint: #f1f5f9;
    --accent-1: #3b82f6;
    --accent-2: #22c55e;
    --accent-3: #f59e0b;
    --accent-4: #ec4899;
    --accent-5: #8b5cf6;
    --accent-6: #06b6d4;
}</style>
  <rect x="0" y="0" width="1.92E+3" height="1.08E+3" fill="#252a34" stroke="none" id="programmatic_background"/>
  <line id="HEADER_DECOR" x1="960.0" x2="1080.0" y1="125.0" y2="125.0" stroke="var(--accent-1)" stroke-width="6" stroke-linecap="round"/>
  <defs>
    <pattern id="svg95521c9d-napkin-hatch" patternUnits="userSpaceOnUse" width="12" height="12">
      <path d="M -3 12 L 12 -3 M 0 15 L 15 0" fill="none" stroke="var(--primary-text)" stroke-width="1" stroke-opacity="0.05"/>
    </pattern>
    <filter id="svg95521c9d-shadow" x="-30%" y="-30%" width="160%" height="160%">
      <feDropShadow dx="0" dy="3" stdDeviation="6" flood-color="#000000" flood-opacity="0.10"/>
      <feDropShadow dx="0" dy="8" stdDeviation="12" flood-color="#000000" flood-opacity="0.16"/>
    </filter>
    <marker id="svg95521c9d-arrowhead" markerWidth="12" markerHeight="12" refX="10" refY="6" orient="auto">
      <path d="M 0 0 L 12 6 L 0 12 Z" fill="var(--muted-text)"/>
    </marker>
    <radialGradient id="svg95521c9d-universal-edge-vignette" cx="50%" cy="50%" r="72%">
      <stop offset="0%" stop-color="var(--background)" stop-opacity="0"/>
      <stop offset="72%" stop-color="var(--background)" stop-opacity="0.12"/>
      <stop offset="100%" stop-color="var(--primary-text)" stop-opacity="0.08"/>
    </radialGradient>
    <linearGradient id="svg95521c9d-universal-surface-sheen" x1="0%" y1="0%" x2="100%" y2="100%">
      <stop offset="0%" stop-color="var(--art-sheen)" stop-opacity="var(--art-sheen-opacity)"/>
      <stop offset="46%" stop-color="var(--art-sheen)" stop-opacity="0.035"/>
      <stop offset="100%" stop-color="var(--art-panel-tint)" stop-opacity="0.14"/>
    </linearGradient>
    <radialGradient id="svg95521c9d-universal-icon-aura" cx="50%" cy="42%" r="64%">
      <stop offset="0%" stop-color="var(--art-glow)" stop-opacity="var(--art-glow-opacity)"/>
      <stop offset="100%" stop-color="var(--background)" stop-opacity="0"/>
    </radialGradient>
    <filter id="svg95521c9d-text-glow" x="-20%" y="-20%" width="140%" height="140%">
      <feDropShadow dx="0" dy="0" stdDeviation="2" flood-color="#000000" flood-opacity="0.4"/>
    </filter>
  </defs>
  <rect width="100%" height="100%" fill="var(--background)" id="CANVAS_BG"/>
  <rect width="100%" height="100%" fill="url(#svg95521c9d-napkin-hatch)"/>
  <rect id="UNIVERSAL_EDGE_VIGNETTE" width="100%" height="100%" fill="url(#svg95521c9d-universal-edge-vignette)" opacity="0.62"/>
  <text id="TITLE" x="960.0" y="59" text-anchor="middle" font-size="58" font-weight="800" fill="#0f172a" style="font-size: 60px; font-family: Inter, Segoe UI, Kalam, Roboto, Helvetica, Arial, sans-serif; font-weight: 700; letter-spacing:-1.2px;" data-final-font-size="60">
    <tspan x="960.0" dy="68.00px">Mechanism of Distance Illusion</tspan>
  </text>
  <rect id="TITLE_FRAME" x="134" y="56" width="1652" height="98" fill="none"/>
  <rect x="120" y="165" width="1680" height="820" rx="40" fill="var(--panel)" fill-opacity="0.22" stroke="var(--muted-text)" stroke-width="2.4" opacity="0.92"/>
  <path d="M 272.0 282.0 Q 319.5 282.0 367.0 418.0 Q 414.5 418.0 462.0 554.0 Q 509.5 554.0 557.0 690.0 Q 604.5 690.0 652.0 826.0" fill="none" stroke="var(--muted-text)" stroke-width="10" stroke-linecap="round" stroke-linejoin="round" opacity="0.36" marker-end="url(#svg95521c9d-arrowhead)"/>
  <g id="DIAGRAM_MAIN" transform="translate(-60 -20) scale(1.08)">
    <g filter="url(#svg95521c9d-shadow)">
      <rect id="ITEM_1_BG" x="190.0" y="210.0" width="980" height="144" rx="24" fill="var(--panel)" fill-opacity="0.97" stroke="var(--accent-1)" stroke-width="2.5"/>
      <rect x="190.0" y="210.0" width="980" height="144" rx="16" fill="url(#svg95521c9d-universal-surface-sheen)" opacity="0.86"/>
      <rect x="190.0" y="210.0" width="980" height="18" rx="9" fill="var(--accent-1)" fill-opacity="0.55"/>
      <circle id="ITEM_1_PAD" cx="272.0" cy="282.0" r="40" fill="var(--icon-pad-bg)" opacity="0.95" fill-opacity="0.9" stroke-width="2" stroke="var(--primary-text)"/>
      <circle id="ITEM_1_PAD_INNER" cx="272.0" cy="282.0" r="31.20" fill="var(--accent-2)" fill-opacity="0.22"/>
      <circle cx="272.0" cy="282.0" r="32" fill="none" stroke="var(--accent-1)" stroke-width="3" stroke-dasharray="6 4"/>
      <g id="ITEM_1_ICON" transform="translate(242.0, 252.0)" data-icon-size="60" stroke-dasharray="6 4">
        <g transform="translate(-6.977777777777781,-6.977777777777783) scale(3.081481481481482)" vector-effect="non-scaling-stroke" stroke-width="2.43" stroke-linecap="round" stroke-linejoin="round" stroke-opacity="1.0">
          <path d="M21 5H3" vector-effect="non-scaling-stroke" fill="none" stroke="#f1f5f9"/>
          <path d="M17 12H7" vector-effect="non-scaling-stroke" fill="none" stroke="#f1f5f9"/>
          <path d="M19 19H5" vector-effect="non-scaling-stroke" fill="none" stroke="#f1f5f9"/>
        </g>
      </g>
      <rect x="345.0" y="238.0" width="690.0" height="24" rx="12" fill="var(--accent-1)" fill-opacity="0.08"/>
      <text x="1136.0" y="252.0" text-anchor="end" font-size="17" font-weight="800" fill="var(--accent-1)" opacity="0.72">01</text>
      <text id="ITEM_1_HEAD" x="358.0" y="228.0" text-anchor="start" font-weight="800" font-size="30" fill="var(--primary-text)" data-bg-id="ITEM_1_BG" fill-opacity="1.0" style="font-size: 30px; font-family: Inter, Segoe UI, Kalam, Roboto, Helvetica, Arial, sans-serif; font-weight: 700; letter-spacing:-0.4px;" data-final-font-size="30">
        <tspan x="358.0" dy="28.31px">Line Alignment</tspan>
      </text>
      <rect id="ITEM_1_HEAD_FRAME" x="358.0" y="228.0" width="620.0" height="34" fill="none"/>
      <text id="ITEM_1_BODY" x="358.0" y="270.0" text-anchor="start" font-size="23" fill="var(--primary-text)" data-bg-id="ITEM_1_BG" style="font-size: 26px; font-family: Inter, Segoe UI, Kalam, Roboto, Helvetica, Arial, sans-serif; font-weight: 400;" data-final-font-size="26">
        <tspan x="358.0" dy="29.92px">Distant lights align with nearby treelines in view</tspan>
      </text>
      <rect id="ITEM_1_BODY_FRAME" x="358.0" y="270.0" width="650.0" height="64.0" fill="none"/>
    </g>
    <g filter="url(#svg95521c9d-shadow)">
      <rect id="ITEM_2_BG" x="285.0" y="346.0" width="980" height="144" rx="24" fill="var(--panel)" fill-opacity="0.97" stroke="var(--accent-2)" stroke-width="2.5"/>
      <rect x="285.0" y="346.0" width="980" height="144" rx="16" fill="url(#svg95521c9d-universal-surface-sheen)" opacity="0.86"/>
      <rect x="285.0" y="346.0" width="980" height="18" rx="9" fill="var(--accent-2)" fill-opacity="0.55"/>
      <circle id="ITEM_2_PAD" cx="367.0" cy="418.0" r="40" fill="var(--icon-pad-bg)" opacity="0.95" fill-opacity="0.9" stroke-width="2" stroke="var(--primary-text)"/>
      <circle id="ITEM_2_PAD_INNER" cx="367.0" cy="418.0" r="31.20" fill="var(--accent-3)" fill-opacity="0.22"/>
      <circle cx="367.0" cy="418.0" r="32" fill="none" stroke="var(--accent-2)" stroke-width="3" stroke-dasharray="6 4"/>
      <g id="ITEM_2_ICON" transform="translate(337.0, 388.0)" data-icon-size="60" stroke-dasharray="6 4">
        <g transform="translate(-3.844067796610173,-3.8440677966101733) scale(2.820338983050848)" vector-effect="non-scaling-stroke" stroke-width="2.43" stroke-linecap="round" stroke-linejoin="round" stroke-opacity="1.0">
          <path d="M10 10h4" vector-effect="non-scaling-stroke" fill="none" stroke="#f1f5f9"/>
          <path d="M19 7V4a1 1 0 0 0-1-1h-2a1 1 0 0 0-1 1v3" vector-effect="non-scaling-stroke" fill="none" stroke="#f1f5f9"/>
          <path d="M20 21a2 2 0 0 0 2-2v-3.851c0-1.39-2-2.962-2-4.829V8a1 1 0 0 0-1-1h-4a1 1 0 0 0-1 1v11a2 2 0 0 0 2 2z" vector-effect="non-scaling-stroke" fill="none" stroke="#f1f5f9"/>
          <path d="M 22 16 L 2 16" vector-effect="non-scaling-stroke" fill="none" stroke="#f1f5f9"/>
          <path d="M4 21a2 2 0 0 1-2-2v-3.851c0-1.39 2-2.962 2-4.829V8a1 1 0 0 1 1-1h4a1 1 0 0 1 1 1v11a2 2 0 0 1-2 2z" vector-effect="non-scaling-stroke" fill="none" stroke="#f1f5f9"/>
          <path d="M9 7V4a1 1 0 0 0-1-1H6a1 1 0 0 0-1 1v3" vector-effect="non-scaling-stroke" fill="none" stroke="#f1f5f9"/>
        </g>
      </g>
      <rect x="440.0" y="374.0" width="690.0" height="24" rx="12" fill="var(--accent-2)" fill-opacity="0.08"/>
      <text x="1231.0" y="388.0" text-anchor="end" font-size="17" font-weight="800" fill="var(--accent-2)" opacity="0.72">02</text>
      <text id="ITEM_2_HEAD" x="453.0" y="364.0" text-anchor="start" font-weight="800" font-size="30" fill="var(--primary-text)" data-bg-id="ITEM_2_BG" fill-opacity="1.0" style="font-size: 30px; font-family: Inter, Segoe UI, Kalam, Roboto, Helvetica, Arial, sans-serif; font-weight: 700; letter-spacing:-0.4px;" data-final-font-size="30">
        <tspan x="453.0" dy="28.31px">Depth Loss</tspan>
      </text>
      <rect id="ITEM_2_HEAD_FRAME" x="453.0" y="364.0" width="620.0" height="34" fill="none"/>
      <text id="ITEM_2_BODY" x="453.0" y="406.0" text-anchor="start" font-size="23" fill="var(--primary-text)" data-bg-id="ITEM_2_BG" style="font-size: 26px; font-family: Inter, Segoe UI, Kalam, Roboto, Helvetica, Arial, sans-serif; font-weight: 400;" data-final-font-size="26">
        <tspan x="453.0" dy="29.92px">Observer loses true depth of the scene's layout</tspan>
      </text>
      <rect id="ITEM_2_BODY_FRAME" x="453.0" y="406.0" width="650.0" height="64.0" fill="none"/>
    </g>
    <g filter="url(#svg95521c9d-shadow)">
      <rect id="ITEM_3_BG" x="380.0" y="482.0" width="980" height="144" rx="24" fill="var(--panel)" fill-opacity="0.97" stroke="var(--accent-3)" stroke-width="2.5"/>
      <rect x="380.0" y="482.0" width="980" height="144" rx="16" fill="url(#svg95521c9d-universal-surface-sheen)" opacity="0.86"/>
      <rect x="380.0" y="482.0" width="980" height="18" rx="9" fill="var(--accent-3)" fill-opacity="0.55"/>
      <circle id="ITEM_3_PAD" cx="462.0" cy="554.0" r="40" fill="var(--icon-pad-bg)" opacity="0.95" fill-opacity="0.9" stroke-width="2" stroke="var(--primary-text)"/>
      <circle id="ITEM_3_PAD_INNER" cx="462.0" cy="554.0" r="31.20" fill="var(--accent-4)" fill-opacity="0.22"/>
      <circle cx="462.0" cy="554.0" r="32" fill="none" stroke="var(--accent-3)" stroke-width="3" stroke-dasharray="6 4"/>
      <g id="ITEM_3_ICON" transform="translate(432.0, 524.0)" data-icon-size="60" stroke-dasharray="6 4">
        <g transform="translate(-7.800000000000006,-8.400000000000004) scale(2.4000000000000004)">
          <path d="M24 6.5H8V25.5C8 27.433 11.5817 29 16 29C20.4183 29 24 27.433 24 25.5V6.5Z" fill="#6D4534"/>
          <path d="M15.9999 9.99995C20.4182 9.99995 23.9999 8.43295 23.9999 6.49995C23.9999 4.56696 20.4182 2.99995 15.9999 2.99995C11.5817 2.99995 7.99994 4.56696 7.99994 6.49995C7.99994 7.13672 8.3207 7.68135 8.99994 8.19575C9.02224 8.21333 8.97697 8.17836 8.99994 8.19575V14.5C8.99994 14.7761 9.2238 15 9.49994 15C9.77608 15 9.99994 14.7761 9.99994 14.5V8.8151C10.0269 8.8289 9.97247 8.80148 9.99994 8.8151C11.4672 9.5655 13.5658 9.99995 15.9999 9.99995Z" fill="#A56953"/>
          <path d="M27.3536 10.7677L24 14.1213L24 25.5C24 26.3876 23.2447 27.1981 21.9999 27.8151V23.5C21.9999 23.2239 21.7761 23 21.4999 23C21.2264 23 21.0042 23.2196 21 23.4921V13.9142C21 13.2511 21.2634 12.6153 21.7322 12.1464L25.2322 8.64641C25.6228 8.25588 26.2559 8.25589 26.6464 8.64641L27.3536 9.35352C27.7441 9.74404 27.7441 10.3772 27.3536 10.7677Z" fill="#A56953"/>
          <path d="M4.14641 19.2677L7.99996 23.1213V25.5C7.99997 26.6053 9.17104 27.5909 11 28.2323V22.9142C11 22.2511 10.7366 21.6152 10.2677 21.1464L6.26773 17.1464C5.8772 16.7559 5.24404 16.7559 4.85352 17.1464L4.14641 17.8535C3.75588 18.244 3.75588 18.8772 4.14641 19.2677Z" fill="#A56953"/>
          <path d="M11.9999 15.5C11.9999 15.2239 12.2238 15 12.4999 15C12.7761 15 12.9999 15.2239 12.9999 15.5V19.5C12.9999 19.7761 12.7761 20 12.4999 20C12.2238 20 11.9999 19.7761 11.9999 19.5V15.5Z" fill="#A56953"/>
          <path d="M23 6.25C23 7.76878 19.866 9 16 9C12.134 9 9 7.76878 9 6.25C9 4.73122 12.134 3.5 16 3.5C19.866 3.5 23 4.73122 23 6.25Z" fill="#F3AD61"/>
          <path d="M16 8C18.7614 8 21 7.16053 21 6.125C21 5.08947 18.7614 4.25 16 4.25C13.2386 4.25 11 5.08947 11 6.125C11 7.16053 13.2386 8 16 8ZM16 7C14.3431 7 13 6.55228 13 6C13 5.44772 14.3431 5 16 5C17.6569 5 19 5.44772 19 6C19 6.55228 17.6569 7 16 7Z" fill="#6D4534"/>
        </g>
      </g>
      <rect x="535.0" y="510.0" width="690.0" height="24" rx="12" fill="var(--accent-3)" fill-opacity="0.08"/>
      <text x="1326.0" y="524.0" text-anchor="end" font-size="17" font-weight="800" fill="var(--accent-3)" opacity="0.72">03</text>
      <text id="ITEM_3_HEAD" x="548.0" y="500.0" text-anchor="start" font-weight="800" font-size="30" fill="var(--primary-text)" data-bg-id="ITEM_3_BG" fill-opacity="1.0" style="font-size: 30px; font-family: Inter, Segoe UI, Kalam, Roboto, Helvetica, Arial, sans-serif; font-weight: 700; letter-spacing:-0.4px;" data-final-font-size="30">
        <tspan x="548.0" dy="28.31px">Visual Attachment</tspan>
      </text>
      <rect id="ITEM_3_HEAD_FRAME" x="548.0" y="500.0" width="620.0" height="34" fill="none"/>
      <text id="ITEM_3_BODY" x="548.0" y="542.0" text-anchor="start" font-size="23" fill="var(--primary-text)" data-bg-id="ITEM_3_BG" style="font-size: 26px; font-family: Inter, Segoe UI, Kalam, Roboto, Helvetica, Arial, sans-serif; font-weight: 400;" data-final-font-size="26">
        <tspan x="548.0" dy="29.92px">Light appears attached to the nearest plausible feature</tspan>
      </text>
      <rect id="ITEM_3_BODY_FRAME" x="548.0" y="542.0" width="650.0" height="64.0" fill="none"/>
    </g>
    <g filter="url(#svg95521c9d-shadow)">
      <rect id="ITEM_4_BG" x="475.0" y="618.0" width="980" height="144" rx="24" fill="var(--panel)" fill-opacity="0.97" stroke="var(--accent-4)" stroke-width="2.5"/>
      <rect x="475.0" y="618.0" width="980" height="144" rx="16" fill="url(#svg95521c9d-universal-surface-sheen)" opacity="0.86"/>
      <rect x="475.0" y="618.0" width="980" height="18" rx="9" fill="var(--accent-4)" fill-opacity="0.55"/>
      <circle id="ITEM_4_PAD" cx="557.0" cy="690.0" r="40" fill="var(--icon-pad-bg)" opacity="0.95" fill-opacity="0.9" stroke-width="2" stroke="var(--primary-text)"/>
      <circle id="ITEM_4_PAD_INNER" cx="557.0" cy="690.0" r="31.20" fill="var(--accent-5)" fill-opacity="0.22"/>
      <circle cx="557.0" cy="690.0" r="32" fill="none" stroke="var(--accent-4)" stroke-width="3" stroke-dasharray="6 4"/>
      <g id="ITEM_4_ICON" transform="translate(527.0, 660.0)" data-icon-size="60" stroke-dasharray="6 4">
        <g transform="translate(-3.2628099173553786,-3.520661157024799) scale(0.12892561983471076)" vector-effect="non-scaling-stroke" fill="#f1f5f9" fill-opacity="1.0" stroke="none">
          <path fill="#f1f5f9" d="M149.9 27.2L34.25 56.74v76.76L157.8 93.85l46.7-44.67zm132.8 57c-7.4.18-10.1 1.88.9 7.13C346.9 121.6 441.7 206.8 391.3 216.9C232.2 249 130.4 292.3 48.51 390.8C25.42 418.6 18 494.8 18 494.8h432.6s-139-21.1-147.8-75.7c-14.9-92.2 194.5-102.7 196.5-199.9c.9-43.2-88.3-124.99-184.4-132.52c-5.6-.44-22.7-2.71-32.2-2.48m-163.5 40.9l-32.69 10.5v122.2l35.99-10z" vector-effect="non-scaling-stroke" stroke="none"/>
        </g>
      </g>
      <rect x="630.0" y="646.0" width="690.0" height="24" rx="12" fill="var(--accent-4)" fill-opacity="0.08"/>
      <text x="1421.0" y="660.0" text-anchor="end" font-size="17" font-weight="800" fill="var(--accent-4)" opacity="0.72">04</text>
      <text id="ITEM_4_HEAD" x="643.0" y="636.0" text-anchor="start" font-weight="800" font-size="30" fill="var(--primary-text)" data-bg-id="ITEM_4_BG" fill-opacity="1.0" style="font-size: 30px; font-family: Inter, Segoe UI, Kalam, Roboto, Helvetica, Arial, sans-serif; font-weight: 700; letter-spacing:-0.4px;" data-final-font-size="30">
        <tspan x="643.0" dy="28.31px">Intermittent Blocking</tspan>
      </text>
      <rect id="ITEM_4_HEAD_FRAME" x="643.0" y="636.0" width="620.0" height="34" fill="none"/>
      <text id="ITEM_4_BODY" x="643.0" y="678.0" text-anchor="start" font-size="23" fill="var(--primary-text)" data-bg-id="ITEM_4_BG" style="font-size: 26px; font-family: Inter, Segoe UI, Kalam, Roboto, Helvetica, Arial, sans-serif; font-weight: 400;" data-final-font-size="26">
        <tspan x="643.0" dy="29.92px">Moving through trees makes light appear to move</tspan>
      </text>
      <rect id="ITEM_4_BODY_FRAME" x="643.0" y="678.0" width="650.0" height="64.0" fill="none"/>
    </g>
    <g filter="url(#svg95521c9d-shadow)">
      <rect id="ITEM_5_BG" x="570.0" y="754.0" width="980" height="144" rx="24" fill="var(--panel)" fill-opacity="0.97" stroke="var(--accent-5)" stroke-width="2.5"/>
      <rect x="570.0" y="754.0" width="980" height="144" rx="16" fill="url(#svg95521c9d-universal-surface-sheen)" opacity="0.86"/>
      <rect x="570.0" y="754.0" width="980" height="18" rx="9" fill="var(--accent-5)" fill-opacity="0.55"/>
      <circle id="ITEM_5_PAD" cx="652.0" cy="826.0" r="40" fill="var(--icon-pad-bg)" opacity="0.95" fill-opacity="0.9" stroke-width="2" stroke="var(--primary-text)"/>
      <circle id="ITEM_5_PAD_INNER" cx="652.0" cy="826.0" r="31.20" fill="var(--accent-6)" fill-opacity="0.22"/>
      <circle cx="652.0" cy="826.0" r="32" fill="none" stroke="var(--accent-5)" stroke-width="3" stroke-dasharray="6 4"/>
      <g id="ITEM_5_ICON" transform="translate(622.0, 796.0)" data-icon-size="60" stroke-dasharray="6 4">
        <g transform="translate(-3.961061946902662,-3.684955752212394) scale(2.2088495575221243)">
          <path d="M14.14 2C14.14 1.58579 13.8042 1.25 13.39 1.25C12.9758 1.25 12.64 1.58579 12.64 2V6C12.64 6.41421 12.9758 6.75 13.39 6.75C13.8042 6.75 14.14 6.41421 14.14 6V2Z" fill="#F9C23C"/>
          <path d="M5.58032 4.12964C5.28742 3.83675 4.81255 3.83675 4.51966 4.12964C4.22676 4.42254 4.22676 4.89741 4.51966 5.1903L7.62966 8.3003C7.92255 8.5932 8.39742 8.5932 8.69032 8.3003C8.98321 8.00741 8.98321 7.53254 8.69032 7.23964L5.58032 4.12964Z" fill="#F9C23C"/>
          <path d="M1.25 13.14C1.25 12.7258 1.58579 12.39 2 12.39H5.89C6.30421 12.39 6.64 12.7258 6.64 13.14C6.64 13.5542 6.30421 13.89 5.89 13.89H2C1.58579 13.89 1.25 13.5542 1.25 13.14Z" fill="#F9C23C"/>
          <path d="M17.0866 7.05107C17.9184 7.88288 16.4179 10.7321 13.735 13.415C11.0521 16.0979 8.20289 17.5984 7.37108 16.7666C6.53927 15.9348 8.03986 13.0856 10.7227 10.4027C13.4056 7.71985 16.2548 6.21927 17.0866 7.05107Z" fill="#F9C23C"/>
          <path d="M20.6699 14.69L28.0899 22.11C29.6799 23.7 29.6699 26.3 28.0599 27.91C26.4499 29.52 23.8499 29.53 22.2599 27.94L14.7099 20.39C12.7199 20.61 10.6499 19.97 9.12988 18.44L12.8199 12.5L18.7599 8.81C20.3699 10.42 20.9999 12.62 20.6699 14.69Z" fill="#B4ACBC"/>
          <path d="M7.05986 17.72L7.91986 18.58C8.26986 18.93 8.84986 18.93 9.19986 18.58L18.8999 8.87999C19.2499 8.52999 19.2499 7.94999 18.8999 7.59999L18.0399 6.74999C17.6899 6.39999 17.1099 6.39999 16.7599 6.74999L7.05986 16.45C6.70986 16.8 6.70986 17.37 7.05986 17.72Z" fill="#321B41"/>
          <path d="M18.2302 19.09L19.4402 20.3C19.7502 20.61 20.2702 20.61 20.5802 20.3L20.6102 20.27C20.9202 19.96 20.9202 19.44 20.6102 19.13L19.4002 17.92C19.0902 17.61 18.5702 17.61 18.2602 17.92L18.2302 17.95C17.9102 18.26 17.9102 18.77 18.2302 19.09Z" fill="#F4F4F4"/>
        </g>
      </g>
      <rect x="725.0" y="782.0" width="690.0" height="24" rx="12" fill="var(--accent-5)" fill-opacity="0.08"/>
      <text x="1516.0" y="796.0" text-anchor="end" font-size="17" font-weight="800" fill="var(--accent-5)" opacity="0.72">05</text>
      <text id="ITEM_5_HEAD" x="738.0" y="772.0" text-anchor="start" font-weight="800" font-size="30" fill="var(--primary-text)" data-bg-id="ITEM_5_BG" fill-opacity="1.0" style="font-size: 30px; font-family: Inter, Segoe UI, Kalam, Roboto, Helvetica, Arial, sans-serif; font-weight: 700; letter-spacing:-0.4px;" data-final-font-size="30">
        <tspan x="738.0" dy="28.31px">Perceived Motion</tspan>
      </text>
      <rect id="ITEM_5_HEAD_FRAME" x="738.0" y="772.0" width="620.0" height="34" fill="none"/>
      <text id="ITEM_5_BODY" x="738.0" y="814.0" text-anchor="start" font-size="23" fill="var(--primary-text)" data-bg-id="ITEM_5_BG" style="font-size: 26px; font-family: Inter, Segoe UI, Kalam, Roboto, Helvetica, Arial, sans-serif; font-weight: 400;" data-final-font-size="26">
        <tspan x="738.0" dy="29.92px">Stationary lights seem to shift or retreat sideways</tspan>
      </text>
      <rect id="ITEM_5_BODY_FRAME" x="738.0" y="814.0" width="650.0" height="64.0" fill="none"/>
    </g>
  </g>
</svg>
