<?xml version='1.0' encoding='utf-8'?>
<svg xmlns="http://www.w3.org/2000/svg" width="1920" height="1080" viewBox="0 0 1920 1080" data-theme="dark">
  <style>
        @font-face {
            font-family: 'Inter';
            src: url('assets/fonts/Inter-Regular.ttf') format('truetype');
            font-weight: 400;
            font-style: normal;
            font-display: swap;
        }
        @font-face {
            font-family: 'Inter';
            src: url('assets/fonts/Inter-Bold.ttf') format('truetype');
            font-weight: 600;
            font-style: normal;
            font-display: swap;
        }
        @font-face {
            font-family: 'Inter';
            src: url('assets/fonts/Inter-Bold.ttf') format('truetype');
            font-weight: 800;
            font-style: normal;
            font-display: swap;
        }
        
:root {
    --background: #0f172a;
    --panel: #1e293b;
    --primary-text: #f1f5f9;
    --muted-text: #94a3b8;
    --inverse-text: #0f172a;
    --border: #334155;
    --shadow-color: #000000;
    --icon-pad-bg: #1e293b;
    --art-glow: #7dd3fc;
    --art-glow-opacity: 0.18;
    --art-sheen: #ffffff;
    --art-sheen-opacity: 0.18;
    --art-shadow: #000000;
    --art-shadow-opacity: 0.28;
    --art-muted-line: #64748b;
    --art-panel-tint: #1e293b;
    --font-family: 'Inter', 'Segoe UI', 'Kalam', Roboto, Helvetica, Arial, sans-serif;
    --radius-xl: 16px;
    --font-family-headline: 'Inter', 'Segoe UI', 'Kalam', Roboto, Helvetica, Arial, sans-serif;
    --font-family-body: 'Inter', 'Segoe UI', 'Kalam', Roboto, Helvetica, Arial, sans-serif;
    --font-heading: 'Inter', 'Segoe UI', 'Kalam', Roboto, Helvetica, Arial, sans-serif;
    --font-body: 'Inter', 'Segoe UI', 'Kalam', Roboto, Helvetica, Arial, sans-serif;
    --font-size-h1: 56px;
    --font-size-h2: 40px;
    --font-size-h3: 28px;
    --font-size-body: 24px;
    --font-size-caption: 18px;
    --secondary-text: var(--muted-text);
    --panel-border: var(--border);
    --font-weight-normal: 400;
    --font-weight-medium: 500;
    --font-weight-semibold: 600;
    --font-weight-bold: 700;
    --spacing-gutter-pct: 0.07;
    --spacing-top-pct: 0.15;
    --spacing-bottom-pct: 0.07;
    --spacing-title-y-pct: 0.055;
    --accent-1: #fbbf24;
    --accent-2: #fb923c;
    --accent-3: #f87171;
    --accent-4: #a3e635;
    --accent-5: #4ade80;
    --accent-6: #d4a574;
}
:root[data-theme="dark"] {
    --background: #0f172a;
    --panel: #1e293b;
    --primary-text: #f1f5f9;
    --muted-text: #94a3b8;
    --inverse-text: #0f172a;
    --border: #334155;
    --shadow-color: #000000;
    --icon-pad-bg: #1e293b;
    --art-glow: #7dd3fc;
    --art-glow-opacity: 0.18;
    --art-sheen: #ffffff;
    --art-sheen-opacity: 0.18;
    --art-shadow: #000000;
    --art-shadow-opacity: 0.28;
    --art-muted-line: #64748b;
    --art-panel-tint: #1e293b;
    --accent-1: #fbbf24;
    --accent-2: #fb923c;
    --accent-3: #f87171;
    --accent-4: #a3e635;
    --accent-5: #4ade80;
    --accent-6: #d4a574;
}
:root[data-theme="light"] {
    --background: #f8fafc;
    --panel: #ffffff;
    --primary-text: #0f172a;
    --muted-text: #64748b;
    --inverse-text: #ffffff;
    --border: #e2e8f0;
    --shadow-color: #000000;
    --icon-pad-bg: #1e293b;
    --art-glow: #0891b2;
    --art-glow-opacity: 0.10;
    --art-sheen: #ffffff;
    --art-sheen-opacity: 0.34;
    --art-shadow: #0f172a;
    --art-shadow-opacity: 0.14;
    --art-muted-line: #94a3b8;
    --art-panel-tint: #f1f5f9;
    --accent-1: #d97706;
    --accent-2: #ea580c;
    --accent-3: #dc2626;
    --accent-4: #65a30d;
    --accent-5: #16a34a;
    --accent-6: #92400e;
}</style>
  <rect x="0" y="0" width="1.92E+3" height="1.08E+3" fill="#252a34" stroke="none" id="programmatic_background"/>
  <line id="HEADER_DECOR" x1="960.0" x2="1080.0" y1="90.0" y2="90.0" stroke="var(--accent-1)" stroke-width="6" stroke-linecap="round"/>
  <defs>
    <pattern id="svg9700f013-napkin-hatch" patternUnits="userSpaceOnUse" width="12" height="12">
      <path d="M -3 12 L 12 -3 M 0 15 L 15 0" fill="none" stroke="var(--primary-text)" stroke-width="1" stroke-opacity="0.05"/>
    </pattern>
    <filter id="svg9700f013-shadow" x="-30%" y="-30%" width="160%" height="160%">
      <feDropShadow dx="0" dy="2" stdDeviation="3" flood-color="#000000" flood-opacity="0.08"/>
      <feDropShadow dx="0" dy="6" stdDeviation="10" flood-color="#000000" flood-opacity="0.12"/>
    </filter>
    <radialGradient id="svg9700f013-universal-edge-vignette" cx="50%" cy="50%" r="72%">
      <stop offset="0%" stop-color="var(--background)" stop-opacity="0"/>
      <stop offset="72%" stop-color="var(--background)" stop-opacity="0.12"/>
      <stop offset="100%" stop-color="var(--primary-text)" stop-opacity="0.08"/>
    </radialGradient>
    <linearGradient id="svg9700f013-universal-surface-sheen" x1="0%" y1="0%" x2="100%" y2="100%">
      <stop offset="0%" stop-color="var(--art-sheen)" stop-opacity="var(--art-sheen-opacity)"/>
      <stop offset="46%" stop-color="var(--art-sheen)" stop-opacity="0.035"/>
      <stop offset="100%" stop-color="var(--art-panel-tint)" stop-opacity="0.14"/>
    </linearGradient>
    <radialGradient id="svg9700f013-universal-icon-aura" cx="50%" cy="42%" r="64%">
      <stop offset="0%" stop-color="var(--art-glow)" stop-opacity="var(--art-glow-opacity)"/>
      <stop offset="100%" stop-color="var(--background)" stop-opacity="0"/>
    </radialGradient>
    <radialGradient id="svg9700f013-venn-center-glow" cx="50%" cy="50%" r="60%">
      <stop offset="0%" stop-color="var(--art-glow)" stop-opacity="var(--art-glow-opacity)"/>
      <stop offset="100%" stop-color="var(--background)" stop-opacity="0"/>
    </radialGradient>
    <linearGradient id="svg9700f013-venn-label-sheen" x1="0%" y1="0%" x2="100%" y2="100%">
      <stop offset="0%" stop-color="var(--inverse-text)" stop-opacity="0.14"/>
      <stop offset="100%" stop-color="var(--background)" stop-opacity="0.12"/>
    </linearGradient>
    <filter id="svg9700f013-text-glow" x="-20%" y="-20%" width="140%" height="140%">
      <feDropShadow dx="0" dy="0" stdDeviation="2" flood-color="#000000" flood-opacity="0.4"/>
    </filter>
    <marker id="svg9700f013-arrowhead" markerWidth="10" markerHeight="7" refX="9" refY="3.5" orient="auto" markerUnits="strokeWidth">
      <polygon points="0 0, 10 3.5, 0 7" fill="var(--muted-text)" opacity="0.6"/>
    </marker>
  </defs>
  <rect width="100%" height="100%" fill="var(--background)" id="CANVAS_BG"/>
  <rect width="100%" height="100%" fill="url(#svg9700f013-napkin-hatch)"/>
  <rect id="UNIVERSAL_EDGE_VIGNETTE" width="100%" height="100%" fill="url(#svg9700f013-universal-edge-vignette)" opacity="0.62"/>
  <text id="TITLE" x="960.0" y="59" text-anchor="middle" font-weight="800" font-size="50" fill="#f1f5f9" style="font-size: 60px; font-family: Inter, Segoe UI, Kalam, Roboto, Helvetica, Arial, sans-serif; font-weight: 700; letter-spacing:-1.2px;" data-final-font-size="60">
    <tspan x="960.0" dy="68.00px">Rendlesham Forest Evidence Hierarchy</tspan>
  </text>
  <rect id="TITLE_FRAME" x="134" y="30" width="1652" height="70" fill="none"/>
  <g id="DIAGRAM_MAIN" transform="translate(960, 580)">
    <circle id="VENN_ART_CENTER_GLOW" cx="0" cy="0" r="255" fill="url(#svg9700f013-venn-center-glow)" opacity="0.95"/>
    <circle cx="0" cy="0" r="255" fill="url(#svg9700f013-venn-center-glow)" opacity="0.95"/>
    <circle cx="0" cy="0" r="255" fill="url(#svg9700f013-venn-center-glow)" opacity="0.95"/>
    <circle cx="0" cy="0" r="255" fill="url(#svg9700f013-venn-center-glow)" opacity="0.95"/>
    <circle cx="0" cy="0" r="255" fill="url(#svg9700f013-venn-center-glow)" opacity="0.95"/>
    <circle cx="0" cy="0" r="255" fill="url(#svg9700f013-venn-center-glow)" opacity="0.95"/>
    <circle cx="0" cy="0" r="255" fill="url(#svg9700f013-venn-center-glow)" opacity="0.95"/>
    <circle cx="0" cy="0" r="255" fill="url(#svg9700f013-venn-center-glow)" opacity="0.95"/>
    <circle cx="0" cy="0" r="255" fill="url(#svg9700f013-venn-center-glow)" opacity="0.95"/>
    <circle cx="0" cy="0" r="255" fill="url(#svg9700f013-venn-center-glow)" opacity="0.95"/>
    <circle cx="0" cy="0" r="255" fill="url(#svg9700f013-venn-center-glow)" opacity="0.95"/>
    <circle cx="0" cy="0" r="255" fill="url(#svg9700f013-venn-center-glow)" opacity="0.95"/>
    <circle cx="0" cy="0" r="255" fill="url(#svg9700f013-venn-center-glow)" opacity="0.95"/>
    <circle cx="0" cy="0" r="255" fill="url(#svg9700f013-venn-center-glow)" opacity="0.95"/>
    <circle cx="0" cy="0" r="255" fill="url(#svg9700f013-venn-center-glow)" opacity="0.95"/>
    <circle cx="0" cy="0" r="255" fill="url(#svg9700f013-venn-center-glow)" opacity="0.95"/>
    <circle cx="0" cy="0" r="255" fill="url(#svg9700f013-venn-center-glow)" opacity="0.95"/>
    <circle cx="0" cy="0" r="255" fill="url(#svg9700f013-venn-center-glow)" opacity="0.95"/>
    <circle cx="0" cy="0" r="255" fill="url(#svg9700f013-venn-center-glow)" opacity="0.95"/>
    <circle cx="0" cy="0" r="255" fill="url(#svg9700f013-venn-center-glow)" opacity="0.95"/>
    <circle cx="0" cy="0" r="255" fill="url(#svg9700f013-venn-center-glow)" opacity="0.95"/>
    <circle cx="0" cy="0" r="255" fill="url(#svg9700f013-venn-center-glow)" opacity="0.95"/>
    <circle cx="0" cy="0" r="255" fill="url(#svg9700f013-venn-center-glow)" opacity="0.95"/>
    <circle cx="0" cy="0" r="255" fill="url(#svg9700f013-venn-center-glow)" opacity="0.95"/>
    <circle cx="0" cy="0" r="255" fill="url(#svg9700f013-venn-center-glow)" opacity="0.95"/>
    <circle cx="0" cy="0" r="255" fill="url(#svg9700f013-venn-center-glow)" opacity="0.95"/>
    <!-- Circle backgrounds (pentagon arrangement) -->
    <!-- r=120, center offset 140 from origin -->
    <circle id="ITEM_1_BG" cx="0" cy="-140" r="180" fill="var(--accent-6)" fill-opacity="0.30" stroke="var(--border)" stroke-width="2"/>
    <circle id="ITEM_2_BG" cx="133" cy="-43" r="180" fill="var(--accent-1)" fill-opacity="0.30" stroke="var(--border)" stroke-width="2"/>
    <circle id="ITEM_3_BG" cx="82" cy="113" r="180" fill="var(--accent-2)" fill-opacity="0.30" stroke="var(--border)" stroke-width="2"/>
    <circle id="ITEM_4_BG" cx="-82" cy="113" r="180" fill="var(--accent-3)" fill-opacity="0.30" stroke="var(--border)" stroke-width="2"/>
    <circle id="ITEM_5_BG" cx="-133" cy="-43" r="180" fill="var(--accent-4)" fill-opacity="0.30" stroke="var(--border)" stroke-width="2"/>
    <!-- ITEM 1 - Top -->
    <circle id="ITEM_1_PAD" cx="0" cy="-270" r="48" fill="var(--icon-pad-bg)" stroke="var(--primary-text)" opacity="0.9" fill-opacity="0.9" stroke-width="2"/>
    <circle id="ITEM_1_PAD_INNER" cx="0" cy="-270" r="37.44" fill="var(--accent-6)" fill-opacity="0.22"/>
    <circle cx="0" cy="-270" r="38" fill="none" stroke="var(--accent-1)" stroke-width="3" stroke-dasharray="6 4"/>
    <g id="ITEM_1_ICON" transform="translate(-27, -297)" data-icon-size="54">
      <g transform="translate(-12.936,-12.935999999999998) scale(0.624)">
        <path fill="#543930" d="M109.4 102.62c-1.62-2.96.45-5.96 3.98-9.68c5.6-5.91 11.7-19.6 6.04-33.51c.03-.08-1.12-2.42-1.08-2.5l-2.34-.12c-.75-.11-26.36-.16-52-.16s-51.25.05-52 .16c0 0-3.45 2.54-3.42 2.61c-5.66 13.91.44 27.6 6.04 33.51c3.53 3.72 5.6 6.73 3.98 9.68c-1.57 2.87-6.26 3.29-6.26 3.29s1.08 2.94 3.69 4.52c2.41 1.46 5.37 1.81 7.42 1.86c0 0 8 11.07 28.92 11.07h23.28c20.92 0 28.92-11.07 28.92-11.07c2.05-.05 5.01-.39 7.42-1.86c2.61-1.58 3.69-4.52 3.69-4.52s-4.7-.41-6.28-3.28"/>
        <path fill="url(#SVGdY9H5bIF)" d="M63.99 123.36v-12.29l37.18-2.94l3.38 4.16s-8 11.07-28.92 11.07z"/>
        <path fill="url(#SVGRjr3JbiW)" d="M104.46 106.93c-5.57-8.46 6.78-11.61 6.78-11.61l.01.01c-2.15 2.67-3.12 5-1.86 7.29c1.57 2.87 6.26 3.29 6.26 3.29s-6.38 5.68-11.19 1.02"/>
        <path fill="url(#SVGOt4A1cYO)" d="M119.45 59.42c5.53 13.47-.29 27.34-5.74 33.19c-.75.8-3.92 3.92-4.64 6.4c0 0-12.42-17.31-16.12-27.49c-.75-2.05-1.43-4.17-1.52-6.35c-.07-1.64.19-3.59 1.13-4.98c1.16-1.71 26.23-2.21 26.23-2.21c0 .02.66 1.44.66 1.44"/>
        <path fill="url(#SVGadeejcri)" d="M8.58 59.42c-5.52 13.47.29 27.34 5.74 33.19c.75.8 3.92 3.92 4.64 6.4c0 0 12.42-17.31 16.12-27.49c.75-2.05 1.43-4.17 1.52-6.35c.07-1.64-.19-3.59-1.13-4.98c-1.16-1.71-2.51-1.25-4.47-1.25c-3.75 0-20.15-.96-21.42-.96c0 .02-1 1.44-1 1.44"/>
        <path fill="url(#SVG92L0meJe)" d="M64.04 123.36v-12.29l-37.18-2.94l-3.38 4.16s8 11.07 28.92 11.07z"/>
        <path fill="url(#SVGSvHQJe3Z)" d="M23.57 106.93c5.57-8.46-6.78-11.61-6.78-11.61l-.01.01c2.15 2.67 3.12 5 1.86 7.29c-1.57 2.87-6.26 3.29-6.26 3.29s6.38 5.68 11.19 1.02"/>
        <path fill="#E59600" d="M99.55 64.37h-71.1c-7.67 0-13.94 6.68-13.94 14.85s6.27 14.85 13.94 14.85h71.11c7.67 0 13.94-6.68 13.94-14.85s-6.28-14.85-13.95-14.85"/>
        <path fill="#FFCA28" d="M64 13.15c-22.64 0-43.61 24.21-43.61 59.06C20.39 106.87 42 124 64 124s43.61-17.13 43.61-51.79c0-34.84-20.97-59.06-43.61-59.06"/>
        <path fill="#E59600" d="M69.02 87.29a1.6 1.6 0 0 0-.42-.11h-9.2c-.14.02-.28.05-.42.11c-.83.34-1.29 1.2-.9 2.12c.4.92 2.23 3.5 5.92 3.5s5.52-2.58 5.92-3.5s-.06-1.78-.9-2.12"/>
        <path fill="#795548" d="M74.95 97.71c-4.14 2.46-17.73 2.46-21.87 0c-2.38-1.42-4.81.75-3.82 2.91c.97 2.12 8.38 7.06 14.79 7.06s13.72-4.93 14.7-7.06c.98-2.16-1.42-4.32-3.8-2.91"/>
        <ellipse cx="42.9" cy="75.23" rx="6.32" ry="6.55"/>
        <ellipse cx="85.1" cy="75.23" rx="6.32" ry="6.55"/>
        <path fill="#6D4C41" d="M52.29 63.47c-1.2-1.59-3.99-3.91-9.39-3.91s-8.19 2.32-9.39 3.91c-.53.71-.4 1.52-.03 2.01c.34.46 1.35.88 2.47.5s3.3-1.51 6.95-1.53c3.65.03 5.84 1.15 6.95 1.53s2.13-.04 2.47-.5c.37-.49.5-1.3-.03-2.01m42.21 0c-1.2-1.59-3.99-3.91-9.39-3.91s-8.19 2.32-9.39 3.91c-.53.71-.4 1.52-.03 2.01c.34.46 1.35.88 2.47.5s3.3-1.51 6.95-1.53c3.65.03 5.84 1.15 6.95 1.53c1.12.38 2.13-.04 2.47-.5c.36-.49.5-1.3-.03-2.01"/>
        <path fill="#543930" d="M116.14 31.41c-3.18-4.81-10.29-11.25-16.68-11.67C98.44 13.6 91.86 8.4 85.5 6.38c-17.21-5.45-28.42.66-34.43 3.94c-1.25.68-9.33 5.16-14.98 1.95c-3.54-2.01-3.47-7.46-3.47-7.46s-11.09 4.22-7.3 16c-3.81.16-8.81 1.76-11.45 7.11c-3.15 6.37-2.03 11.7-1.12 14.25c-3.28 2.78-7.4 8.71-4.57 16.4c2.13 5.79 10.63 8.45 10.63 8.45c-.6 10.42 1.34 16.84 2.37 19.43c.18.45.83.41.94-.06c1.28-5.16 5.68-23.15 5.24-26.29c0 0 14.76-2.93 28.84-13.29c2.87-2.11 5.97-3.91 9.27-5.22c17.68-7.04 21.38 4.97 21.38 4.97s12.25-2.35 15.95 14.67c1.39 6.38 2.33 16.59 3.12 23.73c.06.5.74.61.94.14c1.24-2.83 3.71-8.46 4.3-14.19c.21-2.02 5.65-4.69 7.98-13.35c3.14-11.57-.71-22.68-3-26.15"/>
        <path fill="url(#SVGUAEvgdOr)" d="M111.12 70.95c.21-2.02 5.65-4.69 7.98-13.35c.25-.92.46-1.86.65-2.8c1.9-10.53-1.51-20.19-3.63-23.39c-2.94-4.44-9.24-10.27-15.22-11.46c-.52-.07-1.03-.13-1.51-.16c0 0 .43 2.79-.7 5.02c-1.46 2.89-4.43 3.57-4.43 3.57c15.59 15.59 14.48 28.63 16.86 42.57"/>
        <path fill="url(#SVGHbEfrehY)" d="M54.83 8.35c-1.42.69-2.68 1.38-3.77 1.97c-1.25.68-9.33 5.16-14.98 1.95c-3.48-1.98-3.48-7.26-3.47-7.45c-1.6 2.04-6.44 16.63 7.71 17.6c6.1.42 9.87-4.9 12.09-9.41c.81-1.63 2.08-4.02 2.42-4.66"/>
        <path fill="url(#SVGiVALXc3N)" d="M83.72 5.85c9.52 2.58 14.17 7.42 15.72 13.9c.46 1.9 1 19.62-32.83-.52c-12.58-7.49-9.15-12.18-7.67-12.71c5.75-2.09 14.11-3.56 24.78-.67"/>
        <path fill="url(#SVGeHA2TZmO)" d="M32.57 4.82c-.02.01-.04.02-.08.03h-.01c-1.21.51-10.73 4.91-7.17 15.94l10.13 1.63C26.48 13.35 32.61 4.8 32.61 4.8z"/>
        <path fill="url(#SVGUakULe3y)" d="m31.57 21.81l-6.26-1.01c-.24 0-1.08.08-1.53.14c-3.52.49-7.68 2.31-9.92 6.98c-2.42 5.02-2.35 9.33-1.7 12.21c.19.97.58 2.05.58 2.05s3.1-2.94 10.47-3.13z"/>
        <path fill="url(#SVGxypvjeKx)" d="M12.44 42.42c-3.08 2.74-7.24 8.84-4.17 16.4c2.31 5.71 10.53 8.19 10.53 8.19c0 .03 1.64.51 2.49.51l1.92-28.49c-3.94 0-7.72 1.18-10.17 2.88c.02.06-.61.47-.6.51"/>
      </g>
    </g>
    <rect id="ITEM_1_TEXT_BG" x="-208.0" y="-236.0" width="416.0" height="184.0" rx="16" fill="var(--panel)" fill-opacity="0.94" stroke="var(--primary-text)" stroke-opacity="0.12" stroke-width="1.5"/>
    <rect x="-208.0" y="-236.0" width="416.0" height="184.0" rx="16" fill="url(#svg9700f013-venn-label-sheen)" opacity="0.85"/>
    <text id="ITEM_1_HEAD" x="0.0" y="-220.0" text-anchor="middle" font-weight="bold" font-size="34" fill="var(--accent-6)" data-bg-id="ITEM_1_TEXT_BG" fill-opacity="1.0" stroke="none" style="font-size: 30px; font-family: Inter, Segoe UI, Kalam, Roboto, Helvetica, Arial, sans-serif; font-weight: 700; letter-spacing:-0.4px;" data-final-font-size="30">
      <tspan x="0.0" dy="31.25px">Witnesses</tspan>
    </text>
    <rect id="ITEM_1_HEAD_FRAME" x="-170" y="-220" width="340" height="46" fill="none"/>
    <text id="ITEM_1_BODY" x="0.0" y="-168.0" text-anchor="middle" font-size="20" fill="var(--primary-text)" data-bg-id="ITEM_1_TEXT_BG" style="font-size: 26px; font-family: Inter, Segoe UI, Kalam, Roboto, Helvetica, Arial, sans-serif; font-weight: 400;" data-final-font-size="26">
      <tspan x="0.0" dy="28.84px">US Air Force personnel report</tspan>
      <tspan x="0.0" dy="29.90px">unusual lights</tspan>
    </text>
    <rect id="ITEM_1_BODY_FRAME" x="-190" y="-168" width="380" height="100" fill="none"/>
    <!-- ITEM 2 - Top Right -->
    <circle id="ITEM_2_PAD" cx="256" cy="-83" r="48" fill="var(--icon-pad-bg)" stroke="var(--primary-text)" opacity="0.9" fill-opacity="0.9" stroke-width="2"/>
    <circle id="ITEM_2_PAD_INNER" cx="256" cy="-83" r="37.44" fill="var(--accent-1)" fill-opacity="0.22"/>
    <circle cx="256" cy="-83" r="38" fill="none" stroke="var(--accent-2)" stroke-width="3" stroke-dasharray="6 4"/>
    <g id="ITEM_2_ICON" transform="translate(229, -110)" data-icon-size="54">
      <g transform="translate(-13.560000000000002,-12.935999999999998) scale(0.156)" vector-effect="non-scaling-stroke" fill="#f1f5f9" fill-opacity="1.0" stroke="none">
        <path fill="#f1f5f9" d="M246.625 18.375c-11.817-.153-23.918 8.608-29.375 22.438c-6.716 17.02-.85 35.28 13.094 40.78c13.943 5.502 30.69-3.822 37.406-20.843c6.716-17.02.85-35.28-13.094-40.78a22.5 22.5 0 0 0-8.03-1.595zm74.75 15.938c-10.97.006-22.743 6.024-30.78 16.874c-12.25 16.534-11.2 38.06 2.342 48.094c13.544 10.035 34.44 4.754 46.688-11.78c12.25-16.534 11.2-38.06-2.344-48.094c-4.654-3.45-10.16-5.097-15.905-5.093zm67.25 37.53c-10.336-.127-21.542 4.263-30.47 12.907c-15.87 15.368-18.525 38.344-5.936 51.344c12.587 13 35.66 11.086 51.53-4.28c15.87-15.37 18.526-38.345 5.938-51.345c-5.508-5.69-13.024-8.527-21.063-8.626zm-156.438 32.063c-22.51-.28-44.378 6.893-63.5 24C107.65 182.513 48.192 261.012 28.28 386.97C5.023 534.1 186.257 507.523 168.313 428.936c-22.922-100.387 34.13-141.11 108-124.156c32.838 7.54 66.54-4.9 86-40.436c23.402-42.733-7.428-106.817-62.875-139.625c-21.61-12.79-44.74-20.534-67.25-20.814zM449.438 134c-10.52.022-21.654 2.82-32.093 8.625c-27.837 15.48-40.15 46.51-27.47 69.313c12.682 22.802 45.54 28.73 73.376 13.25s40.118-46.51 27.438-69.313c-7.926-14.252-23.717-21.91-41.25-21.875z" vector-effect="non-scaling-stroke" stroke="none"/>
      </g>
    </g>
    <rect id="ITEM_2_TEXT_BG" x="322.0" y="-156.0" width="416.0" height="204.0" rx="16" fill="var(--panel)" fill-opacity="0.94" stroke="var(--primary-text)" stroke-opacity="0.12" stroke-width="1.5"/>
    <rect x="322.0" y="-156.0" width="416.0" height="204.0" rx="16" fill="url(#svg9700f013-venn-label-sheen)" opacity="0.85"/>
    <text id="ITEM_2_HEAD" x="340.0" y="-140.0" text-anchor="start" font-weight="bold" font-size="34" fill="var(--accent-1)" data-bg-id="ITEM_2_TEXT_BG" fill-opacity="1.0" stroke="none" style="font-size: 30px; font-family: Inter, Segoe UI, Kalam, Roboto, Helvetica, Arial, sans-serif; font-weight: 700; letter-spacing:-0.4px;" data-final-font-size="30">
      <tspan x="340.0" dy="32.25px">Physical Traces</tspan>
    </text>
    <rect id="ITEM_2_HEAD_FRAME" x="340" y="-140" width="260" height="48" fill="none"/>
    <text id="ITEM_2_BODY" x="340.0" y="-88.0" text-anchor="start" font-size="20" fill="var(--primary-text)" data-bg-id="ITEM_2_TEXT_BG" style="font-size: 26px; font-family: Inter, Segoe UI, Kalam, Roboto, Helvetica, Arial, sans-serif; font-weight: 400;" data-final-font-size="26">
      <tspan x="340.0" dy="32.84px">Claims of physical evidence</tspan>
      <tspan x="340.0" dy="29.90px">at the site</tspan>
    </text>
    <rect id="ITEM_2_BODY_FRAME" x="340" y="-88" width="380" height="120" fill="none"/>
    <!-- ITEM 3 - Bottom Right -->
    <circle id="ITEM_3_PAD" cx="158" cy="220" r="48" fill="var(--icon-pad-bg)" stroke="var(--primary-text)" opacity="0.9" fill-opacity="0.9" stroke-width="2"/>
    <circle id="ITEM_3_PAD_INNER" cx="158" cy="220" r="37.44" fill="var(--accent-2)" fill-opacity="0.22"/>
    <circle cx="158" cy="220" r="38" fill="none" stroke="var(--accent-3)" stroke-width="3" stroke-dasharray="6 4"/>
    <g id="ITEM_3_ICON" transform="translate(131, 193)" data-icon-size="54">
      <g transform="translate(-16.840000000000003,-14.919999999999998) scale(0.16)" vector-effect="non-scaling-stroke" fill="#f1f5f9" fill-opacity="1.0" stroke="none">
        <path fill="#f1f5f9" d="M227.47 31.47c-67.048 70.547-83.972 178.936-32.907 267.467c51.07 88.544 153.333 128.083 247.906 105.22l-215-372.688zm232.81 82.155a31.1 31.1 0 0 0-14.81 4.188c-11.303 6.53-17.02 19.035-15.44 31.218l-96.31 29.25l34.842 60.345L442 169.812c9.755 7.504 23.456 8.826 34.78 2.282c14.992-8.663 20.117-27.822 11.47-42.813c-5.945-10.305-16.856-15.948-27.97-15.655zm-311.874 107.5l-26.656 4.688l10.688 60.53l-42.063 39.376l18.688 32.124l58.656-17.813l3.155 4.158L53.53 493.094h78.345l85.344-21.53l52.686 21.53h50.563l-7.064-45.78l.813-.22l-.97-.625l-4.75-30.72c-6.82-2.366-13.532-5.066-20.125-8.03l3.844 24.967l-51-33.437l18.75-6.594a241 241 0 0 1-19.033-13.125l-19.375 6.814l-39.625-26l5.813-7.375l15.156-9.658a242.3 242.3 0 0 1-24.53-35.03c-16-27.74-25.828-57.3-29.97-87.157zm21.906 153.97l29.094 19.06l-61.062 21.5l31.97-40.56zm48.72 31.967l49.343 32.344l-49.78 12.563l-58.845-24.033l59.28-20.875zm-94.813 26.532l5.718 2.312l58.125 23.75L82.75 486.22l41.47-52.626zm170.968 18.312l5.187 33.438l-52.625-21.47l45.813-11.562z" vector-effect="non-scaling-stroke" stroke="none"/>
      </g>
    </g>
    <rect id="ITEM_3_TEXT_BG" x="224.0" y="154.0" width="416.0" height="202.0" rx="16" fill="var(--panel)" fill-opacity="0.94" stroke="var(--primary-text)" stroke-opacity="0.12" stroke-width="1.5"/>
    <rect x="224.0" y="154.0" width="416.0" height="202.0" rx="16" fill="url(#svg9700f013-venn-label-sheen)" opacity="0.85"/>
    <text id="ITEM_3_HEAD" x="242.0" y="170.0" text-anchor="start" font-weight="bold" font-size="34" fill="var(--accent-2)" data-bg-id="ITEM_3_TEXT_BG" fill-opacity="1.0" stroke="none" style="font-size: 30px; font-family: Inter, Segoe UI, Kalam, Roboto, Helvetica, Arial, sans-serif; font-weight: 700; letter-spacing:-0.4px;" data-final-font-size="30">
      <tspan x="242.0" dy="32.25px">Radar Data</tspan>
    </text>
    <rect id="ITEM_3_HEAD_FRAME" x="242" y="170" width="260" height="48" fill="none"/>
    <text id="ITEM_3_BODY" x="242.0" y="220.0" text-anchor="start" font-size="20" fill="var(--primary-text)" data-bg-id="ITEM_3_TEXT_BG" style="font-size: 26px; font-family: Inter, Segoe UI, Kalam, Roboto, Helvetica, Arial, sans-serif; font-weight: 400;" data-final-font-size="26">
      <tspan x="242.0" dy="32.84px">Negative results from air</tspan>
      <tspan x="242.0" dy="29.90px">defence tracking systems</tspan>
    </text>
    <rect id="ITEM_3_BODY_FRAME" x="242" y="220" width="380" height="120" fill="none"/>
    <!-- ITEM 4 - Bottom Left -->
    <circle id="ITEM_4_PAD" cx="-158" cy="220" r="48" fill="var(--icon-pad-bg)" stroke="var(--primary-text)" opacity="0.9" fill-opacity="0.9" stroke-width="2"/>
    <circle id="ITEM_4_PAD_INNER" cx="-158" cy="220" r="37.44" fill="var(--accent-3)" fill-opacity="0.22"/>
    <circle cx="-158" cy="220" r="38" fill="none" stroke="var(--accent-4)" stroke-width="3" stroke-dasharray="6 4"/>
    <g id="ITEM_4_ICON" transform="translate(-185, 193)" data-icon-size="54">
      <g transform="translate(-15.788571428571423,-15.788571428571426) scale(2.674285714285714)">
        <path d="M22.39 30H9.61C8.17 30 7 28.8271 7 27.3835V4.61654C7 3.17293 8.17 2 9.61 2H22.39C23.83 2 25 3.17293 25 4.61654V27.3835C25 28.8271 23.83 30 22.39 30Z" fill="black"/>
        <path d="M9.74454 15.5H22.2653C23.2223 15.5 24.0099 14.7056 23.9999 13.7401V4.75986C23.9999 3.78439 23.2223 3 22.2554 3H9.74454C8.77757 3 8 3.78439 8 4.75986V13.7401C8 14.7156 8.77757 15.5 9.74454 15.5Z" fill="#433B6B"/>
        <path d="M9.74454 29H22.2653C23.2223 29 24.0099 28.2056 23.9999 27.2401V18.2599C23.9999 17.2844 23.2223 16.5 22.2554 16.5H9.74454C8.77757 16.5 8 17.2844 8 18.2599V27.2401C8 28.2156 8.77757 29 9.74454 29Z" fill="#433B6B"/>
        <path d="M13.53 8.1H18.43C18.87 8.1 19.22 7.75 19.22 7.31V5.73C19.22 5.29 18.86 4.94 18.43 4.94H13.53C13.09 4.94 12.74 5.3 12.74 5.73V7.31C12.74 7.75 13.1 8.1 13.53 8.1Z" fill="#F4F4F4"/>
        <path d="M13.53 21.52H18.43C18.87 21.52 19.22 21.17 19.22 20.73V19.15C19.22 18.71 18.86 18.36 18.43 18.36H13.53C13.09 18.36 12.74 18.72 12.74 19.15V20.73C12.74 21.17 13.1 21.52 13.53 21.52Z" fill="#F4F4F4"/>
        <path d="M13.53 4.5672C12.881 4.5672 12.3672 5.09718 12.3672 5.73V7.31C12.3672 7.95895 12.8972 8.4728 13.53 8.4728H18.43C19.0759 8.4728 19.5928 7.95589 19.5928 7.31V5.73C19.5928 5.08104 19.0628 4.5672 18.43 4.5672H13.53ZM13.1128 5.73C13.1128 5.50282 13.2989 5.3128 13.53 5.3128H18.43C18.6572 5.3128 18.8472 5.49895 18.8472 5.73V7.31C18.8472 7.54411 18.6641 7.7272 18.43 7.7272H13.53C13.3028 7.7272 13.1128 7.54104 13.1128 7.31V5.73Z" fill="#8D65C5"/>
        <path d="M13.11 10.18C12.6958 10.18 12.36 10.5158 12.36 10.93C12.36 11.3442 12.6958 11.68 13.11 11.68H18.83C19.2442 11.68 19.58 11.3442 19.58 10.93C19.58 10.5158 19.2442 10.18 18.83 10.18H13.11Z" fill="#8D65C5"/>
        <path d="M12.3672 19.15C12.3672 18.5172 12.881 17.9872 13.53 17.9872H18.43C19.0628 17.9872 19.5928 18.501 19.5928 19.15V20.73C19.5928 21.3759 19.0759 21.8928 18.43 21.8928H13.53C12.8972 21.8928 12.3672 21.379 12.3672 20.73V19.15ZM13.53 18.7328C13.2989 18.7328 13.1128 18.9228 13.1128 19.15V20.73C13.1128 20.961 13.3028 21.1472 13.53 21.1472H18.43C18.6641 21.1472 18.8472 20.9641 18.8472 20.73V19.15C18.8472 18.919 18.6572 18.7328 18.43 18.7328H13.53Z" fill="#8D65C5"/>
        <path d="M13.11 23.6C12.6958 23.6 12.36 23.9358 12.36 24.35C12.36 24.7642 12.6958 25.1 13.11 25.1H18.83C19.2442 25.1 19.58 24.7642 19.58 24.35C19.58 23.9358 19.2442 23.6 18.83 23.6H13.11Z" fill="#8D65C5"/>
      </g>
    </g>
    <rect id="ITEM_4_TEXT_BG" x="-640.0" y="154.0" width="416.0" height="202.0" rx="16" fill="var(--panel)" fill-opacity="0.94" stroke="var(--primary-text)" stroke-opacity="0.12" stroke-width="1.5"/>
    <rect x="-640.0" y="154.0" width="416.0" height="202.0" rx="16" fill="url(#svg9700f013-venn-label-sheen)" opacity="0.85"/>
    <text id="ITEM_4_HEAD" x="-242.0" y="170.0" text-anchor="end" font-weight="bold" font-size="34" fill="var(--accent-3)" data-bg-id="ITEM_4_TEXT_BG" fill-opacity="1.0" stroke="none" style="font-size: 30px; font-family: Inter, Segoe UI, Kalam, Roboto, Helvetica, Arial, sans-serif; font-weight: 700; letter-spacing:-0.4px;" data-final-font-size="30">
      <tspan x="-242.0" dy="32.25px">Official Records</tspan>
    </text>
    <rect id="ITEM_4_HEAD_FRAME" x="-502" y="170" width="260" height="48" fill="none"/>
    <text id="ITEM_4_BODY" x="-242.0" y="220.0" text-anchor="end" font-size="20" fill="var(--primary-text)" data-bg-id="ITEM_4_TEXT_BG" style="font-size: 26px; font-family: Inter, Segoe UI, Kalam, Roboto, Helvetica, Arial, sans-serif; font-weight: 400;" data-final-font-size="26">
      <tspan x="-242.0" dy="32.84px">Single-sheet reports held</tspan>
      <tspan x="-242.0" dy="29.90px">in National Archives</tspan>
    </text>
    <rect id="ITEM_4_BODY_FRAME" x="-622" y="220" width="380" height="120" fill="none"/>
    <!-- ITEM 5 - Top Left -->
    <circle id="ITEM_5_PAD" cx="-256" cy="-83" r="48" fill="var(--icon-pad-bg)" stroke="var(--primary-text)" opacity="0.9" fill-opacity="0.9" stroke-width="2"/>
    <circle id="ITEM_5_PAD_INNER" cx="-256" cy="-83" r="37.44" fill="var(--accent-4)" fill-opacity="0.22"/>
    <circle cx="-256" cy="-83" r="38" fill="none" stroke="var(--accent-5)" stroke-width="3" stroke-dasharray="6 4"/>
    <g id="ITEM_5_ICON" transform="translate(-283, -110)" data-icon-size="54">
      <g transform="translate(-15.788571428571426,-17.12571428571428) scale(2.674285714285714)">
        <path d="M22.5247 17.94C26.6502 17.94 29.9947 14.5956 29.9947 10.47C29.9947 6.34443 26.6502 3 22.5247 3C18.3991 3 15.0547 6.34443 15.0547 10.47C15.0547 14.5956 18.3991 17.94 22.5247 17.94Z" fill="#533566"/>
        <path d="M2.64445 29.2101C1.81445 28.3301 1.78446 26.9601 2.56446 26.0401L15.1045 11.3401L21.2145 17.8201L5.80445 29.4801C4.84445 30.2101 3.47445 30.0901 2.64445 29.2101Z" fill="#9B9B9B"/>
        <path d="M18.9958 4.00515L28.9358 14.5552C29.5958 15.2552 29.5658 16.3552 28.8658 17.0051C28.1658 17.6651 27.0758 17.6352 26.4158 16.9352L16.4758 6.38515C15.8158 5.68515 15.8458 4.59517 16.5458 3.93517C17.2458 3.27517 18.3358 3.30515 18.9958 4.00515ZM15.4146 18.5302C15.4146 19.342 14.7565 20.0002 13.9446 20.0002C13.1328 20.0002 12.4746 19.342 12.4746 18.5302C12.4746 17.7183 13.1328 17.0602 13.9446 17.0602C14.7565 17.0602 15.4146 17.7183 15.4146 18.5302Z" fill="#BEBEBE"/>
      </g>
    </g>
    <rect id="ITEM_5_TEXT_BG" x="-738.0" y="-156.0" width="416.0" height="204.0" rx="16" fill="var(--panel)" fill-opacity="0.94" stroke="var(--primary-text)" stroke-opacity="0.12" stroke-width="1.5"/>
    <rect x="-738.0" y="-156.0" width="416.0" height="204.0" rx="16" fill="url(#svg9700f013-venn-label-sheen)" opacity="0.85"/>
    <text id="ITEM_5_HEAD" x="-340.0" y="-140.0" text-anchor="end" font-weight="bold" font-size="34" fill="var(--accent-4)" data-bg-id="ITEM_5_TEXT_BG" fill-opacity="1.0" stroke="none" style="font-size: 30px; font-family: Inter, Segoe UI, Kalam, Roboto, Helvetica, Arial, sans-serif; font-weight: 700; letter-spacing:-0.4px;" data-final-font-size="30">
      <tspan x="-340.0" dy="32.25px">Public Inquiry</tspan>
    </text>
    <rect id="ITEM_5_HEAD_FRAME" x="-600" y="-140" width="260" height="48" fill="none"/>
    <text id="ITEM_5_BODY" x="-340.0" y="-88.0" text-anchor="end" font-size="20" fill="var(--primary-text)" data-bg-id="ITEM_5_TEXT_BG" style="font-size: 26px; font-family: Inter, Segoe UI, Kalam, Roboto, Helvetica, Arial, sans-serif; font-weight: 400;" data-final-font-size="26">
      <tspan x="-340.0" dy="32.84px">Ongoing requests from</tspan>
      <tspan x="-340.0" dy="29.90px">journalists and researchers</tspan>
    </text>
    <rect id="ITEM_5_BODY_FRAME" x="-720" y="-88" width="380" height="120" fill="none"/>
  </g>
</svg>
