<?xml version='1.0' encoding='utf-8'?>
<svg xmlns="http://www.w3.org/2000/svg" width="1920" height="1080" viewBox="0 0 1920 1080" data-theme="light">
  <style>
        @font-face {
            font-family: 'Inter';
            src: url('assets/fonts/Inter-Regular.ttf') format('truetype');
            font-weight: 400;
            font-style: normal;
            font-display: swap;
        }
        @font-face {
            font-family: 'Inter';
            src: url('assets/fonts/Inter-Bold.ttf') format('truetype');
            font-weight: 600;
            font-style: normal;
            font-display: swap;
        }
        @font-face {
            font-family: 'Inter';
            src: url('assets/fonts/Inter-Bold.ttf') format('truetype');
            font-weight: 800;
            font-style: normal;
            font-display: swap;
        }
        
:root {
    --background: #f8fafc;
    --panel: #ffffff;
    --primary-text: #0f172a;
    --muted-text: #64748b;
    --inverse-text: #ffffff;
    --border: #e2e8f0;
    --shadow-color: #000000;
    --icon-pad-bg: #1e293b;
    --art-glow: #0891b2;
    --art-glow-opacity: 0.10;
    --art-sheen: #ffffff;
    --art-sheen-opacity: 0.34;
    --art-shadow: #0f172a;
    --art-shadow-opacity: 0.14;
    --art-muted-line: #94a3b8;
    --art-panel-tint: #f1f5f9;
    --font-family: 'Inter', 'Segoe UI', 'Kalam', Roboto, Helvetica, Arial, sans-serif;
    --radius-xl: 16px;
    --font-family-headline: 'Inter', 'Segoe UI', 'Kalam', Roboto, Helvetica, Arial, sans-serif;
    --font-family-body: 'Inter', 'Segoe UI', 'Kalam', Roboto, Helvetica, Arial, sans-serif;
    --font-heading: 'Inter', 'Segoe UI', 'Kalam', Roboto, Helvetica, Arial, sans-serif;
    --font-body: 'Inter', 'Segoe UI', 'Kalam', Roboto, Helvetica, Arial, sans-serif;
    --font-size-h1: 56px;
    --font-size-h2: 40px;
    --font-size-h3: 28px;
    --font-size-body: 24px;
    --font-size-caption: 18px;
    --secondary-text: var(--muted-text);
    --panel-border: var(--border);
    --font-weight-normal: 400;
    --font-weight-medium: 500;
    --font-weight-semibold: 600;
    --font-weight-bold: 700;
    --spacing-gutter-pct: 0.07;
    --spacing-top-pct: 0.15;
    --spacing-bottom-pct: 0.07;
    --spacing-title-y-pct: 0.055;
    --accent-1: #0891b2;
    --accent-2: #db2777;
    --accent-3: #ca8a04;
    --accent-4: #65a30d;
    --accent-5: #ea580c;
    --accent-6: #9333ea;
}
:root[data-theme="dark"] {
    --background: #0f172a;
    --panel: #1e293b;
    --primary-text: #f1f5f9;
    --muted-text: #94a3b8;
    --inverse-text: #0f172a;
    --border: #334155;
    --shadow-color: #000000;
    --icon-pad-bg: #1e293b;
    --art-glow: #7dd3fc;
    --art-glow-opacity: 0.18;
    --art-sheen: #ffffff;
    --art-sheen-opacity: 0.18;
    --art-shadow: #000000;
    --art-shadow-opacity: 0.28;
    --art-muted-line: #64748b;
    --art-panel-tint: #1e293b;
    --accent-1: #22d3ee;
    --accent-2: #f472b6;
    --accent-3: #facc15;
    --accent-4: #a3e635;
    --accent-5: #fb923c;
    --accent-6: #c084fc;
}
:root[data-theme="light"] {
    --background: #f8fafc;
    --panel: #ffffff;
    --primary-text: #0f172a;
    --muted-text: #64748b;
    --inverse-text: #ffffff;
    --border: #e2e8f0;
    --shadow-color: #000000;
    --icon-pad-bg: #1e293b;
    --art-glow: #0891b2;
    --art-glow-opacity: 0.10;
    --art-sheen: #ffffff;
    --art-sheen-opacity: 0.34;
    --art-shadow: #0f172a;
    --art-shadow-opacity: 0.14;
    --art-muted-line: #94a3b8;
    --art-panel-tint: #f1f5f9;
    --accent-1: #0891b2;
    --accent-2: #db2777;
    --accent-3: #ca8a04;
    --accent-4: #65a30d;
    --accent-5: #ea580c;
    --accent-6: #9333ea;
}</style>
  <rect x="0" y="0" width="1.92E+3" height="1.08E+3" fill="#252a34" stroke="none" id="programmatic_background"/>
  <line id="HEADER_DECOR" x1="960.0" x2="1080.0" y1="127.0" y2="127.0" stroke="var(--accent-1)" stroke-width="6" stroke-linecap="round"/>
  <defs>
    <pattern id="svg17314137-napkin-hatch" patternUnits="userSpaceOnUse" width="12" height="12">
      <path d="M -3 12 L 12 -3 M 0 15 L 15 0" fill="none" stroke="var(--primary-text)" stroke-width="1" stroke-opacity="0.05"/>
    </pattern>
    <filter id="svg17314137-shadow" x="-30%" y="-30%" width="160%" height="160%">
      <feDropShadow dx="0" dy="3" stdDeviation="6" flood-color="#000000" flood-opacity="0.10"/>
      <feDropShadow dx="0" dy="8" stdDeviation="12" flood-color="#000000" flood-opacity="0.16"/>
    </filter>
    <radialGradient id="svg17314137-universal-edge-vignette" cx="50%" cy="50%" r="72%">
      <stop offset="0%" stop-color="var(--background)" stop-opacity="0"/>
      <stop offset="72%" stop-color="var(--background)" stop-opacity="0.12"/>
      <stop offset="100%" stop-color="var(--primary-text)" stop-opacity="0.08"/>
    </radialGradient>
    <linearGradient id="svg17314137-universal-surface-sheen" x1="0%" y1="0%" x2="100%" y2="100%">
      <stop offset="0%" stop-color="var(--art-sheen)" stop-opacity="var(--art-sheen-opacity)"/>
      <stop offset="46%" stop-color="var(--art-sheen)" stop-opacity="0.035"/>
      <stop offset="100%" stop-color="var(--art-panel-tint)" stop-opacity="0.14"/>
    </linearGradient>
    <radialGradient id="svg17314137-universal-icon-aura" cx="50%" cy="42%" r="64%">
      <stop offset="0%" stop-color="var(--art-glow)" stop-opacity="var(--art-glow-opacity)"/>
      <stop offset="100%" stop-color="var(--background)" stop-opacity="0"/>
    </radialGradient>
    <filter id="svg17314137-text-glow" x="-20%" y="-20%" width="140%" height="140%">
      <feDropShadow dx="0" dy="0" stdDeviation="2" flood-color="#000000" flood-opacity="0.4"/>
    </filter>
    <marker id="svg17314137-arrowhead" markerWidth="10" markerHeight="7" refX="9" refY="3.5" orient="auto" markerUnits="strokeWidth">
      <polygon points="0 0, 10 3.5, 0 7" fill="var(--muted-text)" opacity="0.6"/>
    </marker>
  </defs>
  <rect width="100%" height="100%" fill="var(--background)" id="CANVAS_BG"/>
  <rect width="100%" height="100%" fill="url(#svg17314137-napkin-hatch)"/>
  <rect id="UNIVERSAL_EDGE_VIGNETTE" width="100%" height="100%" fill="url(#svg17314137-universal-edge-vignette)" opacity="0.62"/>
  <text id="TITLE" x="960.0" y="59" text-anchor="middle" font-size="60" font-weight="800" fill="#0f172a" style="font-size: 60px; font-family: Inter, Segoe UI, Kalam, Roboto, Helvetica, Arial, sans-serif; font-weight: 700; letter-spacing:-1.2px;" data-final-font-size="60">
    <tspan x="960.0" dy="68.00px">Environmental Factors Altering Forest Evidence</tspan>
  </text>
  <rect id="TITLE_FRAME" x="134" y="54" width="1652" height="100" fill="none"/>
  <rect x="150" y="150" width="1620" height="850" rx="40" fill="var(--panel)" fill-opacity="0.18" stroke="var(--muted-text)" stroke-width="2" opacity="0.90"/>
  <line x1="360" y1="212.0" x2="360" y2="938.0" stroke="var(--muted-text)" stroke-width="18" stroke-linecap="round" opacity="0.18"/>
  <line x1="360" y1="212.0" x2="360" y2="938.0" stroke="var(--border)" stroke-width="3" stroke-linecap="round" opacity="0.72"/>
  <g id="DIAGRAM_MAIN">
    <g filter="url(#svg17314137-shadow)">
      <line x1="404.0" y1="240.0" x2="420.0" y2="240.0" stroke="var(--accent-1)" stroke-width="5" opacity="0.76" stroke-linecap="round"/>
      <rect id="ITEM_1_BG" x="420.0" y="174.0" width="1085" height="152" rx="22" fill="var(--panel)" fill-opacity="0.97" stroke="var(--accent-1)" stroke-width="2.5"/>
      <rect x="420.0" y="174.0" width="1085" height="152" rx="16" fill="url(#svg17314137-universal-surface-sheen)" opacity="0.88"/>
      <rect x="420.0" y="174.0" width="14" height="132" rx="7" fill="var(--accent-1)" fill-opacity="0.90"/>
      <circle id="ITEM_1_PAD" cx="360" cy="240.0" r="46" fill="var(--icon-pad-bg)" opacity="0.95" fill-opacity="0.9" stroke-width="2" stroke="var(--primary-text)"/>
      <circle id="ITEM_1_PAD_INNER" cx="360" cy="240.0" r="35.88" fill="var(--accent-4)" fill-opacity="0.22"/>
      <circle cx="360" cy="240.0" r="38" fill="none" stroke="var(--accent-1)" stroke-width="3" stroke-dasharray="6 4"/>
      <g id="ITEM_1_ICON" transform="translate(324, 204.0)" data-icon-size="72" stroke-dasharray="6 4">
        <g transform="translate(-5.142857142857143,-14.14285714285715) scale(2.5714285714285716)">
          <path d="M24.99 19.88C24.99 19.88 20.23 19.24 18.94 15.52H18.93V11.59C18.93 10.16 17.77 9 16.34 9H4.59C3.16 9 2 10.16 2 11.59V15.53V25.93H11.4C12.96 25.93 14.22 26.19 14.22 27.75H27.06C28.13 27.75 29 27.88 29 26.81L30 25.94C30.01 22.97 27.9 20.43 24.99 19.88Z" fill="#FFB02E"/>
          <path d="M2 13.84V11.59C2 10.16 3.16 9 4.59 9H10.86V11.91C10.86 12.98 9.99 13.84 8.93 13.84H2Z" fill="#7D4533"/>
          <path d="M18.6186 13.0202C18.9998 13.0154 19.3049 12.7026 19.3002 12.3214C19.2954 11.9402 18.9825 11.6351 18.6013 11.6398L16.2013 11.6698C15.8201 11.6746 15.515 11.9875 15.5198 12.3686C15.5245 12.7498 15.8374 13.055 16.2186 13.0502L18.6186 13.0202Z" fill="#7D4533"/>
          <path d="M30 25.93V27.54C30 28 30.03 28.16 29.89 28.49C29.68 29.29 28.97 29.89 28.15 29.98C27.22 30.08 26.39 29.54 26.06 28.75H25.02C24.72 29.48 23.99 29.99 23.15 29.99C22.31 29.99 21.59 29.48 21.28 28.75H20.24C19.94 29.48 19.21 29.99 18.37 29.99C17.53 29.99 16.81 29.48 16.5 28.75H15.46C15.16 29.48 14.43 29.99 13.59 29.99C12.75 29.99 12.03 29.48 11.72 28.75H10.68C10.38 29.48 9.65 29.99 8.81 29.99C7.97 29.99 7.25 29.48 6.94 28.75H5.9C5.6 29.48 4.87 29.99 4.03 29.99C2.91 29.99 2 29.08 2 27.96V25.93H30Z" fill="#7D4533"/>
          <path d="M19.3001 15.5385C19.3065 15.9196 19.0026 16.2338 18.6215 16.2401L16.2215 16.2801C15.8403 16.2865 15.5262 15.9827 15.5198 15.6015C15.5135 15.2203 15.8173 14.9062 16.1985 14.8998L18.5985 14.8598C18.9796 14.8535 19.2938 15.1573 19.3001 15.5385Z" fill="#7D4533"/>
        </g>
      </g>
      <text id="ITEM_1_HEAD" x="500.0" y="192.0" text-anchor="start" font-weight="800" font-size="30" fill="var(--primary-text)" data-bg-id="ITEM_1_BG" fill-opacity="1.0" style="font-size: 30px; font-family: Inter, Segoe UI, Kalam, Roboto, Helvetica, Arial, sans-serif; font-weight: 700; letter-spacing:-0.4px;" data-final-font-size="30">
        <tspan x="500.0" dy="27.13px">Human Foot Traffic</tspan>
      </text>
      <rect id="ITEM_1_HEAD_FRAME" x="500" y="192.0" width="760" height="32" fill="none"/>
      <text id="ITEM_1_BODY" x="500.0" y="230.0" text-anchor="start" font-size="24" fill="var(--primary-text)" data-bg-id="ITEM_1_BG" style="font-size: 26px; font-family: Inter, Segoe UI, Kalam, Roboto, Helvetica, Arial, sans-serif; font-weight: 400;" data-final-font-size="26">
        <tspan x="500.0" dy="31.81px">Repeated visits compress soil and disturb leaf litter</tspan>
      </text>
      <rect id="ITEM_1_BODY_FRAME" x="500" y="230.0" width="860" height="72" fill="none"/>
      <text x="1460" y="216.0" text-anchor="end" font-size="18" font-weight="800" fill="var(--accent-1)" opacity="0.70">01</text>
    </g>
    <g filter="url(#svg17314137-shadow)">
      <line x1="404.0" y1="407.5" x2="420.0" y2="407.5" stroke="var(--accent-2)" stroke-width="5" opacity="0.76" stroke-linecap="round"/>
      <rect id="ITEM_2_BG" x="420.0" y="341.5" width="1085" height="152" rx="22" fill="var(--panel)" fill-opacity="0.97" stroke="var(--accent-2)" stroke-width="2.5"/>
      <rect x="420.0" y="341.5" width="1085" height="152" rx="16" fill="url(#svg17314137-universal-surface-sheen)" opacity="0.88"/>
      <rect x="420.0" y="341.5" width="14" height="132" rx="7" fill="var(--accent-2)" fill-opacity="0.90"/>
      <circle id="ITEM_2_PAD" cx="360" cy="407.5" r="46" fill="var(--icon-pad-bg)" opacity="0.95" fill-opacity="0.9" stroke-width="2" stroke="var(--primary-text)"/>
      <circle id="ITEM_2_PAD_INNER" cx="360" cy="407.5" r="35.88" fill="var(--accent-5)" fill-opacity="0.22"/>
      <circle cx="360" cy="407.5" r="38" fill="none" stroke="var(--accent-2)" stroke-width="3" stroke-dasharray="6 4"/>
      <g id="ITEM_2_ICON" transform="translate(324, 371.5)" data-icon-size="72" stroke-dasharray="6 4">
        <g transform="translate(-2.4,-3.599999999999997) scale(2.4)">
          <path fill-rule="evenodd" clip-rule="evenodd" d="M17.4889 5.3447C17.7732 4.67235 17.7502 3.88017 17.3598 3.19996C16.6598 1.98996 15.0798 1.62996 13.9198 2.41996L8.64818 6.02814C5.99365 6.31089 3.7108 7.71568 2.62948 10.0965C2.5729 10.2211 2.51779 10.3533 2.46987 10.4683L2.46692 10.4754L1.41929 12.9997C1.13231 13.6642 1 14.3783 1 15.08C1 17.7923 3.20772 20 5.92 20H8.03003V27.1718C6.86681 27.5852 6.03003 28.698 6.03003 30V30C6.03003 30.5523 6.47774 31 7.03003 31C12.01 31 16.99 31 21.9699 31C24.2099 31 26.1996 29.5657 26.9168 27.4518C27.0999 26.9131 27.2868 26.3708 27.4745 25.8261C27.875 24.664 28.2796 23.4901 28.6588 22.3171L28.6634 22.3028L28.6676 22.2883C28.8821 21.5493 29 20.7842 29 20C29 19.3731 28.9167 18.701 28.7792 18.0963C28.7446 17.9444 28.7054 17.7912 28.6612 17.6396C30.0414 17.0087 31 15.6167 31 14C31 11.7908 29.2091 9.99999 27 9.99999C25.3782 9.99999 23.9825 10.9647 23.3545 12.3519C22.6099 12.123 21.819 12 21 12H19.6146C21.4802 11.9921 23 10.4674 23 8.60002C23 6.62149 21.3179 5.0476 19.3327 5.20301L19.3317 5.20309L17.4889 5.3447Z" fill="#9B9B9B"/>
          <path d="M9 7.00003L19.41 6.20003C20.81 6.09003 22 7.20003 22 8.60003C22 9.92003 20.92 11 19.6 11H14.66C14.88 11.63 15 12.3 15 13H21C22.0819 13 23.1048 13.2447 24.0167 13.6812C24.1759 12.1742 25.4508 11 27 11C28.6569 11 30 12.3431 30 14C30 15.5519 28.8216 16.8286 27.3107 16.9841C27.7073 17.61 28 18.9104 28 20C28 20.683 27.8974 21.3543 27.7073 22.0096C27.1531 23.7238 26.5498 25.424 25.97 27.13C25.39 28.84 23.78 30 21.97 30C21.97 30 15.031 30 14 30C14 28.9 14.9 28 16 28H16.7C16.87 28 17.01 27.86 17.01 27.69V27H14.03L13.32 29.12C13.14 29.65 12.65 30 12.1 30H7.03003C7.03003 28.9 7.93003 28 9.03003 28V19H5.92C3.76 19 2 17.24 2 15.08C2 14.5 2.11 13.92 2.34 13.39L3.39 10.86C3.44 10.74 3.49 10.62 3.54 10.51C4.48 8.44003 6.52 7.19003 9 7.00003Z" fill="white"/>
          <path d="M19.49 7.18994H19.6C20.39 7.18994 21.03 7.84994 20.99 8.64994C20.96 9.40994 20.31 9.99994 19.55 9.99994H12.51C12.22 9.99994 12 9.71994 12.07 9.42994C12.31 8.43994 13.16 7.67994 14.22 7.59994L19.49 7.18994Z" fill="#FF8687"/>
          <path d="M2 15.08C2.12 15.03 2.25 15 2.38 15C2.94 15 3.38 15.45 3.38 16C3.38 16.51 3 16.93 2.5 16.99C2.18 16.43 2 15.78 2 15.08Z" fill="#FF8687"/>
          <path d="M6.81 14.62C7.25735 14.62 7.62 14.2574 7.62 13.81C7.62 13.3626 7.25735 13 6.81 13C6.36265 13 6 13.3626 6 13.81C6 14.2574 6.36265 14.62 6.81 14.62Z" fill="#1C1C1C"/>
        </g>
      </g>
      <text id="ITEM_2_HEAD" x="500.0" y="359.5" text-anchor="start" font-weight="800" font-size="30" fill="var(--primary-text)" data-bg-id="ITEM_2_BG" fill-opacity="1.0" style="font-size: 30px; font-family: Inter, Segoe UI, Kalam, Roboto, Helvetica, Arial, sans-serif; font-weight: 700; letter-spacing:-0.4px;" data-final-font-size="30">
        <tspan x="500.0" dy="27.13px">Small Mammals</tspan>
      </text>
      <rect id="ITEM_2_HEAD_FRAME" x="500" y="359.5" width="760" height="32" fill="none"/>
      <text id="ITEM_2_BODY" x="500.0" y="397.5" text-anchor="start" font-size="24" fill="var(--primary-text)" data-bg-id="ITEM_2_BG" style="font-size: 26px; font-family: Inter, Segoe UI, Kalam, Roboto, Helvetica, Arial, sans-serif; font-weight: 400;" data-final-font-size="26">
        <tspan x="500.0" dy="31.81px">Animals create shallow depressions mistaken for landing marks</tspan>
      </text>
      <rect id="ITEM_2_BODY_FRAME" x="500" y="397.5" width="860" height="72" fill="none"/>
      <text x="1460" y="383.5" text-anchor="end" font-size="18" font-weight="800" fill="var(--accent-2)" opacity="0.70">02</text>
    </g>
    <g filter="url(#svg17314137-shadow)">
      <line x1="404.0" y1="575.0" x2="420.0" y2="575.0" stroke="var(--accent-3)" stroke-width="5" opacity="0.76" stroke-linecap="round"/>
      <rect id="ITEM_3_BG" x="420.0" y="509.0" width="1085" height="152" rx="22" fill="var(--panel)" fill-opacity="0.97" stroke="var(--accent-3)" stroke-width="2.5"/>
      <rect x="420.0" y="509.0" width="1085" height="152" rx="16" fill="url(#svg17314137-universal-surface-sheen)" opacity="0.88"/>
      <rect x="420.0" y="509.0" width="14" height="132" rx="7" fill="var(--accent-3)" fill-opacity="0.90"/>
      <circle id="ITEM_3_PAD" cx="360" cy="575.0" r="46" fill="var(--icon-pad-bg)" opacity="0.95" fill-opacity="0.9" stroke-width="2" stroke="var(--primary-text)"/>
      <circle id="ITEM_3_PAD_INNER" cx="360" cy="575.0" r="35.88" fill="var(--accent-6)" fill-opacity="0.22"/>
      <circle cx="360" cy="575.0" r="38" fill="none" stroke="var(--accent-3)" stroke-width="3" stroke-dasharray="6 4"/>
      <g id="ITEM_3_ICON" transform="translate(324, 539.0)" data-icon-size="72" stroke-dasharray="6 4">
        <g transform="translate(-6.428571428571431,-5.142857142857143) scale(2.5714285714285716)">
          <path d="M23.5638 18.9L28.6756 17.54C29.229 17.39 29.8126 17.69 29.9636 18.25C30.1145 18.81 29.7824 19.37 29.229 19.52L26.1197 20.35L28.3435 21.62C28.8265 21.9 28.9976 22.51 28.7158 22.99C28.4341 23.47 27.8203 23.64 27.3373 23.36L25.1135 22.09L25.9486 25.18C26.0996 25.74 25.7776 26.3 25.2141 26.45C24.6506 26.6 24.0871 26.27 23.9361 25.72L22.5677 20.64L20.2533 19.31C19.5389 20.1 18.593 20.68 17.5062 20.9V23.53L21.2495 27.25C21.652 27.65 21.652 28.31 21.2495 28.71C20.847 29.11 20.1829 29.11 19.7804 28.71L17.5062 26.45V29C17.5062 29.55 17.0534 30 16.5 30C15.9466 30 15.4938 29.55 15.4938 29V26.46L13.2196 28.72C12.8171 29.12 12.153 29.12 11.7505 28.72C11.348 28.32 11.348 27.66 11.7505 27.26L15.4938 23.54V20.91C14.3969 20.69 13.4611 20.11 12.7467 19.32L10.4424 20.64L9.07391 25.72C8.92298 26.27 8.34942 26.6 7.79598 26.45C7.24255 26.3 6.91049 25.73 7.06142 25.18L7.89661 22.09L5.6728 23.37C5.18981 23.64 4.576 23.48 4.29425 23C4.0125 22.52 4.18356 21.91 4.6565 21.65L6.8803 20.37L3.771 19.54C3.21757 19.39 2.88551 18.82 3.03644 18.27C3.18738 17.72 3.76094 17.39 4.31437 17.54L9.4261 18.9L11.7405 17.57C11.5694 17.08 11.4587 16.55 11.4587 16C11.4587 15.45 11.5694 14.92 11.7405 14.45L9.4261 13.12L4.31437 14.48C3.75088 14.63 3.18738 14.3 3.03644 13.75C2.88551 13.19 3.21757 12.63 3.771 12.48L6.8803 11.65L4.6565 10.37C4.18356 10.09 4.0125 9.48 4.29425 9C4.56594 8.52 5.18981 8.36 5.66274 8.63L7.89661 9.91L7.06142 6.82C6.91049 6.27 7.24255 5.71 7.79598 5.56C8.34942 5.41 8.91291 5.74 9.06385 6.29L10.4323 11.37L12.7366 12.69C13.4511 11.9 14.3969 11.32 15.4837 11.1V8.47L11.7405 4.75C11.338 4.35 11.338 3.69 11.7405 3.29C12.143 2.89 12.8071 2.89 13.2096 3.29L15.4837 5.55V3C15.4837 2.45 15.9365 2 16.4899 2C17.0434 2 17.4962 2.45 17.4962 3V5.55L19.7703 3.29C20.1728 2.89 20.8369 2.89 21.2394 3.29C21.6419 3.69 21.6419 4.35 21.2394 4.75L17.4962 8.47V11.1C18.5829 11.32 19.5288 11.9 20.2332 12.68L22.5475 11.35L23.916 6.27C24.067 5.72 24.6405 5.39 25.194 5.54C25.7474 5.69 26.0795 6.26 25.9285 6.81L25.0933 9.9L27.3171 8.63C27.8001 8.36 28.4139 8.52 28.6957 9C28.9674 9.48 28.8064 10.09 28.3334 10.36L26.1096 11.63L29.2189 12.46C29.7724 12.61 30.1044 13.18 29.9535 13.73C29.8026 14.28 29.229 14.61 28.6756 14.46L23.5638 13.1L21.2495 14.43C21.4205 14.92 21.5312 15.45 21.5312 16C21.5312 16.55 21.4205 17.07 21.2495 17.57L23.5638 18.9ZM19.5087 16C19.5087 14.3431 18.1572 13 16.49 13C14.8228 13 13.4712 14.3431 13.4712 16C13.4712 17.6569 14.8228 19 16.49 19C18.1572 19 19.5087 17.6569 19.5087 16Z" fill="#00A6ED"/>
        </g>
      </g>
      <text id="ITEM_3_HEAD" x="500.0" y="527.0" text-anchor="start" font-weight="800" font-size="30" fill="var(--accent-6)" data-bg-id="ITEM_3_BG" fill-opacity="1.0" style="font-size: 30px; font-family: Inter, Segoe UI, Kalam, Roboto, Helvetica, Arial, sans-serif; font-weight: 700; letter-spacing:-0.4px;" data-final-font-size="30">
        <tspan x="500.0" dy="27.13px">Weathering Effects</tspan>
      </text>
      <rect id="ITEM_3_HEAD_FRAME" x="500" y="527.0" width="760" height="32" fill="none"/>
      <text id="ITEM_3_BODY" x="500.0" y="565.0" text-anchor="start" font-size="24" fill="var(--primary-text)" data-bg-id="ITEM_3_BG" style="font-size: 26px; font-family: Inter, Segoe UI, Kalam, Roboto, Helvetica, Arial, sans-serif; font-weight: 400;" data-final-font-size="26">
        <tspan x="500.0" dy="31.81px">Rain and frost soften edges of physical impressions</tspan>
      </text>
      <rect id="ITEM_3_BODY_FRAME" x="500" y="565.0" width="860" height="72" fill="none"/>
      <text x="1460" y="551.0" text-anchor="end" font-size="18" font-weight="800" fill="var(--accent-3)" opacity="0.70">03</text>
    </g>
    <g filter="url(#svg17314137-shadow)">
      <line x1="404.0" y1="742.5" x2="420.0" y2="742.5" stroke="var(--accent-4)" stroke-width="5" opacity="0.76" stroke-linecap="round"/>
      <rect id="ITEM_4_BG" x="420.0" y="676.5" width="1085" height="152" rx="22" fill="var(--panel)" fill-opacity="0.97" stroke="var(--accent-4)" stroke-width="2.5"/>
      <rect x="420.0" y="676.5" width="1085" height="152" rx="16" fill="url(#svg17314137-universal-surface-sheen)" opacity="0.88"/>
      <rect x="420.0" y="676.5" width="14" height="132" rx="7" fill="var(--accent-4)" fill-opacity="0.90"/>
      <circle id="ITEM_4_PAD" cx="360" cy="742.5" r="46" fill="var(--icon-pad-bg)" opacity="0.95" fill-opacity="0.9" stroke-width="2" stroke="var(--primary-text)"/>
      <circle id="ITEM_4_PAD_INNER" cx="360" cy="742.5" r="35.88" fill="var(--accent-1)" fill-opacity="0.22"/>
      <circle cx="360" cy="742.5" r="38" fill="none" stroke="var(--accent-4)" stroke-width="3" stroke-dasharray="6 4"/>
      <g id="ITEM_4_ICON" transform="translate(324, 706.5)" data-icon-size="72" stroke-dasharray="6 4">
        <g transform="translate(-5.142857142857148,-5.142857142857143) scale(2.5714285714285716)" vector-effect="non-scaling-stroke" fill="#f1f5f9" fill-opacity="1.0" stroke="none">
          <path fill="#f1f5f9" d="M20 6c0 1.859 1.28 3.41 3 3.858V14c0 1.654-1.346 3-3 3h-8c-1.13 0-2.162.391-3 1.026V9.858c1.72-.447 3-2 3-3.858c0-2.206-1.794-4-4-4S4 3.794 4 6c0 1.859 1.28 3.41 3 3.858v12.284c-1.72.447-3 2-3 3.858c0 2.206 1.794 4 4 4s4-1.794 4-4c0-1.858-1.28-3.41-3-3.858V22c0-1.654 1.346-3 3-3h8c2.757 0 5-2.243 5-5V9.858c1.72-.447 3-2 3-3.858c0-2.206-1.794-4-4-4s-4 1.794-4 4M6 6c0-1.102.897-2 2-2s2 .898 2 2c0 1.103-.897 2-2 2s-2-.897-2-2m4 20c0 1.103-.897 2-2 2s-2-.897-2-2s.897-2 2-2s2 .897 2 2M26 6c0 1.103-.897 2-2 2s-2-.897-2-2s.898-2 2-2s2 .898 2 2" vector-effect="non-scaling-stroke" stroke="none"/>
        </g>
      </g>
      <text id="ITEM_4_HEAD" x="500.0" y="694.5" text-anchor="start" font-weight="800" font-size="30" fill="var(--primary-text)" data-bg-id="ITEM_4_BG" fill-opacity="1.0" style="font-size: 30px; font-family: Inter, Segoe UI, Kalam, Roboto, Helvetica, Arial, sans-serif; font-weight: 700; letter-spacing:-0.4px;" data-final-font-size="30">
        <tspan x="500.0" dy="27.13px">Vegetation Movement</tspan>
      </text>
      <rect id="ITEM_4_HEAD_FRAME" x="500" y="694.5" width="760" height="32" fill="none"/>
      <text id="ITEM_4_BODY" x="500.0" y="732.5" text-anchor="start" font-size="24" fill="var(--primary-text)" data-bg-id="ITEM_4_BG" style="font-size: 26px; font-family: Inter, Segoe UI, Kalam, Roboto, Helvetica, Arial, sans-serif; font-weight: 400;" data-final-font-size="26">
        <tspan x="500.0" dy="31.81px">Pine needles and branches conceal or modify traces</tspan>
      </text>
      <rect id="ITEM_4_BODY_FRAME" x="500" y="732.5" width="860" height="72" fill="none"/>
      <text x="1460" y="718.5" text-anchor="end" font-size="18" font-weight="800" fill="var(--accent-4)" opacity="0.70">04</text>
    </g>
    <g filter="url(#svg17314137-shadow)">
      <line x1="404.0" y1="910.0" x2="420.0" y2="910.0" stroke="var(--accent-5)" stroke-width="5" opacity="0.76" stroke-linecap="round"/>
      <rect id="ITEM_5_BG" x="420.0" y="844.0" width="1085" height="152" rx="22" fill="var(--panel)" fill-opacity="0.97" stroke="var(--accent-5)" stroke-width="2.5"/>
      <rect x="420.0" y="844.0" width="1085" height="152" rx="16" fill="url(#svg17314137-universal-surface-sheen)" opacity="0.88"/>
      <rect x="420.0" y="844.0" width="14" height="132" rx="7" fill="var(--accent-5)" fill-opacity="0.90"/>
      <circle id="ITEM_5_PAD" cx="360" cy="910.0" r="46" fill="var(--icon-pad-bg)" opacity="0.95" fill-opacity="0.9" stroke-width="2" stroke="var(--primary-text)"/>
      <circle id="ITEM_5_PAD_INNER" cx="360" cy="910.0" r="35.88" fill="var(--accent-2)" fill-opacity="0.22"/>
      <circle cx="360" cy="910.0" r="38" fill="none" stroke="var(--accent-5)" stroke-width="3" stroke-dasharray="6 4"/>
      <g id="ITEM_5_ICON" transform="translate(324, 874.0)" data-icon-size="72" stroke-dasharray="6 4">
        <g transform="translate(-6.107142857142861,-5.142857142857143) scale(2.5714285714285716)">
          <path d="M13.5175 2.35045C13.3275 2.02045 12.9075 1.90045 12.5775 2.09045L10.8975 3.06045C10.5675 3.25045 10.4575 3.67045 10.6475 4.01045L21.7075 23.1605C22.1375 23.9005 22.3675 24.7505 22.3675 25.6005V27.4705C22.3675 28.8705 23.4975 30.0005 24.8975 30.0005C25.3975 30.0005 25.8875 29.8605 26.3175 29.5905C27.5275 28.8305 27.9175 27.2505 27.1975 26.0205L13.5175 2.35045Z" fill="#7D4533"/>
          <path d="M9.36752 5.92055L14.5875 2.91055C14.8875 2.73055 15.2575 2.81055 15.4175 3.08055L18.8575 9.04055C19.0175 9.30055 18.8975 9.66055 18.5975 9.83055L13.3775 12.8406C12.8422 13.1484 12.3741 13.5636 12.0001 14.0534C6.99997 15.5001 4.50003 9.04055 7.68188 6.50291C8.27441 6.41799 8.84642 6.22019 9.36752 5.92055Z" fill="#F8312F"/>
          <path d="M7.73752 6.49048C6.39752 7.90048 6.07752 10.0805 7.09752 11.8405C8.11752 13.6105 10.1675 14.4205 12.0675 13.9705C11.8575 14.2305 11.6675 14.5205 11.5175 14.8305L11.2275 15.4205C11.1675 15.5205 11.0575 15.5905 10.9375 15.5905C8.88752 15.5705 6.90752 14.4905 5.80752 12.5905C4.70752 10.6905 4.76752 8.44048 5.76752 6.65048C5.82752 6.55048 5.93752 6.49048 6.05752 6.49048L6.71752 6.54048C7.05752 6.56048 7.39752 6.54048 7.73752 6.49048Z" fill="#D3D3D3"/>
          <path d="M25.9275 27.2904C25.9275 27.8427 25.4798 28.2904 24.9275 28.2904C24.3752 28.2904 23.9275 27.8427 23.9275 27.2904C23.9275 26.7381 24.3752 26.2904 24.9275 26.2904C25.4798 26.2904 25.9275 26.7381 25.9275 27.2904Z" fill="#D3D3D3"/>
        </g>
      </g>
      <text id="ITEM_5_HEAD" x="500.0" y="862.0" text-anchor="start" font-weight="800" font-size="30" fill="var(--accent-2)" data-bg-id="ITEM_5_BG" fill-opacity="1.0" style="font-size: 30px; font-family: Inter, Segoe UI, Kalam, Roboto, Helvetica, Arial, sans-serif; font-weight: 700; letter-spacing:-0.4px;" data-final-font-size="30">
        <tspan x="500.0" dy="27.13px">Forestry Activity</tspan>
      </text>
      <rect id="ITEM_5_HEAD_FRAME" x="500" y="862.0" width="760" height="32" fill="none"/>
      <text id="ITEM_5_BODY" x="500.0" y="900.0" text-anchor="start" font-size="24" fill="var(--primary-text)" data-bg-id="ITEM_5_BG" style="font-size: 26px; font-family: Inter, Segoe UI, Kalam, Roboto, Helvetica, Arial, sans-serif; font-weight: 400;" data-final-font-size="26">
        <tspan x="500.0" dy="31.81px">Axe cuts and management work mimic burn marks</tspan>
      </text>
      <rect id="ITEM_5_BODY_FRAME" x="500" y="900.0" width="860" height="72" fill="none"/>
      <text x="1460" y="886.0" text-anchor="end" font-size="18" font-weight="800" fill="var(--accent-5)" opacity="0.70">05</text>
    </g>
  </g>
</svg>
